<?xml version="1.0" standalone="no"?>
<!DOCTYPE svg PUBLIC "-//W3C//DTD SVG 20010904//EN"
 "http://www.w3.org/TR/2001/REC-SVG-20010904/DTD/svg10.dtd">
<svg version="1.0" xmlns="http://www.w3.org/2000/svg"
 width="275.000000pt" height="183.000000pt" viewBox="0 0 275.000000 183.000000"
 preserveAspectRatio="xMidYMid meet">
<metadata>
Created by potrace 1.10, written by Peter Selinger 2001-2011
</metadata>
<g transform="translate(0.000000,183.000000) scale(0.100000,-0.100000)"
fill="#000000" stroke="none">
<path d="M790 1230 c-35 -21 -13 -25 685 -111 231 -28 420 -52 420 -53 1 0 13
-20 28 -44 16 -25 32 -40 39 -36 7 4 8 3 4 -4 -9 -16 72 -134 86 -126 7 4 8 2
4 -5 -8 -12 51 -100 67 -101 11 0 9 18 -3 25 -6 4 -8 10 -5 15 3 4 -2 13 -10
20 -8 7 -15 21 -15 31 0 10 -8 23 -17 28 -10 6 -13 11 -8 11 6 0 6 3 -1 8 -5
4 -20 24 -33 45 -13 20 -27 34 -33 31 -7 -4 -8 -2 -4 4 4 6 -11 35 -32 64 -44
59 -60 75 -82 76 -62 6 -292 31 -320 36 -38 7 -101 15 -170 21 -25 2 -74 7
-110 11 -36 4 -77 8 -92 8 -15 0 -24 4 -22 8 3 4 -13 8 -35 8 -22 0 -73 4
-113 9 -40 6 -91 12 -113 14 -22 3 -49 8 -60 12 -16 5 -17 5 -5 -4 18 -13 5
-14 -19 -2 -10 6 -23 6 -31 1z"/>
<path d="M760 1206 c0 -15 33 -56 40 -51 5 3 11 -3 15 -12 3 -10 25 -34 49
-53 24 -19 55 -52 70 -73 15 -20 32 -35 37 -31 5 3 8 2 7 -3 -3 -10 52 -74 61
-69 3 1 14 -5 23 -15 17 -18 16 -19 -12 -34 -17 -9 -30 -20 -30 -25 0 -6 -6
-10 -12 -10 -14 0 -29 -8 -118 -57 -30 -17 -80 -43 -110 -59 -85 -43 -131 -74
-126 -83 3 -4 -7 -14 -22 -21 l-27 -13 25 -7 c14 -4 66 -15 115 -24 192 -34
375 -69 485 -91 123 -26 506 -100 554 -108 24 -4 40 6 106 67 43 39 111 100
153 136 64 56 118 114 89 96 -6 -3 -12 -1 -14 5 -2 6 -64 -43 -137 -108 -73
-65 -142 -124 -153 -132 -23 -17 -88 -8 -403 55 -391 78 -484 94 -516 87 -15
-3 -37 0 -49 7 -12 7 -47 12 -77 11 -32 0 -68 6 -86 16 -29 15 -30 16 -12 29
11 8 25 12 32 10 7 -3 10 1 6 10 -3 7 0 14 7 14 7 0 39 13 71 30 32 16 65 27
74 24 8 -4 15 -1 15 6 0 6 -6 8 -12 4 -24 -13 -3 5 34 30 25 16 38 21 42 13 3
-8 5 -6 6 3 1 14 51 42 126 70 35 12 53 11 309 -31 99 -15 206 -31 238 -35 32
-4 60 -10 63 -15 2 -4 11 -6 19 -2 22 8 18 -5 -6 -17 -15 -8 -24 -8 -34 0 -10
8 -19 8 -34 0 -12 -6 -21 -13 -21 -16 0 -2 9 0 19 6 32 16 36 12 10 -12 -24
-22 -47 -31 -42 -15 2 4 -7 7 -20 6 -12 0 -16 -3 -9 -6 14 -5 17 -23 3 -23 -4
0 -20 11 -35 25 -15 14 -21 25 -14 25 9 0 9 3 -2 10 -13 8 -13 10 -1 10 11 0
9 4 -5 15 -22 17 -38 20 -29 5 3 -5 1 -10 -4 -10 -6 0 -11 4 -11 9 0 5 -11 11
-25 13 -17 4 -25 1 -25 -8 0 -8 -5 -14 -10 -14 -6 0 -9 5 -8 11 2 6 -7 15 -19
20 -15 5 -22 5 -20 -3 1 -6 -4 -13 -11 -15 -7 -3 -11 0 -10 7 5 21 -39 31 -54
13 -10 -13 -10 -17 0 -20 6 -3 12 -9 12 -14 0 -4 -6 -6 -13 -3 -8 3 -20 -2
-27 -11 -14 -16 -35 -21 -25 -5 3 5 1 18 -4 27 -6 10 -11 14 -11 8 0 -5 -5 -3
-10 5 -8 12 -12 12 -18 2 -10 -14 -45 -5 -36 9 3 5 2 9 -3 8 -20 -4 -34 2 -28
12 4 6 13 8 19 6 7 -3 19 -1 27 4 10 6 7 9 -11 9 -30 -1 -103 -43 -92 -55 4
-4 -1 -5 -11 -2 -11 4 -20 1 -23 -8 -4 -8 -9 -13 -13 -11 -4 3 -20 -4 -36 -14
l-28 -18 29 2 c46 4 93 26 99 47 4 11 10 17 15 14 5 -3 10 0 12 7 3 8 12 4 25
-9 12 -12 23 -20 25 -18 2 2 8 -3 14 -9 9 -10 5 -13 -17 -13 -16 0 -25 5 -22
10 4 6 1 7 -7 2 -10 -6 -12 -4 -6 10 5 14 4 16 -7 7 -8 -7 -17 -9 -20 -5 -4 3
-7 1 -7 -5 0 -7 6 -12 14 -12 8 0 17 -4 20 -9 4 -5 -2 -7 -13 -4 -10 3 -31 -2
-47 -10 l-28 -14 27 0 c15 0 27 3 27 7 0 3 7 7 15 7 18 0 20 -13 3 -20 -7 -3
-2 -6 12 -8 44 -3 73 -8 180 -28 58 -11 112 -22 120 -23 8 -1 21 1 29 6 9 6
12 5 8 -1 -4 -6 5 -13 22 -15 36 -5 51 0 51 19 0 11 -6 14 -21 10 -12 -3 -32
-2 -45 3 -14 6 -26 6 -29 0 -11 -17 -33 1 -27 22 4 16 7 17 13 6 5 -9 25 -14
62 -13 31 0 53 -3 51 -7 -3 -5 0 -8 5 -8 6 0 11 -7 11 -15 0 -8 8 -15 18 -16
15 0 14 -2 -3 -9 -18 -8 -17 -9 6 -7 29 3 87 42 77 52 -4 4 -19 -5 -33 -19
-26 -26 -26 -26 -19 -4 6 20 5 21 -10 9 -16 -13 -37 -8 -23 5 6 6 18 9 72 16
24 4 45 20 38 31 -2 4 1 7 6 7 20 0 11 -29 -16 -55 -15 -14 -30 -25 -34 -25
-14 0 -4 -26 10 -27 9 -1 35 -5 57 -8 28 -5 44 -3 49 5 5 9 2 10 -14 5 -23 -7
-28 4 -9 23 14 14 32 16 23 3 -3 -6 3 -14 12 -20 10 -6 12 -11 6 -11 -7 0 -13
-4 -13 -9 0 -5 21 -12 46 -16 43 -6 49 -4 83 27 20 19 50 46 68 60 31 25 32
26 10 32 -31 7 -68 -3 -60 -18 4 -6 1 -6 -9 2 -12 10 -18 9 -28 -3 -7 -8 -17
-15 -23 -15 -5 0 -2 9 8 20 10 12 25 18 32 16 7 -3 13 -1 13 4 0 18 -35 10
-55 -12 -24 -28 -28 -49 -9 -41 8 3 14 0 14 -6 0 -6 -5 -11 -11 -11 -5 0 -7
-6 -3 -12 5 -8 0 -7 -11 2 -10 8 -26 14 -36 12 -21 -4 -31 11 -23 32 9 24 23
19 19 -6 -4 -18 1 -16 24 13 31 36 31 54 1 44 -10 -3 -21 -1 -25 5 -3 5 -11
10 -17 10 -6 0 -8 -3 -5 -7 8 -8 -12 -33 -26 -33 -8 0 -8 3 0 11 6 6 9 17 7
23 -7 19 31 17 195 -10 120 -19 156 -22 162 -12 16 25 -40 40 -259 68 -50 6
-57 11 -122 78 -37 40 -73 72 -79 72 -6 0 -7 8 -4 17 6 15 5 16 -10 3 -15 -14
-15 -16 4 -32 12 -10 19 -24 16 -32 -7 -18 38 -64 70 -72 21 -6 24 -10 22 -31
0 -4 8 -10 18 -14 16 -7 16 -8 1 -8 -9 -1 -20 4 -23 10 -4 6 -14 8 -22 5 -11
-4 -13 -2 -9 9 3 8 2 15 -2 15 -4 0 -137 20 -295 45 -312 48 -324 51 -391 125
-20 22 -41 40 -47 40 -8 0 -7 5 1 15 11 13 10 14 -2 10 -9 -4 -37 17 -74 53
-61 61 -134 119 -134 108z m642 -425 c-11 -6 -10 -10 3 -15 10 -3 24 -1 32 6
11 9 19 9 33 0 11 -6 27 -9 37 -5 12 4 10 -1 -7 -14 -13 -11 -31 -19 -40 -16
-9 3 -7 -1 4 -8 15 -9 20 -9 28 5 13 23 27 20 20 -6 -3 -14 -1 -19 6 -14 6 3
13 2 16 -3 3 -5 -16 -8 -43 -7 -27 0 -48 3 -46 6 1 3 -9 16 -22 30 -24 24 -25
24 -14 3 10 -20 9 -23 -6 -23 -16 0 -16 -2 -3 -11 12 -9 12 -10 -4 -5 -13 5
-17 2 -12 -9 3 -8 1 -15 -4 -15 -6 0 -10 5 -10 10 0 16 -44 30 -52 17 -4 -6
-10 -8 -13 -5 -13 13 6 28 28 23 16 -4 27 2 40 20 10 14 13 25 7 25 -5 0 -10
-4 -10 -9 0 -5 -10 -7 -22 -5 -13 2 -17 2 -10 -2 20 -9 14 -23 -8 -17 -11 3
-20 9 -20 14 0 11 36 30 43 23 3 -3 14 -1 24 5 21 12 44 15 25 2z m-99 -35 c4
-9 -2 -17 -14 -20 -10 -4 -29 -9 -40 -12 -14 -4 -19 -2 -15 5 7 11 -5 15 -32
12 -6 -1 -20 2 -30 8 -12 7 -7 8 23 5 22 -2 52 -6 67 -8 18 -2 25 1 21 11 -3
7 -1 13 5 13 5 0 12 -7 15 -14z m487 -28 c0 -9 3 -9 12 0 17 17 33 15 18 -3
-7 -9 -21 -13 -31 -10 -11 4 -21 -1 -28 -13 -6 -11 -23 -27 -38 -37 -28 -18
-28 -18 -10 2 20 23 22 39 5 47 -7 3 -3 3 9 0 12 -3 27 1 35 10 16 19 28 20
28 4z m95 -51 c0 -15 -6 -24 -18 -24 -9 -1 -16 1 -14 5 2 4 7 15 10 25 9 24
22 21 22 -6z"/>
<path d="M1080 1131 c0 -7 -4 -10 -9 -6 -5 3 -13 0 -17 -6 -4 -8 -3 -9 5 -5 6
4 14 0 17 -9 4 -9 21 -23 38 -32 17 -8 28 -12 24 -8 -4 5 -2 15 5 23 8 11 9
14 0 9 -7 -4 -17 0 -23 10 -11 17 -11 17 -6 0 4 -12 2 -17 -6 -15 -6 2 -12 12
-14 22 -3 21 -14 35 -14 17z"/>
<path d="M1249 1121 c11 -7 9 -10 -7 -15 -12 -4 -19 -13 -16 -20 3 -7 -2 -16
-10 -19 -9 -4 -16 -11 -16 -17 0 -6 5 -8 10 -5 6 3 10 1 10 -4 0 -6 10 -10 23
-8 12 1 21 -3 20 -8 -2 -12 76 -14 93 -3 6 4 11 1 11 -7 0 -8 -10 -15 -21 -16
-13 0 -16 -3 -8 -6 8 -3 24 0 37 7 20 10 22 16 12 31 -6 10 -15 15 -19 12 -5
-2 -15 1 -23 7 -18 15 -20 -1 -2 -19 10 -11 9 -13 -6 -7 -10 3 -23 6 -28 6 -5
0 -9 8 -10 18 0 10 -3 12 -6 5 -2 -7 -9 -13 -15 -13 -6 0 -8 6 -5 14 3 8 -1
17 -9 20 -8 3 -14 11 -14 18 0 9 3 9 12 0 17 -17 33 -15 18 3 -7 8 -9 15 -4
15 12 0 -19 20 -31 20 -5 0 -4 -4 4 -9z"/>
<path d="M1377 1093 c-4 -6 -1 -15 6 -20 14 -11 37 -11 37 0 0 28 -2 30 -12
12 -11 -19 -11 -19 -18 0 -4 11 -9 14 -13 8z"/>
<path d="M1422 1031 c6 -17 78 -91 88 -91 5 0 10 -5 10 -11 0 -5 -4 -7 -10 -4
-5 3 -10 2 -10 -3 0 -10 41 -30 79 -37 12 -2 29 -10 37 -16 8 -7 17 -9 21 -5
3 3 1 6 -5 6 -7 0 -12 6 -12 14 0 16 -27 29 -42 20 -6 -4 -6 2 1 14 7 14 8 23
1 27 -9 6 -14 -1 -11 -17 0 -5 -4 -8 -10 -8 -5 0 -8 -4 -5 -9 4 -5 -3 -7 -15
-4 -19 5 -19 7 -5 15 14 8 15 13 5 24 -6 8 -17 14 -24 14 -14 0 -15 17 -3 36
4 6 -2 18 -12 27 -19 16 -20 15 -17 -6 1 -14 -3 -22 -13 -22 -8 0 -14 6 -12
13 1 6 -4 11 -10 10 -7 -2 -12 3 -10 10 1 6 -3 12 -9 12 -6 0 -9 -4 -7 -9z"/>
<path d="M1740 998 c-8 -12 -26 -33 -40 -47 -29 -28 -10 -19 37 18 18 14 33
32 33 39 0 19 -14 14 -30 -10z"/>
<path d="M1785 904 l-30 -14 30 6 c17 4 46 10 65 14 l35 8 -35 0 c-19 1 -48
-5 -65 -14z"/>
<path d="M1553 753 c0 -16 1 -20 4 -10 5 20 40 19 36 -1 -4 -19 11 -14 24 7
10 16 9 19 -10 18 -12 0 -29 3 -37 7 -12 5 -16 0 -17 -21z"/>
</g>
</svg>
