<?xml version="1.0" encoding="UTF-8" standalone="no"?>
<svg
   version="1.0"
   width="225.000000pt"
   height="225.000000pt"
   viewBox="0 0 225.000000 225.000000"
   preserveAspectRatio="xMidYMid meet"
   id="svg20"
   sodipodi:docname="Free.svg"
   inkscape:version="1.1.1 (3bf5ae0d25, 2021-09-20)"
   xmlns:inkscape="http://www.inkscape.org/namespaces/inkscape"
   xmlns:sodipodi="http://sodipodi.sourceforge.net/DTD/sodipodi-0.dtd"
   xmlns="http://www.w3.org/2000/svg"
   xmlns:svg="http://www.w3.org/2000/svg">
  <defs
     id="defs24">
    <rect
       x="106.48034"
       y="167.38543"
       width="168.21407"
       height="41.017718"
       id="rect18693" />
    <rect
       x="35.888672"
       y="87.011719"
       width="93.017578"
       height="37.207032"
       id="rect5371" />
  </defs>
  <sodipodi:namedview
     id="namedview22"
     pagecolor="#ffffff"
     bordercolor="#666666"
     borderopacity="1.0"
     inkscape:pageshadow="2"
     inkscape:pageopacity="0.0"
     inkscape:pagecheckerboard="0"
     inkscape:document-units="pt"
     showgrid="false"
     inkscape:zoom="1.2067956"
     inkscape:cx="64.633978"
     inkscape:cy="142.11189"
     inkscape:window-width="1366"
     inkscape:window-height="697"
     inkscape:window-x="-8"
     inkscape:window-y="-8"
     inkscape:window-maximized="1"
     inkscape:current-layer="svg20" />
  <metadata
     id="metadata2">
Created by potrace 1.10, written by Peter Selinger 2001-2011
</metadata>
  <g
     transform="translate(0.000000,225.000000) scale(0.100000,-0.100000)"
     fill="#000000"
     stroke="none"
     id="g18"
     style="fill:#2b0000">
    <path
       d="m 855,2224 c -90,-19 -185,-65 -224,-109 -44,-50 -53,-98 -48,-242 l 5,-126 271,2 271,2 v -43 -43 H 708 c -412,0 -424,-1 -470,-22 -63,-29 -134,-97 -165,-156 -34,-68 -63,-189 -63,-261 1,-58 1,-60 15,-35 8,14 61.142578,27.8301 62.142578,60.8301 3,67 22.591802,94.6328 42.591802,118.6328 7,8 -39.73438,71.5371 -39.73438,77.5371 0,7 4,12 9,12 5,0 7,8 4,18 -2,10 15.53564,13.8164 25.53564,25.8164 10,12 12.46436,43.1836 19.46436,53.1836 11,16 11,16 2,-4 -7,-15 -7,-24 0,-28 6,-4 10,-3 9,2 -4,16 21,63 33,63 9,0 8,-3 -2,-10 -9,-6 -10,-10 -3,-10 6,0 19,10 28,23 8,12 54.35352,-18.5508 57.35352,-19.5508 12,-4 6.64648,49.5508 1.64648,57.5508 -3,5 -1,9 5,9 5,0 11,-5 13,-11 2,-6 26,-13 53,-14 28,-1 34,0 15,2 -19,2 -39,9 -45,14 -6,6 138,-0.8877 402,-0.8877 227,-1 419.1973,-14.9302 423,14.8877 5,3 23.7329,13.9014 23.7329,24.9014 0,11 -6.7329,23.0986 1.2671,26.0986 8,4 15,10 15,16 0,5 1.4932,48.8467 -4.5068,45.8467 -5,-3 -10,2 -10,12 0,41 -32,47 -283.00004,48 -157,1 -242,6 -249,13 C 617.49316,1846.8467 611,2016 627,2013 c 9,-2 10,4 3,21 -6,18 -5,28 6,36 7,7 14,18 14,24 0,7 15,22 33,35 l 32,22 -30,-27 c -16,-15 -23,-25 -14,-22 9,4 23,1 30,-5 11,-10 11,-9 1,4 -10,13 -8,19 11,35 33,29 94,54 113,47 12,-4 15,-3 10,5 -5,9 6,12 39,12 27,0 44,4 40,10 -3,5 13,7 44,3 54,-6 101,2 101,17 0,15 -124,11 -205,-6 z"
       id="path4"
       style="fill:#2b0000"
       sodipodi:nodetypes="ccccccccsccccccsscsccccscscscsscscccscscscscccscccccscccsccsc" />
    <path
       d="m 1184,2226 c 20,-16 41.7852,-117.8832 114.7852,-114.8832 46,2 226.2148,39.8832 226.2148,21.8832 0,-21 14,-26 32,-12 9,8 14,9 10,2 -4,-6 -1,-15 6,-20 7,-4 -40.918,-34.9863 -25.918,-54.9863 21,-28 89.918,-27.0137 79.918,-38.0137 -9,-10 -9,-11 0,-6 10,5 -79.2852,-20.6465 -77.2852,-242.6465 2,-157 92.2852,-325.3535 88.2852,-327.3535 -4,-3 -5,-11 -1,-19 3,-9 -2,-27 -12,-41 -9,-14 -14,-28 -11,-32 3,-3 6,0 6,6 0,7 6,12 13,12 7,-1 4,-8 -8,-18 -11,-9 -20,-24 -20,-32 0,-8 -9,-16 -20,-18 -32,-6 -47,-23 -35,-37 8,-9 6,-14 -5,-19 -11,-4 -14,-2 -9,6 4,6 -8,0 -27,-15 -19,-14 -44,-26 -54,-26 -11,0 -162,-1 -335,-2 -303,-2 -336,-4 -415,-34 -20,-8 -20,-8 0,8 23,19 13,22 -16,6 -11,-5 -17,-15 -13,-20 4,-7 -1,-7 -15,0 -17,9 -20,9 -15,-3 3,-9 -3,-17 -15,-21 -12,-3 -21,-11 -21,-17 0,-7 -5,-6 -14,1 -11,9 -16,9 -22,0 -4,-8 -3,-9 4,-5 7,4 12,3 12,-3 0,-5 -5,-13 -10,-16 -6,-4 -8,-11 -4,-16 3,-5 0,-8 -7,-7 -7,2 -24,-17 -38,-42 -13,-25 -31,-49 -38,-53 -7,-4 -13,-15 -13,-24 0,-14 2,-14 15,3 18,24 19,5 1,-31 C 486,907 389.71484,885.56445 388.71484,790.56445 387.71484,716.56445 477,624 474,621 471,618 433.57813,682.11523 369.57813,680.11523 265.57813,678.11523 238,611 259,624 c 24,13 23,13 -17,11 -23,-1 -39,1 -37,6 3,4 -3,10 -14,14 -11,3 -29,20 -40,38 -12,18 31.91797,58.78906 15.91797,79.78906 C 151.91797,794.78906 74,813 75,824 c 0,12 -3,26 -7,32 -13,17 57.10156,77.18359 46.10156,171.1836 C 106.10156,1095.1836 10,1073 10,1002 10,876 74,715 153,645 217,587 274,570 406,570 h 102 l 4,183 c 4,170 6,186 29,237 33,71 104,135 172,155 40,12 115,15 363,15 313,0 386,6 449,37 43,22 93,72 118,118 21,39 22,50 22,382 v 341 l -30,44 c -62,87 -203,146 -370,154 -92,5 -98,4 -81,-10 z"
       id="path6"
       style="fill:#2b0000"
       sodipodi:nodetypes="ccscccscccccccsccscccccsccccccccsccssccccsscccsccccccccccscsccccsccscccc" />
    <path
       d="M780 2097 c-14 -6 -31 -18 -38 -27 -10 -13 -11 -12 -6 5 3 11 -4 4 -15 -15 -24 -42 -27 -104 -6 -153 8 -19 11 -38 7 -42 -4 -5 -1 -5 6 -1 7 4 12 2 12 -6 0 -10 2 -10 8 0 6 9 16 10 40 1 22 -8 41 -8 61 -1 21 7 32 7 41 -1 10 -9 11 -9 6 0 -9 16 4 45 19 39 9 -3 11 2 7 16 -3 14 -1 19 6 14 12 -7 29 60 18 71 -3 3 0 13 7 21 10 13 9 14 -2 8 -10 -7 -12 -3 -7 15 3 13 3 18 0 12 -8 -18 -27 -16 -20 2 5 15 -5 19 -33 16 -7 -2 -10 2 -7 7 3 6 -8 15 -26 21 -37 13 -46 13 -78 -2z m112 -56 c14 -16 28 -27 31 -25 6 6 -9 -66 -18 -89 -18 -43 -103 -60 -141 -29 -55 44 -58 100 -9 149 32 32 40 35 73 30 23 -4 47 -17 64 -36z"
       id="path8"
       style="fill:#2b0000" />
    <path
       d="m 1757,1605 c 3,-43 0,-131 -7,-196 -7,-65 -13,-122 -14,-126 0,-5 -6,-15 -13,-23 -7,-8 -26,-34 -43,-58 -17,-23 -44,-51 -61,-61 -20,-12 -27,-21 -19,-26 6,-4 19,0 29,9 10,9 25,14 35,10 11,-4 15,-2 11,8 -4,9 10,34 30,58 20,24 40,50 44,59 12,23 85.7344,203.7451 82.7344,280.7451 -2,48 -51.7344,104.2549 -40.7344,111.2549 22,14 146.6616,-20.1138 166.6616,-36.1138 10,-7 44.3384,15.1138 65.3384,15.1138 23,0 36,-4 32,-10 -3,-5 3,-10 14,-10 12,0 21,-6 21,-13 0,-7 -1.9863,-37.7754 9.0137,-44.7754 11,-7 30.9863,0.7754 30.9863,-7.2246 0,-8 5,-15 10,-15 6,0 10,-7 10,-16 0,-9 8,-22 17,-29 11,-8 17,-25 16,-50 -1,-26 2,-34 8,-24 6,10 9,5 9,-18 0,-17 5,-35 10,-38 6,-3 10,-19 10,-36 0,-16 5,-29 10,-29 6,0 10,13 10,28 0,32 -37,152 -51,167 -5,5 -9,16 -9,25 0,8 -14,31 -30,50 -16,19 -30,38 -30,43 0,4 -7,7 -15,7 -7,0 -18,6 -22,14 -18,31 -86,49 -210,54 l -122,4 z"
       id="path10"
       style="fill:#2b0000"
       sodipodi:nodetypes="cscscccsccsccscscssssssccsscssscsssscccc" />
    <path
       d="m 1530,1100 c -9,-6 -151,-10 -367,-10 H 812 l -60,-32 C 671,1013 647,992 619,940 595,896 595,890 592,575 c -2,-276 0,-326 13,-362 9,-24 20,-43 25,-43 4,0 10,-8 12,-17 11,-41 186,-121 270,-126 27,-1 48,-5 48,-9 0,-12 368,-10 375,2 4,6 -60.5918,79.3125 -163.5918,79.3125 C 1004.4082,98.3125 892,42 853,66 c -12,8 -31,14 -42,14 -11,0 -35,8 -53,19 -18,10 11.32617,57.76172 -6.67383,67.76172 C 732.32617,177.76172 650,174 637,200 616,243 713.87695,214.05469 710.87695,504.05469 708.87695,711.05469 612,850 619,846 c 7,-4 10,10 9,38 0,28 5,51 15,60 8,9 17,19 19,23 7,18 120,86 155,94 21,4 183,8 361,8 231,-1 326,2 336,11 9,7 28,9 52,4 29,-5 36,-4 32,7 -6,17 -48,23 -68,9 z"
       id="path12"
       style="fill:#2b0000"
       sodipodi:nodetypes="cscccccsccscccsccccsccccccccc" />
    <path
       d="M 2156.2793,906.44922 C 2156.2793,870.44922 2188,818 2168,796 c -9,-10 -15,-23 -12,-27 15,-25 -103,-129 -146,-129 -10,0 -22,-4 -25,-10 -4,-6 -143.1058,32.60066 -413.6191,16.36719 L 1132,620 1116,595 c -20,-30 -21,-79 -2,-94 9,-8 77.8164,-71.32617 246.8164,-72.32617 L 1620,487 l 2,-41 c 1,-40 1,-40 5,-6 3,19 9,39 14,45 5,5 -21.7617,-41 -21.7617,-122 0,-77 26.7617,-134 20.7617,-138 -5,-3 -10,-17 -10,-31 0,-15 -6,-24 -16,-24 -8,0 -59.1426,17.97266 -56.1426,13.97266 C 1568.8574,165.97266 1555,100 1520,100 c -11,0 -20,-4 -20,-10 0,-5 -11,-10 -25,-10 -14,0 -25,-6 -25,-13 0,-9 -19,-12 -67,-10 -66,1 -67,1 -44,-16 18,-13 33,-16 64,-11 86,15 182,62 227,113 l 35,40 5,159 c 3,88 3,162 1,164 -2,2 -127,4 -278,4 h -273 v 40 39 l 433,3 c 388,3 435,5 466,20 19,10 39,18 44,18 16,0 97,91 119,134 47,91 73,206 48,206 -5,0 -73.7207,-50.55078 -73.7207,-63.55078 z"
       id="path14"
       style="fill:#2b0000"
       sodipodi:nodetypes="sccscsccccccccscsscssssccccccsscccccscss" />
    <path
       d="M1418 403 c-16 -8 -28 -18 -28 -24 0 -5 -9 -9 -20 -9 -11 0 -20 -6 -20 -13 0 -7 -9 -23 -20 -35 -11 -12 -20 -31 -19 -44 1 -35 25 -93 38 -91 6 2 11 -1 11 -5 0 -12 47 -32 76 -32 41 0 114 53 114 84 0 10 4 15 8 12 15 -9 12 52 -3 67 -9 10 -11 17 -4 19 6 2 -15 22 -47 44 -56 38 -61 40 -86 27z m57 -33 c7 0 25 -14 40 -32 22 -26 26 -39 22 -71 -13 -96 -119 -127 -179 -53 -40 49 -6 144 57 160 14 4 25 12 25 19 0 6 5 4 11 -5 5 -10 16 -18 24 -18z"
       id="path16"
       style="fill:#2b0000" />
  </g>
  <text
     xml:space="preserve"
     transform="matrix(1.8871078,0.11132134,-0.15476569,1.7431782,3.2638808,-96.802824)"
     id="text5369"
     style="font-size:24px;line-height:1.25;font-family:Elephant;-inkscape-font-specification:'Elephant, Normal';font-variant-ligatures:none;white-space:pre;shape-inside:url(#rect5371);fill:#552200"
     x="27.875957"
     y="0"
     inkscape:transform-center-x="1.9169802"
     inkscape:transform-center-y="0.44088081"><tspan
       x="54.125519"
       y="108.82834"
       id="tspan3296"><tspan
         style="text-align:center;text-anchor:middle"
         id="tspan3294">Free</tspan></tspan></text>
  <text
     xml:space="preserve"
     transform="matrix(1.1598248,0,0,1.626447,-14.202415,-158.96001)"
     id="text18691"
     style="font-size:24px;line-height:1.25;font-family:Elephant;-inkscape-font-specification:'Elephant, Normal';font-variant-ligatures:none;white-space:pre;shape-inside:url(#rect18693);fill:#800000"
     x="53.075912"
     y="0"><tspan
       x="136.94799"
       y="189.20139"
       id="tspan3300"><tspan
         style="text-align:center;text-anchor:middle"
         id="tspan3298">Shipping</tspan></tspan></text>
</svg>
