<?xml version="1.0" standalone="no"?>
<!DOCTYPE svg PUBLIC "-//W3C//DTD SVG 20010904//EN"
 "http://www.w3.org/TR/2001/REC-SVG-20010904/DTD/svg10.dtd">
<svg version="1.0" xmlns="http://www.w3.org/2000/svg"
 width="300.000000pt" height="158.000000pt" viewBox="0 0 300.000000 158.000000"
 preserveAspectRatio="xMidYMid meet">
<metadata>
Created by potrace 1.10, written by Peter Selinger 2001-2011
</metadata>
<g transform="translate(0.000000,158.000000) scale(0.100000,-0.100000)"
fill="#000000" stroke="none">
<path d="M189 1569 c14 -5 31 -7 40 -4 8 3 17 1 21 -5 4 -7 16 -6 36 5 28 15
27 15 -46 14 -59 0 -70 -2 -51 -10z"/>
<path d="M846 1547 c21 -43 48 -60 84 -52 33 7 45 20 54 58 5 20 3 27 -9 27
-9 0 -15 -9 -15 -25 0 -29 -23 -44 -56 -37 -26 5 -49 36 -39 52 3 6 -3 10 -14
10 -20 0 -20 -1 -5 -33z"/>
<path d="M1058 1557 c-8 -39 9 -57 21 -24 13 35 29 34 64 -3 16 -16 33 -30 39
-30 6 0 8 -13 4 -35 -7 -35 -7 -35 19 -23 34 15 79 -4 71 -30 -5 -13 0 -18 16
-19 13 -1 24 -7 26 -13 5 -15 22 -12 22 3 0 15 -149 155 -183 174 -12 6 -39
14 -58 18 -33 6 -37 5 -41 -18z"/>
<path d="M1334 1518 c5 -76 3 -68 22 -68 14 0 15 7 10 38 -3 20 -6 49 -6 65 0
17 -5 27 -15 27 -13 0 -15 -11 -11 -62z"/>
<path d="M1531 1557 c-24 -27 -31 -78 -7 -58 11 10 21 9 45 -3 19 -10 32 -12
36 -6 3 6 14 10 24 10 9 0 26 7 37 16 18 15 17 15 -16 11 -19 -3 -43 -8 -53
-12 -13 -6 -18 -1 -23 24 -9 42 -17 45 -43 18z"/>
<path d="M1735 1553 c5 -12 19 -24 30 -25 17 -3 21 -13 26 -78 4 -41 3 -79 -2
-85 -12 -12 -11 -55 0 -55 6 0 10 -17 10 -37 1 -21 7 -67 16 -103 l14 -65 -4
75 c-4 77 -22 278 -30 340 -2 19 -4 41 -5 47 0 8 -12 12 -33 10 -30 -2 -32 -4
-22 -24z"/>
<path d="M1853 1559 c3 -13 12 -49 20 -79 13 -49 15 -51 15 -20 1 56 -12 113
-27 118 -10 3 -12 -2 -8 -19z"/>
<path d="M1960 1563 c-1 -56 35 -463 40 -463 4 0 15 9 25 20 17 18 17 32 6
217 -6 109 -11 208 -11 221 0 18 -6 22 -30 22 -22 0 -30 -5 -30 -17z"/>
<path d="M2400 1548 c11 -18 20 -40 20 -48 -1 -12 -2 -12 -10 2 -13 21 -46 13
-53 -14 -5 -18 -1 -20 56 -16 l61 3 23 -45 c12 -25 22 -57 22 -71 1 -37 10
-40 34 -16 18 18 23 36 26 99 3 73 2 78 -23 101 -28 26 -66 41 -66 27 0 -5 5
-12 11 -15 5 -4 14 -18 20 -32 5 -13 13 -22 18 -19 5 4 7 -3 4 -14 -7 -27 -21
-25 -35 5 -9 19 -14 22 -25 14 -9 -9 -13 -8 -13 0 0 6 -6 11 -14 11 -8 0 -24
14 -36 30 -29 40 -45 38 -20 -2z"/>
<path d="M2700 1497 c0 -86 0 -87 25 -87 25 0 25 1 24 74 -1 41 2 79 5 85 4 6
0 11 -10 11 -15 0 -16 -8 -10 -67 3 -40 2 -74 -4 -83 -5 -8 -10 -13 -11 -10 0
3 -2 38 -5 79 -6 103 -14 102 -14 -2z"/>
<path d="M547 1564 c-3 -4 -3 -19 0 -35 5 -27 4 -29 -28 -29 -37 0 -30 -15 12
-25 25 -6 26 -5 28 44 1 51 0 57 -12 45z"/>
<path d="M592 1542 c-8 -19 -10 -20 -6 -4 3 12 1 22 -5 22 -6 0 -11 -20 -11
-45 0 -58 13 -57 28 1 14 53 11 67 -6 26z"/>
<path d="M617 1532 c-9 -21 -17 -41 -17 -44 0 -3 20 -11 44 -18 44 -12 80 -4
97 23 13 19 -3 49 -22 44 -12 -3 -19 0 -19 9 0 10 -7 13 -25 8 -15 -4 -25 -2
-25 5 0 23 -17 9 -33 -27z"/>
<path d="M2258 1553 c-42 -48 -56 -130 -39 -225 6 -35 13 -89 17 -120 5 -54
34 -111 49 -97 3 4 -2 14 -11 23 -27 27 -11 27 20 1 35 -30 51 -31 95 -4 39
24 50 19 28 -14 -10 -16 -30 -27 -59 -32 -29 -5 -36 -9 -23 -13 11 -2 23 -9
27 -15 9 -14 86 65 94 97 6 27 -21 75 -43 76 -7 0 -13 7 -13 16 0 10 6 14 14
11 8 -3 20 1 26 9 7 8 19 14 26 14 8 0 14 9 14 20 0 16 -5 19 -24 14 -13 -3
-27 -1 -30 5 -4 7 1 11 14 11 12 0 18 4 15 10 -7 12 -95 9 -95 -2 0 -5 10 -8
23 -9 l22 0 -22 -9 c-26 -10 -31 -40 -8 -40 8 0 15 -4 15 -10 0 -5 -4 -10 -8
-10 -12 0 -2 -59 11 -67 6 -4 7 -1 2 6 -5 9 -1 9 14 -1 22 -13 22 -13 -9 -40
-34 -31 -90 -39 -90 -13 0 8 -7 15 -15 15 -8 0 -15 5 -15 10 0 13 6 13 33 -4
14 -8 31 -10 47 -6 14 5 20 8 13 9 -7 1 -10 8 -7 16 7 17 -21 21 -31 5 -5 -8
-11 -7 -21 1 -8 6 -22 9 -33 6 -15 -3 -20 2 -24 22 -6 33 -1 41 26 41 16 0 18
-3 9 -12 -16 -16 -15 -28 3 -28 16 0 16 1 20 40 1 14 5 32 9 41 5 12 0 15 -31
12 -28 -2 -33 -1 -18 5 19 9 19 9 -2 16 -13 4 -27 4 -33 1 -5 -3 -10 1 -10 10
0 9 4 14 9 11 12 -8 22 37 11 48 -20 20 -10 47 20 57 31 11 41 29 15 29 -8 0
-15 5 -15 10 0 6 9 10 19 10 28 0 37 20 9 21 -18 1 -19 2 -5 6 10 3 16 10 14
16 -6 19 -32 19 -49 0z"/>
<path d="M1490 1470 c0 -6 11 -8 26 -4 20 5 26 2 31 -16 3 -12 18 -27 33 -34
31 -13 110 -81 110 -95 0 -5 -9 -13 -20 -16 -22 -7 -48 -45 -30 -45 5 0 18 9
27 20 10 11 24 20 33 19 10 0 11 -2 3 -6 -16 -6 -17 -23 -2 -23 6 0 17 -7 26
-16 14 -14 13 -18 -8 -41 l-24 -25 24 7 c22 7 24 5 18 -21 -11 -58 -68 -164
-90 -170 -28 -7 -76 -102 -59 -118 3 -4 11 8 16 26 6 18 15 31 20 30 5 -2 12
0 15 5 3 4 15 13 26 20 11 6 19 16 17 22 -1 6 5 11 13 11 8 0 15 9 15 20 0 11
5 20 11 20 6 0 9 6 6 13 -3 8 -1 20 5 28 8 11 9 11 4 -3 -3 -10 -1 -20 5 -24
6 -3 8 -20 5 -37 -5 -24 -4 -27 3 -12 5 11 6 41 3 68 -3 28 -1 47 5 47 6 0 8
-11 6 -24 -7 -33 8 -58 27 -46 8 5 11 10 5 10 -6 0 -9 23 -7 55 4 60 -16 135
-55 202 -23 41 -101 113 -122 113 -5 0 -22 11 -37 25 -27 25 -84 35 -84 15z"/>
<path d="M260 1459 c0 -6 9 -23 20 -39 39 -54 61 -122 58 -175 -3 -60 24 -103
83 -132 48 -24 65 -69 38 -104 -21 -27 -24 -39 -9 -39 6 0 10 7 10 15 0 8 5
15 10 15 6 0 10 7 10 15 0 17 12 19 38 6 64 -33 129 -55 150 -52 24 3 25 2 18
-50 -4 -29 -14 -65 -22 -81 -8 -16 -14 -37 -13 -46 4 -23 -11 -84 -24 -100
-14 -17 -3 -26 26 -18 21 5 23 11 23 70 0 60 16 102 33 92 4 -3 5 11 3 30 -3
21 0 34 7 34 8 0 9 5 1 19 -5 11 -6 22 -1 25 4 3 13 -6 19 -19 22 -49 36 -22
18 33 -6 17 -14 22 -26 19 -10 -3 -27 1 -38 9 -11 7 -22 11 -25 7 -3 -3 -13 2
-22 11 -9 9 -21 14 -26 11 -12 -8 -89 16 -89 27 0 5 -4 7 -9 3 -18 -10 -40 57
-46 138 -4 45 -8 83 -10 85 -2 2 -13 -2 -25 -8 -20 -10 -20 -13 -7 -34 22 -33
38 -95 24 -91 -7 2 -24 6 -39 9 -30 7 -58 50 -58 90 0 26 16 43 28 31 4 -4 1
-10 -5 -12 -7 -3 -13 -10 -13 -16 0 -7 6 -5 15 4 17 17 10 53 -8 42 -6 -4 -8
3 -4 19 5 18 2 28 -7 31 -8 3 -17 20 -21 38 -4 18 -22 47 -40 66 -34 35 -45
40 -45 22z"/>
<path d="M750 1451 c0 -5 7 -14 15 -21 8 -7 15 -27 15 -44 0 -17 7 -42 16 -54
17 -24 12 -42 -12 -42 -8 0 -12 5 -9 10 3 6 -1 10 -9 10 -8 0 -20 -10 -27 -21
-11 -21 -9 -22 19 -16 25 5 31 2 36 -16 10 -40 6 -91 -13 -152 -10 -33 -16
-61 -12 -62 3 -1 31 4 61 12 l55 14 -52 -4 c-54 -4 -60 -1 -44 24 9 14 16 15
134 25 120 11 167 17 172 26 7 11 -22 33 -35 25 -6 -4 -25 -9 -43 -11 -115
-16 -174 -23 -184 -24 -9 0 -12 18 -10 61 2 33 -1 63 -5 65 -14 9 3 26 21 20
14 -5 13 -4 -1 8 -19 14 -24 36 -8 36 5 0 0 18 -12 41 -16 32 -18 43 -8 49 9
6 7 13 -9 29 -21 21 -51 28 -51 12z"/>
<path d="M1406 1429 c-15 -17 -33 -44 -41 -59 -20 -39 -33 -131 -26 -193 3
-28 5 -73 6 -98 0 -33 4 -45 13 -42 6 3 12 16 12 29 0 29 40 55 41 27 0 -11 3
-13 6 -5 6 15 23 16 23 1 0 -6 11 -24 25 -41 14 -16 25 -39 26 -51 0 -12 3
-16 6 -9 8 19 21 14 25 -10 2 -12 8 -23 14 -25 20 -7 -9 64 -39 95 -15 15 -32
43 -38 61 -10 28 -13 31 -21 17 -8 -15 -14 -12 -39 20 -16 20 -29 40 -29 45 0
4 -3 14 -6 23 -4 11 -1 16 10 16 9 0 16 -5 16 -11 0 -8 4 -8 13 -2 6 5 25 9
42 8 24 -1 31 -8 39 -33 8 -29 13 -32 47 -32 21 0 41 -4 44 -10 8 -13 52 -13
60 0 3 6 -1 13 -9 16 -10 4 -16 18 -16 38 l0 31 -20 -32 c-15 -25 -27 -33 -49
-33 -30 0 -57 22 -47 39 4 5 0 16 -8 24 -11 11 -12 17 -3 26 26 26 135 -7 159
-50 10 -16 24 -29 33 -29 21 0 19 17 -4 23 -10 2 -25 17 -32 33 -15 31 -42 41
-116 43 -33 1 -45 -4 -53 -19 -11 -21 -70 -29 -70 -9 0 31 97 139 125 139 18
0 28 32 13 42 -7 4 -18 6 -23 4 -6 -2 -19 2 -30 10 -29 22 -51 17 -79 -17z
m84 -4 c0 -1 -16 -20 -35 -41 -20 -21 -43 -55 -53 -76 -29 -63 -57 -40 -32 27
13 34 90 104 107 98 7 -3 13 -6 13 -8z"/>
<path d="M1073 1400 c17 -102 28 -124 40 -80 5 21 27 28 27 9 0 -19 73 -79 96
-79 40 0 33 14 -32 60 -35 25 -63 50 -64 56 0 6 12 16 26 23 39 17 22 25 -21
10 -35 -13 -38 -12 -57 11 l-21 25 6 -35z"/>
<path d="M2880 1380 c-12 -7 -12 -12 3 -28 9 -10 17 -21 17 -25 0 -3 -33 -4
-72 -2 -51 3 -64 2 -43 -4 22 -7 25 -9 9 -10 -35 -2 -84 28 -85 52 -1 20 -2
20 -9 -3 -4 -14 -8 -36 -9 -49 l-1 -24 106 7 c84 6 109 5 115 -6 17 -26 8 -58
-26 -92 -19 -20 -35 -39 -35 -44 0 -5 23 -33 50 -63 43 -46 50 -58 45 -83 -3
-16 0 -35 6 -43 7 -7 9 -28 6 -49 -5 -27 -1 -40 15 -56 24 -24 36 -11 19 21
-14 25 -14 34 -1 26 6 -4 10 14 9 47 -2 49 -2 50 -9 18 -8 -38 -11 -27 -18 68
-1 12 -10 30 -19 40 -10 9 -25 29 -34 43 -16 23 -16 27 2 50 20 29 29 126 12
137 -6 4 -9 15 -7 25 1 9 -2 17 -7 17 -5 0 -9 6 -9 14 0 20 -13 27 -30 16z"/>
<path d="M2580 1351 c0 -10 -7 -22 -16 -25 -9 -3 -14 -12 -11 -19 2 -6 -2 -27
-9 -44 -11 -28 -11 -33 0 -33 21 0 44 42 51 93 5 32 4 47 -4 47 -6 0 -11 -9
-11 -19z"/>
<path d="M532 1308 c-2 -51 3 -56 34 -33 10 8 35 14 54 14 l35 -1 -33 -8 c-42
-10 -59 -25 -38 -33 9 -4 16 -2 16 3 0 6 16 10 35 10 19 0 35 -4 35 -10 0 -5
7 -7 15 -3 9 3 15 2 13 -3 -2 -5 1 -9 7 -9 13 0 8 23 -11 53 -16 25 -71 30
-120 12 -32 -13 -39 -8 -26 17 7 12 6 21 -2 29 -9 8 -12 -1 -14 -38z"/>
<path d="M456 1334 c-3 -9 -6 -25 -6 -37 1 -17 2 -19 9 -7 16 27 22 60 13 60
-6 0 -13 -7 -16 -16z"/>
<path d="M1847 1343 c-12 -11 -8 -40 7 -52 10 -8 17 -45 22 -112 4 -66 10 -99
18 -96 12 4 10 135 -3 171 -4 12 -7 38 -6 59 1 29 -2 37 -15 37 -9 0 -20 -3
-23 -7z"/>
<path d="M193 1317 c-30 -10 -45 -27 -25 -27 15 0 62 25 62 33 0 4 -1 6 -2 6
-2 -1 -18 -7 -35 -12z"/>
<path d="M71 1238 c-1 -20 4 -40 9 -43 12 -7 12 19 0 55 -7 22 -8 21 -9 -12z"/>
<path d="M265 1261 c-3 -5 -19 -12 -35 -16 -26 -6 -43 -34 -22 -36 4 0 17 -2
30 -3 23 -3 52 26 52 51 0 15 -16 17 -25 4z"/>
<path d="M1503 1252 c-7 -4 -9 -12 -5 -17 8 -12 82 -14 82 -2 0 4 -11 7 -25 7
-14 0 -25 5 -25 10 0 12 -10 13 -27 2z"/>
<path d="M2757 1253 c-15 -14 -7 -71 11 -77 9 -3 22 -8 28 -11 7 -4 11 12 13
42 1 49 -13 51 -22 3 -3 -18 -5 -15 -6 13 -1 35 -9 45 -24 30z"/>
<path d="M1093 1215 c-8 -22 2 -28 39 -27 49 2 169 20 176 26 14 14 -11 17
-78 7 -45 -6 -81 -6 -97 0 -32 12 -33 12 -40 -6z"/>
<path d="M680 1200 c-8 -5 -15 -17 -15 -27 0 -11 -9 -19 -22 -21 -33 -5 -37
-31 -7 -42 35 -14 37 -13 31 10 -7 26 5 33 36 21 19 -7 28 -6 37 4 12 15 7 19
-34 29 -23 6 -26 10 -16 16 8 5 12 11 9 14 -2 3 -11 1 -19 -4z"/>
<path d="M2556 1186 c15 -12 19 -28 21 -83 2 -96 13 -237 18 -242 3 -2 9 7 14
20 5 13 10 20 11 14 0 -5 5 -3 10 5 13 21 12 64 -2 78 -6 6 -13 48 -14 94 -3
75 -6 85 -29 106 -14 12 -31 22 -37 22 -7 0 -3 -6 8 -14z"/>
<path d="M2663 1141 c3 -22 2 -42 -1 -46 -10 -9 -12 -105 -3 -105 13 0 21 26
21 68 0 28 3 33 10 22 7 -11 10 -7 10 18 0 20 4 31 10 27 6 -3 10 3 10 15 0
17 -4 20 -20 15 -14 -5 -20 -2 -20 9 0 9 -5 16 -11 16 -8 0 -10 -14 -6 -39z"/>
<path d="M2096 1162 c-3 -5 7 -15 22 -23 15 -7 37 -22 49 -33 40 -34 40 -6 1
30 -37 33 -62 42 -72 26z"/>
<path d="M2199 1124 c22 -25 30 -42 26 -55 -7 -20 -6 -20 15 -2 17 15 18 19 5
21 -8 2 -15 9 -15 16 0 13 -41 56 -54 56 -5 0 6 -16 23 -36z"/>
<path d="M80 1136 c0 -8 -3 -22 -7 -32 -4 -11 -3 -15 4 -11 6 4 13 -5 15 -23
3 -17 1 -30 -4 -30 -4 0 -8 -4 -8 -9 0 -5 9 -7 19 -4 17 4 18 9 10 32 -6 14
-11 41 -11 59 0 17 -4 32 -9 32 -5 0 -9 -6 -9 -14z"/>
<path d="M568 1126 c-21 -15 -24 -38 -5 -31 6 3 19 -10 28 -28 19 -38 51 -51
42 -17 -4 15 -8 18 -13 10 -10 -16 -22 3 -29 46 -5 29 -8 31 -23 20z"/>
<path d="M1558 1134 c-24 -24 17 -92 48 -79 18 7 18 7 -1 15 -11 5 -15 9 -10
9 6 1 3 6 -5 11 -12 7 -10 11 10 20 l25 10 -27 -3 c-18 -3 -28 1 -30 10 -2 8
-6 11 -10 7z"/>
<path d="M2736 1101 c-5 -7 -3 -18 3 -24 16 -16 14 -25 -5 -23 -9 0 -18 -7
-20 -18 -3 -19 21 -107 37 -138 7 -13 5 -18 -5 -18 -16 0 -26 21 -26 53 0 12
-5 29 -11 37 -8 11 -9 1 -6 -37 2 -29 1 -54 -4 -55 -11 -4 -16 -88 -4 -85 5 1
10 7 11 13 1 6 9 24 18 40 l15 29 -6 -35 c-6 -36 12 -33 19 3 6 31 21 24 58
-27 19 -28 59 -76 88 -107 53 -57 53 -57 31 -72 -21 -15 -42 -13 -66 6 -9 6
-13 6 -13 -2 0 -6 -5 -11 -11 -11 -5 0 -8 4 -5 8 3 5 -7 18 -23 29 -26 20 -30
20 -82 6 -30 -8 -75 -17 -100 -19 -40 -4 -47 -2 -45 13 0 12 -7 19 -21 21 -27
4 -29 -6 -5 -24 28 -22 -87 -19 -118 3 -26 18 -59 54 -60 64 0 4 -8 24 -17 45
-9 22 -17 41 -18 44 -4 18 -108 221 -111 217 -7 -7 62 -193 97 -259 5 -10 9
-26 9 -36 0 -9 9 -25 20 -35 11 -9 20 -22 20 -28 0 -8 -4 -8 -13 0 -10 8 -19
7 -32 -3 -16 -12 -23 -11 -45 2 -43 28 -45 35 -45 115 1 43 -3 81 -8 84 -6 4
-8 -4 -4 -18 3 -13 1 -33 -3 -44 -5 -11 -9 -14 -9 -7 -1 7 -5 11 -10 8 -5 -4
-5 -22 0 -43 4 -21 6 -54 3 -73 l-6 -35 155 -19 c85 -10 168 -15 183 -12 16 4
62 7 102 7 41 0 83 4 93 10 20 10 79 -12 79 -31 0 -4 8 -10 18 -13 12 -3 8 -6
-13 -12 -16 -4 -36 -13 -44 -18 -19 -16 -123 -15 -140 1 -7 7 -20 11 -28 8 -8
-3 -26 -6 -41 -6 -38 0 -17 -14 51 -35 50 -16 60 -16 68 -4 6 10 9 7 9 -13 0
-15 5 -30 10 -33 6 -4 10 9 10 31 0 29 3 34 13 26 15 -13 121 21 146 46 13 13
16 12 22 -4 8 -22 2 -37 -12 -29 -5 3 -6 0 -3 -8 4 -12 10 -12 28 -4 21 10 22
13 7 24 -14 10 -12 13 17 24 19 6 30 14 24 18 -13 8 3 50 23 57 17 7 21 34 5
34 -5 0 -10 -4 -10 -10 0 -5 -11 1 -24 13 -13 12 -30 27 -38 33 -30 26 -47 55
-41 70 5 13 3 15 -8 10 -8 -4 -5 0 5 8 11 9 25 16 31 16 5 0 16 9 22 20 11 17
10 18 -5 13 -9 -4 -34 -17 -54 -30 -46 -28 -44 -28 -51 -2 -3 12 -10 18 -17
14 -7 -4 -7 1 2 14 7 12 18 21 25 21 7 0 12 3 12 8 -3 18 2 26 9 15 5 -9 12
-6 21 10 13 20 13 21 -2 8 -17 -14 -23 -3 -9 15 4 5 -12 -11 -35 -36 -35 -37
-44 -42 -53 -30 -14 21 -12 61 5 110 8 23 15 45 15 48 0 13 -33 -41 -40 -66
-7 -24 -8 -24 -9 -5 -1 12 4 33 10 46 12 27 -2 100 -15 78z"/>
<path d="M2297 1063 c7 -46 78 -149 131 -191 35 -28 39 -29 69 -17 46 19 53
42 51 152 -1 54 -3 79 -5 57 -3 -25 -12 -49 -24 -59 -21 -20 -25 -51 -7 -57 9
-3 8 -12 -5 -31 -20 -31 -33 -33 -61 -10 -12 10 -15 11 -8 3 22 -26 12 -31
-18 -8 -29 21 -42 46 -17 32 6 -3 -7 12 -30 34 -46 42 -53 55 -26 45 11 -4 14
-3 9 5 -4 7 -14 12 -22 12 -8 0 -13 3 -12 8 2 9 -20 62 -26 62 -3 0 -2 -17 1
-37z"/>
<path d="M1847 1073 c4 -11 3 -14 -5 -9 -15 9 -15 4 0 -31 l11 -28 7 30 c7 33
3 55 -11 55 -4 0 -5 -7 -2 -17z"/>
<path d="M2036 1075 c4 -9 0 -15 -9 -15 -25 0 -30 -43 -6 -62 12 -10 26 -18
33 -18 6 0 3 7 -7 14 -11 8 -14 17 -8 20 5 4 12 2 16 -4 3 -5 13 -10 22 -10
13 0 13 3 3 15 -7 8 -21 15 -31 15 -19 0 -25 11 -12 23 3 4 12 2 20 -4 10 -9
13 -8 13 4 0 9 -9 21 -20 27 -16 9 -18 8 -14 -5z"/>
<path d="M2435 1060 c-22 -16 -45 -29 -51 -30 -7 0 -14 -9 -17 -20 -6 -25 1
-26 19 -2 13 16 13 16 14 -2 0 -14 8 -7 31 23 22 32 36 42 50 38 12 -3 19 0
19 9 0 21 -20 16 -65 -16z"/>
<path d="M1275 1069 c-9 -13 -6 -16 29 -25 21 -5 27 -4 22 4 -12 20 -44 33
-51 21z"/>
<path d="M900 1031 c0 -5 -9 -11 -20 -14 -13 -3 -20 -13 -20 -29 0 -15 3 -19
8 -10 6 9 12 6 20 -12 7 -16 8 -28 2 -31 -6 -4 -10 -11 -10 -17 0 -6 3 -8 7
-5 11 12 31 -13 26 -34 -5 -18 -6 -19 -20 -2 -13 16 -13 16 -3 -5 8 -16 8 -27
1 -35 -11 -14 -14 -123 -5 -221 4 -46 9 -64 16 -55 5 9 6 -3 2 -33 -8 -62 2
-119 20 -112 8 3 16 14 19 24 3 11 22 27 43 37 42 19 85 53 52 41 -9 -4 -21
-1 -27 6 -15 18 35 42 54 26 9 -8 14 -7 18 4 3 8 -1 17 -10 20 -9 4 -13 14
-10 26 4 14 0 20 -12 20 -25 0 -32 -10 -20 -31 8 -16 5 -21 -16 -29 -36 -14
-40 -13 -25 5 7 9 10 18 6 22 -3 3 -6 1 -6 -4 0 -12 -18 -12 -38 1 -15 9 -12
-15 3 -26 6 -5 3 -8 -6 -8 -22 0 -28 8 -22 30 4 15 11 18 29 14 27 -7 28 -5
12 31 -12 26 -34 36 -25 10 4 -8 1 -17 -5 -21 -7 -5 -9 2 -4 22 4 16 7 41 6
55 0 15 7 29 15 33 8 3 15 13 15 21 0 15 -2 15 -22 1 -44 -31 -52 -14 -12 29
20 21 25 35 20 57 -3 16 -1 28 5 28 6 0 8 4 5 9 -8 13 41 54 55 46 7 -5 10 -3
7 6 -3 8 -11 13 -17 11 -6 -1 -11 3 -11 10 0 6 -7 18 -15 27 -8 9 -26 28 -40
44 -26 27 -45 35 -45 18z m40 -41 c0 -11 5 -20 10 -20 19 0 31 -49 19 -72 -11
-21 -12 -21 -25 -2 -7 10 -19 25 -26 33 -10 12 -9 16 1 19 10 3 6 9 -10 18
-13 7 -18 13 -10 14 11 0 11 3 1 15 -11 13 -8 15 14 15 19 0 26 -5 26 -20z m4
-524 c-13 -33 -34 -17 -34 25 l0 42 20 -26 c11 -14 17 -32 14 -41z"/>
<path d="M979 1018 c5 -15 18 -24 36 -26 22 -3 27 0 21 13 -3 9 -6 20 -6 23 0
4 -5 0 -10 -8 -9 -13 -12 -13 -24 3 -18 24 -27 21 -17 -5z"/>
<path d="M1229 1033 c-19 -5 -38 -85 -44 -187 -3 -38 -9 -74 -15 -81 -6 -7
-10 -17 -9 -21 1 -5 -1 -17 -6 -27 -4 -9 -3 -30 3 -45 6 -15 14 -42 17 -59 6
-33 35 -47 35 -18 0 18 -21 66 -37 82 -8 10 -8 19 0 37 l12 25 13 -22 c12 -20
12 -20 7 11 -5 24 -3 34 9 38 14 5 14 9 4 23 -9 11 -6 10 9 -3 19 -16 20 -20
8 -33 -8 -8 -14 -22 -14 -31 1 -15 2 -15 6 1 7 26 39 20 62 -12 11 -15 34 -34
51 -41 22 -9 28 -16 20 -25 -5 -6 -9 -41 -9 -78 1 -74 4 -76 103 -82 47 -3 68
-16 79 -48 2 -7 31 -10 75 -9 80 3 113 3 222 0 41 -1 66 -4 55 -6 -11 -3 -24
-10 -30 -17 -8 -11 -23 -11 -85 0 -41 7 -77 11 -79 9 -2 -1 7 -5 20 -8 13 -3
47 -10 75 -16 47 -10 56 -9 94 10 27 14 53 20 70 17 14 -3 42 -2 61 3 19 5 68
18 109 30 90 24 320 39 320 22 0 -11 -14 -16 -33 -13 -5 1 -7 -4 -5 -11 3 -7
14 -12 25 -10 11 2 23 -4 26 -13 4 -8 11 -15 16 -15 6 0 8 6 5 13 -6 17 57 67
85 67 25 0 26 -8 6 -34 -17 -23 -20 -50 -5 -41 6 4 8 10 5 15 -3 5 8 17 25 26
16 10 30 21 30 25 0 4 -16 21 -35 38 -33 29 -69 33 -59 7 6 -14 -43 -66 -61
-66 -7 0 -16 8 -20 18 -5 12 2 23 21 37 15 11 39 30 53 42 25 21 25 22 3 16
-12 -3 -25 -9 -27 -14 -3 -4 -12 -6 -19 -3 -8 3 -17 0 -21 -5 -3 -6 -11 -9
-16 -6 -5 3 -6 -1 -3 -9 4 -10 -1 -18 -12 -23 -10 -4 -19 -2 -21 4 -3 7 -14 8
-31 3 -40 -13 -166 -30 -215 -30 -24 0 -48 -5 -54 -11 -15 -15 -47 -3 -40 15
3 8 -5 26 -17 39 -19 20 -25 42 -31 109 -10 110 -12 178 -3 178 4 0 14 8 23
17 16 15 22 15 83 0 37 -8 68 -14 70 -12 12 12 -58 38 -112 42 -85 7 -97 -1
-101 -68 -4 -68 30 -275 51 -306 8 -13 12 -27 10 -32 -8 -13 -45 -20 -52 -10
-3 5 -23 9 -45 9 -32 0 -39 3 -39 20 0 11 -16 37 -36 58 l-36 37 29 -40 c42
-58 38 -77 -17 -82 -25 -2 -51 -6 -57 -8 -7 -2 -13 -1 -13 3 0 5 6 14 13 22 6
8 3 7 -9 -3 -26 -22 -29 -22 -55 6 l-21 22 7 -22 c9 -30 -12 -30 -26 0 l-10
22 5 -22 c3 -20 0 -23 -25 -23 -21 0 -32 6 -38 22 -8 22 -3 63 7 54 2 -3 17 1
33 9 36 19 39 19 39 -6 0 -11 4 -18 10 -14 5 3 7 12 4 20 -4 10 3 18 21 25 38
14 41 13 72 -20 l29 -31 -4 39 c-3 35 -1 40 22 44 14 3 23 1 20 -4 -7 -11 54
-74 63 -65 3 4 12 2 20 -5 11 -8 12 -7 7 6 -4 10 -12 15 -19 12 -7 -2 -23 9
-35 26 -13 17 -16 28 -9 24 8 -4 5 0 -5 8 -11 9 -29 16 -40 16 -15 0 -17 3 -9
11 9 9 23 9 55 1 38 -10 41 -9 24 4 -11 8 -35 14 -54 14 -27 0 -33 3 -28 16 3
9 6 19 6 24 0 17 38 20 85 6 46 -14 47 -14 31 2 -12 12 -35 18 -79 19 -80 2
-77 1 -77 14 0 5 5 7 10 4 6 -3 10 -1 10 4 0 6 -4 11 -9 11 -5 0 -12 8 -15 18
-3 9 -3 -3 0 -28 3 -25 7 -75 9 -112 3 -62 2 -67 -14 -56 -13 8 -17 22 -16 57
l3 46 -8 -40 -7 -40 -1 45 c-2 32 -7 49 -21 57 -16 10 -18 9 -14 -8 3 -10 1
-19 -5 -19 -6 0 -13 -8 -15 -17 -4 -17 -5 -17 -6 0 0 9 -5 17 -9 17 -10 0 -9
-37 2 -47 4 -4 16 3 26 17 16 21 20 23 25 8 10 -26 -11 -53 -54 -70 -23 -9
-41 -13 -41 -9 0 4 -7 8 -15 8 -8 0 -15 -4 -15 -9 0 -4 -5 -8 -11 -8 -6 0 -9
7 -6 15 4 8 2 17 -3 20 -5 3 -7 17 -4 30 3 18 -3 34 -20 52 -14 15 -23 30 -20
35 3 4 2 13 -2 19 -4 8 -9 7 -15 -2 -7 -12 -9 -12 -9 0 0 8 -20 36 -45 62 -25
26 -45 43 -45 36 0 -7 15 -29 34 -49 19 -20 37 -45 41 -57 3 -12 11 -19 16
-16 5 4 9 -1 9 -9 0 -9 10 -22 23 -31 20 -13 23 -22 20 -72 -3 -63 -23 -89
-36 -48 -12 34 -31 32 -22 -2 5 -23 4 -25 -9 -14 -14 11 -16 11 -16 -5 0 -17
-1 -17 -15 2 -8 10 -15 14 -15 7 0 -8 -12 -10 -37 -6 -38 6 -56 20 -47 35 3 4
0 16 -5 27 -8 15 -7 21 7 26 15 7 15 8 -3 15 -19 8 -19 9 -1 9 15 1 16 4 6 16
-6 8 -9 19 -5 25 3 5 2 10 -4 10 -5 0 -13 10 -17 22 -3 12 -13 28 -20 36 -8 7
-14 29 -14 48 0 37 -15 46 -23 14 -3 -11 -1 -20 5 -20 5 0 7 -9 3 -19 -4 -13
1 -24 15 -34 13 -9 18 -20 14 -31 -6 -15 -9 -15 -31 6 -37 34 -64 103 -53 133
12 31 -8 45 -27 20 -11 -16 -13 -17 -13 -2 0 9 8 21 18 27 14 10 14 11 0 6
-23 -7 -28 2 -17 31 6 16 6 22 -1 18 -6 -3 -10 -2 -10 4 0 20 18 20 35 1 20
-22 35 -26 35 -10 0 6 -6 10 -13 10 -18 0 -47 53 -38 69 7 11 13 11 32 0 37
-21 59 -19 59 4 0 16 -2 17 -15 7 -13 -10 -19 -10 -33 4 -10 9 -20 15 -23 15
-2 -1 -11 -3 -20 -6z m365 -549 c13 -34 7 -45 -21 -40 -16 2 -32 5 -36 5 -5 1
-6 5 -3 10 4 5 0 11 -6 14 -8 3 -3 9 12 15 35 15 47 14 54 -4z"/>
<path d="M1530 1032 c0 -5 6 -14 13 -20 18 -15 57 -25 57 -14 0 7 -14 16 -62
40 -5 2 -8 -1 -8 -6z"/>
<path d="M1797 1018 c-9 -37 -20 -143 -14 -138 12 13 38 143 29 152 -6 6 -11
1 -15 -14z"/>
<path d="M2826 1003 c-6 -14 -9 -15 -15 -4 -6 9 -11 10 -15 2 -4 -6 -2 -11 4
-11 7 0 3 -14 -9 -34 -22 -34 -29 -68 -12 -50 15 14 62 106 58 111 -3 2 -8 -4
-11 -14z"/>
<path d="M109 988 c-1 -7 -1 -16 0 -20 0 -5 -3 -8 -9 -8 -5 0 -10 -7 -10 -16
0 -14 3 -14 15 -4 14 12 20 6 15 -15 -11 -50 -10 -57 4 -52 11 4 16 -9 21 -66
4 -40 12 -77 17 -84 12 -15 7 -85 -7 -95 -15 -11 28 -9 45 2 12 8 12 10 -5 10
-12 0 -16 3 -8 8 19 12 5 134 -25 214 -11 29 -23 72 -27 96 -6 39 -23 58 -26
30z"/>
<path d="M401 978 c-5 -13 -6 -37 -3 -54 5 -26 4 -28 -11 -15 -15 12 -17 10
-17 -27 0 -23 4 -43 9 -46 5 -3 8 -41 8 -85 0 -73 -2 -80 -23 -90 -16 -7 -32
-7 -54 1 -26 8 -34 7 -51 -8 -19 -17 -19 -19 -2 -25 10 -4 27 -8 38 -8 20 0
20 0 0 9 -14 6 -15 9 -5 10 41 4 138 10 158 10 35 0 36 23 2 77 -27 43 -32 60
-31 113 0 38 5 66 12 70 13 9 4 75 -11 85 -6 4 -14 -4 -19 -17z"/>
<path d="M1880 978 c0 -10 -5 -18 -11 -18 -5 0 -7 5 -4 10 10 16 -12 12 -29
-6 -23 -23 -19 -40 4 -19 11 10 20 13 20 7 0 -7 7 -9 17 -5 13 5 15 2 10 -11
-4 -10 -3 -15 3 -11 6 3 10 -5 10 -19 0 -14 6 -26 13 -26 8 0 8 -3 1 -8 -7 -5
-2 -21 14 -47 16 -28 22 -32 17 -15 -3 14 -11 43 -17 65 -13 51 -48 125 -48
103z"/>
<path d="M2000 961 c0 -29 14 -43 22 -22 2 5 21 1 42 -10 46 -22 46 -22 46 -9
0 6 -7 10 -15 10 -8 0 -15 5 -15 10 0 6 -5 10 -11 10 -6 0 -24 9 -40 21 l-29
20 0 -30z"/>
<path d="M806 962 c-4 -3 3 -15 14 -27 25 -27 18 -60 -10 -45 -28 15 -30 13
-30 -22 0 -17 -3 -28 -7 -24 -4 4 -8 15 -8 23 0 9 -6 18 -14 21 -9 3 -11 -1
-7 -16 4 -12 2 -40 -4 -63 -10 -35 -14 -40 -33 -35 -21 5 -21 4 -3 -9 18 -14
18 -26 1 -69 -6 -14 -4 -17 10 -15 10 2 20 13 21 24 6 49 26 111 41 127 22 24
43 1 43 -49 0 -53 10 -83 27 -83 10 0 12 8 8 33 -3 17 -9 52 -13 77 -5 28 -13
45 -21 45 -8 0 -16 7 -18 15 -3 9 -1 11 4 5 4 -6 17 -11 28 -10 16 0 19 6 17
28 -2 18 1 26 7 22 6 -3 11 2 11 13 0 20 -52 47 -64 34z"/>
<path d="M2661 905 c-14 -38 -29 -65 -37 -65 -8 0 -23 -6 -34 -12 -15 -10 -22
-10 -32 0 -16 16 -28 15 -28 -3 0 -8 -9 -15 -20 -15 -11 0 -20 4 -20 8 0 5 -7
9 -15 9 -23 0 -18 -11 11 -24 19 -9 32 -9 45 -2 11 5 23 8 27 5 5 -3 21 2 37
10 15 8 30 12 32 10 3 -2 -12 -28 -31 -56 -20 -29 -36 -48 -36 -42 0 13 -73
24 -80 12 -4 -6 -22 -2 -45 10 -50 26 -59 16 -17 -19 33 -28 95 -40 116 -22
17 14 66 1 67 -18 1 -12 3 -11 8 4 4 11 12 31 19 45 13 27 64 222 59 227 -2 1
-14 -26 -26 -62z"/>
<path d="M2326 910 c19 -34 126 -150 138 -150 18 0 -2 26 -76 101 -58 59 -76
73 -62 49z"/>
<path d="M260 910 c0 -23 8 -25 33 -6 16 12 16 14 1 20 -26 10 -34 7 -34 -14z"/>
<path d="M1829 923 c-18 -4 -30 -46 -28 -97 l1 -31 10 35 c5 19 22 45 36 57
15 12 21 22 15 23 -7 0 -13 -4 -13 -10 0 -5 -5 -10 -10 -10 -7 0 -7 6 0 20 6
11 9 19 8 19 -2 -1 -10 -3 -19 -6z"/>
<path d="M1749 898 c-2 -13 -1 -48 2 -78 l6 -55 1 46 c1 26 5 61 8 78 4 18 2
31 -4 31 -5 0 -11 -10 -13 -22z"/>
<path d="M533 885 c4 -9 7 -19 7 -21 0 -2 6 -4 13 -4 24 0 12 -37 -21 -65 -25
-21 -39 -26 -59 -20 -23 5 -25 4 -14 -9 18 -22 35 -20 79 8 63 40 137 125 83
97 -10 -6 -21 -8 -24 -5 -3 3 -4 -2 -3 -12 0 -9 -5 -19 -12 -21 -7 -3 -10 1
-7 9 3 8 -7 24 -21 37 -21 18 -26 19 -21 6z"/>
<path d="M1000 853 c0 -23 5 -45 10 -48 15 -9 12 -34 -5 -51 -8 -8 -13 -23
-11 -32 8 -44 19 -72 28 -72 5 0 6 -6 2 -12 -4 -7 1 -6 10 3 15 14 15 19 2 55
-9 26 -11 46 -5 56 10 18 -7 116 -22 133 -5 5 -9 -8 -9 -32z"/>
<path d="M476 851 c-3 -4 3 -16 13 -25 22 -20 40 -4 21 19 -14 17 -26 19 -34
6z"/>
<path d="M1040 855 c0 -3 7 -22 15 -41 8 -19 14 -38 13 -42 -1 -4 4 -18 11
-31 7 -13 10 -36 7 -52 -6 -31 10 -39 32 -17 9 9 12 7 12 -10 0 -16 -4 -20
-17 -15 -10 4 -14 2 -10 -4 4 -6 15 -13 25 -15 16 -5 18 -1 12 36 -7 50 -16
66 -36 66 -8 0 -14 10 -14 22 0 29 -30 108 -41 108 -5 0 -9 -2 -9 -5z"/>
<path d="M1597 789 c-9 -6 -23 -9 -29 -8 -26 3 -39 -1 -33 -12 4 -6 13 -8 21
-5 8 3 14 1 14 -4 0 -6 7 -10 15 -10 8 0 15 5 15 10 0 6 9 10 20 10 11 0 20 4
20 9 0 14 -25 20 -43 10z"/>
<path d="M777 780 c-3 -8 -10 -32 -16 -52 -9 -35 -8 -38 13 -38 19 0 22 4 18
38 -6 62 -8 70 -15 52z"/>
<path d="M1478 715 c24 -31 29 -55 10 -55 -17 0 -41 -50 -25 -51 7 0 3 -4 -8
-9 -17 -8 -16 -8 7 -7 24 1 26 5 21 25 -3 15 -1 27 8 33 17 10 39 -8 39 -32 0
-11 5 -19 10 -19 16 0 12 19 -15 58 -14 20 -25 42 -25 49 0 7 -10 18 -22 24
l-21 12 21 -28z"/>
<path d="M769 646 c-3 -3 -50 -6 -105 -7 -54 -1 -124 -5 -154 -10 -30 -5 -102
-13 -160 -19 -57 -5 -108 -14 -114 -20 -5 -5 -8 -10 -5 -10 2 0 135 14 294 30
160 16 295 30 301 30 6 0 9 -10 7 -24 -3 -13 -1 -26 4 -29 5 -3 9 9 8 26 0 29
-3 32 -35 35 -20 2 -38 1 -41 -2z"/>
<path d="M1110 612 c0 -26 34 -71 58 -78 15 -4 29 -7 32 -7 3 1 6 -16 6 -38 1
-21 -2 -36 -7 -33 -5 3 -9 13 -9 23 0 20 -23 45 -33 35 -3 -3 3 -22 13 -42 37
-77 49 -112 40 -112 -6 0 -12 1 -13 3 -2 1 -11 -4 -19 -11 -21 -17 -147 -59
-203 -68 -44 -6 -45 -7 -45 -45 0 -32 3 -37 18 -32 31 11 35 16 18 25 -26 14
-19 24 19 25 32 1 35 -2 41 -33 3 -19 11 -37 17 -41 6 -4 7 6 3 30 -4 19 -3
37 1 39 4 3 2 3 -5 1 -22 -5 -8 19 17 28 14 6 20 5 16 -1 -3 -6 1 -10 9 -10 9
0 13 6 10 14 -4 10 11 19 53 30 32 9 65 21 74 26 12 6 35 0 80 -22 45 -22 78
-31 118 -32 49 -1 59 -5 81 -31 14 -16 24 -33 22 -38 -1 -4 3 -7 10 -5 18 3
69 -25 92 -51 11 -12 27 -21 37 -21 10 0 46 -18 80 -40 34 -22 65 -40 69 -40
5 0 11 -7 14 -16 5 -12 1 -14 -17 -9 -21 7 -21 6 -3 -8 17 -13 22 -12 43 6 12
11 22 21 20 22 -3 3 -139 84 -259 154 -60 35 -108 68 -108 73 0 16 57 1 127
-32 63 -31 114 -38 136 -20 7 6 23 20 37 31 24 21 24 21 3 15 -17 -6 -23 -3
-23 8 0 9 -5 16 -11 16 -6 0 -9 -6 -6 -14 5 -11 -2 -14 -26 -12 -18 2 -23 1
-12 -1 33 -8 42 -23 13 -23 -40 0 -88 12 -83 20 10 16 -8 40 -29 39 -11 0 -15
-3 -8 -6 6 -2 12 -11 12 -19 0 -12 -5 -12 -32 0 -54 23 -113 33 -175 30 -48
-2 -69 3 -123 30 -37 18 -64 37 -62 44 1 8 -2 11 -7 8 -13 -8 -20 42 -11 75
14 47 -6 94 -40 94 -8 0 -15 6 -15 13 0 8 -9 20 -19 28 -22 16 -36 18 -36 6z"/>
<path d="M150 600 c0 -5 6 -10 13 -10 9 0 9 -2 -1 -8 -16 -11 -52 -77 -52 -97
0 -8 -12 -26 -27 -40 -16 -14 -21 -23 -12 -20 18 7 35 -10 41 -40 2 -12 11
-19 21 -19 12 1 20 -7 24 -28 4 -21 8 -26 14 -16 6 9 9 9 9 1 0 -15 -15 -25
-24 -15 -4 4 -21 7 -37 7 -22 0 -29 -5 -29 -19 0 -13 5 -17 19 -13 24 6 32 0
59 -44 30 -49 94 -105 150 -129 12 -5 22 -14 22 -19 0 -24 59 -41 127 -36 89
6 147 16 153 25 5 7 90 18 180 25 40 3 96 23 87 31 -3 3 -118 -9 -256 -26
l-251 -31 -25 29 c-14 17 -50 44 -80 61 -69 39 -97 81 -89 132 4 22 2 39 -5
43 -15 10 -14 26 2 26 7 0 13 15 14 35 1 26 -3 35 -14 35 -12 0 -14 -7 -9 -30
7 -38 -11 -40 -44 -5 -20 22 -22 28 -11 51 12 28 80 117 93 122 4 2 1 10 -6
18 -17 16 -56 19 -56 4z"/>
<path d="M725 561 c-19 -8 -19 -8 0 -18 14 -8 22 -7 32 2 24 25 10 32 -32 16z"/>
<path d="M669 553 c-1 -5 -1 -16 0 -25 1 -10 -2 -25 -8 -35 -11 -20 3 -53 21
-53 9 0 9 3 1 11 -14 14 -6 39 11 39 7 0 18 -11 24 -25 6 -14 19 -25 28 -25
30 0 73 -38 67 -60 -4 -16 0 -20 22 -20 25 0 27 2 21 31 -3 17 -6 35 -6 40 0
5 -11 9 -24 9 -31 0 -86 20 -86 31 0 13 84 11 96 -1 7 -7 10 -4 8 12 -1 13 -3
23 -3 24 -1 1 -24 -3 -52 -7 -47 -7 -55 -6 -81 16 -16 14 -25 25 -19 25 6 0
11 5 11 10 0 11 -29 14 -31 3z"/>
<path d="M544 543 c-48 -4 -51 -5 -46 -28 6 -31 22 -33 22 -2 1 19 3 18 14 -8
l13 -30 -44 -9 c-41 -8 -43 -10 -43 -42 0 -19 5 -34 10 -34 6 0 10 11 10 25 0
14 5 26 10 26 6 1 14 2 19 3 5 0 13 4 17 9 4 4 24 7 45 7 21 0 41 5 44 10 4 6
-8 10 -30 10 -32 0 -36 3 -33 23 4 29 58 39 58 10 0 -15 2 -15 9 -3 6 8 8 17
5 21 -2 4 4 10 13 12 20 5 -17 5 -93 0z"/>
<path d="M800 535 l-35 -13 36 -1 c24 -1 39 4 43 14 6 18 2 18 -44 0z"/>
<path d="M313 523 c-29 -4 -32 -8 -35 -41 -2 -20 2 -53 9 -72 9 -29 9 -38 -4
-53 -9 -9 -13 -20 -9 -24 10 -10 61 32 64 53 3 16 1 17 -7 4 -8 -11 -11 -11
-12 -2 -3 27 -4 31 -11 38 -10 9 -10 46 -2 68 4 11 19 16 44 16 53 0 58 -15
11 -34 -50 -20 -62 -37 -18 -26 17 4 41 11 51 16 16 6 18 4 14 -14 -4 -12 -1
-20 5 -19 5 1 14 -9 18 -23 l7 -25 1 27 c1 15 -3 29 -8 32 -4 3 -11 24 -15 46
-7 43 -10 44 -103 33z"/>
<path d="M448 505 c2 -14 8 -25 13 -25 5 0 9 11 9 25 0 14 -6 25 -14 25 -9 0
-12 -8 -8 -25z"/>
<path d="M1077 517 c-7 -20 4 -34 36 -46 34 -13 61 -14 30 -1 -16 6 -23 18
-23 35 0 18 -5 25 -19 25 -10 0 -21 -6 -24 -13z"/>
<path d="M2769 514 c14 -10 21 -23 18 -35 -3 -12 4 -24 19 -34 31 -20 32 -65
2 -113 l-21 -35 36 7 c98 18 155 -95 83 -164 -19 -17 -33 -21 -65 -18 -39 3
-41 2 -41 -24 0 -27 -14 -34 -55 -29 -5 1 -2 -5 9 -13 19 -16 52 -7 68 17 3 6
30 18 60 27 51 15 54 17 70 67 14 41 15 59 7 80 -15 40 -59 83 -85 83 -13 0
-26 5 -29 10 -3 6 -1 10 5 10 7 0 10 7 6 15 -3 9 0 15 8 15 8 0 17 7 20 16 9
22 8 24 -9 24 -9 0 -27 12 -40 28 -21 24 -22 29 -9 49 20 32 19 33 -33 33 -47
0 -47 0 -24 -16z"/>
<path d="M2898 496 c-2 -20 -1 -36 2 -36 4 0 19 14 35 30 21 22 25 30 13 30
-9 0 -23 3 -31 6 -11 4 -16 -4 -19 -30z"/>
<path d="M178 503 c-11 -3 -18 -14 -18 -29 0 -29 16 -32 23 -4 6 22 28 26 58
10 16 -9 19 -7 19 10 0 16 -6 20 -32 19 -18 -1 -41 -3 -50 -6z"/>
<path d="M2647 492 c-22 -24 -21 -32 3 -32 10 0 24 -9 30 -20 7 -13 21 -20 39
-20 35 0 43 8 30 31 -7 13 -17 17 -37 13 -29 -5 -67 14 -44 23 14 5 17 23 4
23 -5 0 -16 -8 -25 -18z"/>
<path d="M2960 473 c-39 -30 -50 -43 -50 -58 0 -5 4 -4 9 3 4 8 11 13 15 13
19 -3 66 32 66 49 0 25 2 25 -40 -7z"/>
<path d="M1327 449 c-10 -11 -15 -24 -11 -30 3 -5 0 -17 -8 -26 -11 -14 -11
-16 1 -12 13 5 46 78 38 85 -2 2 -11 -6 -20 -17z"/>
<path d="M370 436 c0 -8 6 -17 13 -19 9 -4 9 -8 -2 -15 -9 -7 -10 -12 -2 -16
6 -4 8 -13 5 -19 -4 -7 -4 -9 1 -5 4 4 14 3 22 -4 26 -21 25 1 -1 47 -28 47
-36 54 -36 31z"/>
<path d="M2171 424 c-11 -14 -17 -33 -15 -42 4 -10 -4 -6 -20 11 -14 15 -32
27 -41 27 -21 0 -19 -34 5 -55 11 -10 17 -21 15 -25 -3 -4 3 -11 12 -14 11 -4
24 1 37 16 53 58 76 90 70 99 -10 17 -43 9 -63 -17z"/>
<path d="M2355 377 c-52 -77 -50 -80 56 -75 87 4 92 6 106 31 11 21 21 27 47
27 28 0 33 3 29 19 -4 16 -8 17 -35 7 -26 -10 -32 -8 -44 9 -12 16 -16 17 -23
6 -5 -7 -13 -11 -18 -8 -5 3 -24 2 -43 -2 -30 -6 -35 -11 -35 -36 0 -22 -5
-30 -20 -33 -11 -2 -16 0 -10 5 6 4 11 17 13 28 2 11 15 29 28 41 25 21 25 21
5 27 -17 4 -28 -5 -56 -46z m93 -39 c-3 -7 -14 -14 -26 -16 -16 -3 -20 1 -16
12 7 19 48 22 42 4z"/>
<path d="M243 408 c0 -7 -3 -37 -6 -65 -6 -50 3 -68 19 -41 4 6 2 14 -4 16 -7
2 -9 10 -4 20 12 23 14 82 4 82 -5 0 -9 -6 -9 -12z"/>
<path d="M600 408 c0 -5 -9 -8 -19 -8 -14 0 -20 -9 -23 -35 -4 -32 -2 -35 23
-35 23 0 26 4 23 23 l-5 22 10 -22 c12 -26 47 -21 54 8 3 10 12 19 21 19 9 0
16 8 16 19 0 17 -7 19 -50 18 -27 -1 -50 -5 -50 -9z m90 -7 c0 -12 -36 -21
-84 -21 -48 0 -43 7 10 16 21 3 41 8 43 10 8 8 31 4 31 -5z"/>
<path d="M725 379 c-27 -10 -45 -18 -40 -19 6 0 3 -5 -5 -10 -10 -7 4 -8 45
-4 33 4 61 8 63 9 1 1 -1 11 -5 22 -8 19 -9 19 -58 2z"/>
<path d="M508 382 c-10 -2 -18 -8 -18 -13 0 -5 8 -9 18 -10 12 0 10 -3 -8 -10
-20 -8 -27 -6 -38 8 -12 17 -14 17 -23 1 -6 -10 -22 -19 -37 -19 -24 -2 -24
-2 -4 -6 12 -2 22 -8 22 -12 0 -4 17 -5 38 -4 70 7 78 11 77 38 -2 30 -5 33
-27 27z"/>
<path d="M1606 376 c6 -15 28 -28 54 -32 8 -1 28 -7 43 -13 16 -6 39 -11 53
-11 22 0 23 2 12 20 -7 11 -19 20 -26 20 -7 0 -10 5 -6 11 5 9 -6 10 -40 7
-25 -3 -49 -2 -52 3 -9 15 -44 10 -38 -5z"/>
<path d="M2616 383 c-7 -7 19 -33 33 -33 15 0 14 -9 -4 -26 -8 -9 -15 -20 -15
-25 0 -5 7 -9 15 -9 8 0 15 -5 15 -11 0 -6 -9 -8 -20 -4 -14 5 -20 2 -20 -9 0
-9 8 -16 19 -16 11 0 23 -4 26 -10 4 -6 -5 -10 -19 -10 -19 0 -26 -5 -26 -20
0 -20 36 -43 53 -33 4 2 7 44 7 94 0 88 0 89 25 89 14 0 25 4 25 9 0 15 -23
19 -42 7 -11 -7 -24 -6 -41 1 -14 7 -27 9 -31 6z"/>
<path d="M1975 335 c-14 -13 -25 -31 -25 -39 0 -22 42 -58 62 -52 10 2 18 0
18 -6 0 -5 5 -6 12 -2 7 4 8 3 4 -4 -4 -7 -1 -12 7 -12 8 0 18 -10 22 -22 l8
-23 4 23 c6 29 -10 48 -53 64 -37 13 -52 37 -32 50 21 13 36 9 43 -12 7 -23
45 -27 45 -5 0 23 -46 65 -70 65 -11 0 -32 -11 -45 -25z"/>
<path d="M2734 315 c-3 -25 -3 -53 2 -62 6 -14 9 -11 12 15 2 19 9 32 18 32 8
0 14 5 14 10 0 6 -5 10 -11 10 -6 0 -9 6 -6 14 3 8 0 17 -8 20 -10 3 -16 -7
-21 -39z"/>
<path d="M866 280 c11 -115 22 -137 22 -43 0 56 -5 88 -14 100 -13 16 -14 9
-8 -57z"/>
<path d="M1567 344 c-3 -4 0 -13 8 -20 10 -10 20 -11 37 -5 17 7 19 10 6 10
-10 1 -18 6 -18 11 0 11 -23 14 -33 4z"/>
<path d="M1802 334 c-11 -12 -9 -14 11 -14 14 0 30 6 36 14 9 11 7 14 -11 14
-13 0 -29 -7 -36 -14z"/>
<path d="M335 332 c-55 -6 -44 -17 18 -18 34 0 53 1 42 4 -11 2 -22 7 -25 11
-3 3 -18 5 -35 3z"/>
<path d="M2576 314 c-3 -8 -1 -24 4 -36 8 -22 9 -21 10 7 1 26 3 27 10 10 8
-19 9 -19 9 1 1 25 -25 39 -33 18z"/>
<path d="M691 300 c-20 -18 -21 -21 -6 -26 17 -7 35 10 35 34 0 15 0 15 -29
-8z"/>
<path d="M575 302 c-26 -6 -37 -23 -23 -39 16 -19 27 -16 21 7 -4 14 0 20 12
20 12 0 15 -6 11 -22 l-6 -23 12 23 c13 26 2 41 -27 34z"/>
<path d="M2122 217 c1 -75 2 -78 8 -32 4 28 8 40 8 28 1 -12 7 -25 12 -28 6
-4 10 16 10 52 0 52 -2 59 -20 60 -19 2 -20 -4 -18 -80z"/>
<path d="M2218 288 c-35 -27 -45 -108 -13 -108 7 0 15 -7 19 -15 3 -8 13 -15
21 -15 9 0 14 -4 10 -9 -3 -6 7 -6 27 -1 17 6 35 15 39 21 4 7 12 8 20 4 9 -6
11 -4 6 8 -3 9 -2 19 3 22 6 4 10 25 10 49 0 39 -2 42 -27 44 -16 0 -44 4 -63
7 -22 4 -41 1 -52 -7z m94 -42 c17 -25 8 -66 -18 -82 -16 -11 -28 -14 -32 -7
-4 5 -15 12 -24 16 -27 10 -23 62 4 81 23 16 57 12 70 -8z"/>
<path d="M420 275 c-10 -11 -9 -18 3 -30 28 -27 66 -15 46 15 -7 13 -9 12 -9
-2 0 -10 -4 -18 -10 -18 -21 0 -10 39 13 43 20 4 19 4 -4 6 -15 0 -32 -6 -39
-14z"/>
<path d="M2391 240 c0 -39 2 -51 9 -40 5 8 7 24 4 34 -5 15 -3 18 10 13 11 -4
16 -1 16 9 0 10 -6 14 -14 11 -9 -4 -17 1 -19 11 -3 9 -5 -8 -6 -38z"/>
<path d="M292 268 c-15 -15 -16 -28 -2 -28 6 0 10 7 10 15 0 9 9 15 25 15 19
0 25 -5 23 -17 -2 -10 -7 -21 -13 -25 -6 -4 -2 -8 8 -8 12 0 17 8 17 30 0 26
-4 30 -28 30 -15 0 -33 -5 -40 -12z"/>
<path d="M1098 237 c-3 -15 -1 -24 3 -21 5 3 14 -7 19 -21 17 -44 13 -55 -21
-55 -34 0 -72 -17 -65 -29 3 -4 -1 -8 -9 -8 -8 0 -13 5 -12 11 1 6 -10 9 -25
8 -32 -4 -35 4 -10 27 9 9 23 24 31 34 12 15 11 17 -3 17 -9 0 -16 -6 -16 -14
0 -8 -12 -16 -26 -18 -24 -3 -26 -6 -28 -68 -1 -36 -6 -73 -10 -82 -6 -13 -3
-17 14 -15 18 1 21 6 15 33 -5 30 -3 33 30 44 19 6 44 9 55 5 16 -5 20 -2 20
14 0 17 9 21 50 27 57 8 57 10 15 93 -21 43 -22 43 -27 18z"/>
<path d="M2549 253 c-4 -30 -1 -92 5 -101 4 -7 14 -12 23 -12 14 0 14 2 0 24
-9 13 -14 39 -13 60 2 20 -1 36 -5 36 -5 0 -9 -3 -10 -7z"/>
<path d="M2818 249 c-10 -5 -18 -20 -18 -33 0 -53 72 -64 78 -13 6 47 -23 68
-60 46z"/>
<path d="M1960 220 c-10 -18 -8 -19 21 -13 25 5 35 2 46 -12 11 -16 13 -16 13
-3 0 9 -14 24 -32 32 -38 20 -35 20 -48 -4z"/>
<path d="M2430 194 c0 -21 4 -33 10 -29 6 4 8 11 5 16 -4 5 5 9 19 9 19 0 26
5 26 20 0 16 -7 20 -30 20 -28 0 -30 -3 -30 -36z"/>
<path d="M2100 186 c0 -15 -12 -34 -31 -50 -17 -14 -24 -26 -17 -26 26 0 58
40 58 70 0 17 -2 30 -5 30 -3 0 -5 -11 -5 -24z"/>
<path d="M1912 125 c-25 -51 -29 -65 -16 -65 8 0 22 16 30 35 14 35 28 44 39
25 3 -5 14 -9 23 -9 14 1 14 2 2 5 -19 5 -45 44 -30 44 5 0 10 7 10 15 0 35
-28 11 -58 -50z"/>
<path d="M2171 163 c-1 -18 3 -33 8 -33 5 0 18 -3 28 -7 16 -5 15 -3 -3 18
-12 13 -24 31 -27 39 -3 8 -6 0 -6 -17z"/>
<path d="M0 138 c0 -22 3 -29 9 -19 7 10 13 11 31 1 43 -23 33 4 -12 33 l-28
17 0 -32z"/>
<path d="M2361 123 c2 -10 -3 -28 -11 -40 -12 -19 -24 -23 -68 -23 -32 0 -51
4 -47 10 4 6 -1 7 -11 3 -12 -4 -15 -3 -10 5 4 7 2 10 -6 7 -7 -3 -21 6 -31
19 -12 16 -25 22 -38 19 -17 -5 -15 -8 13 -24 41 -24 155 -79 164 -79 4 0 1 6
-5 14 -10 12 -8 14 13 12 14 -2 25 0 24 3 -1 3 2 14 7 24 11 27 40 38 67 28
13 -6 17 -10 11 -10 -18 -1 -16 -21 2 -21 8 0 15 7 15 15 0 8 5 15 12 15 29 0
-10 19 -45 22 -20 1 -37 6 -37 10 0 4 -5 8 -11 8 -5 0 -9 -8 -8 -17z"/>
<path d="M2729 117 c-9 -7 -13 -19 -10 -29 8 -24 34 -7 29 20 -2 17 -6 19 -19
9z"/>
<path d="M1275 109 c-101 -12 -101 -12 -124 -38 -25 -28 -28 -71 -6 -71 10 0
15 10 15 34 l0 35 58 6 c31 3 86 9 120 14 44 5 65 4 67 -3 19 -63 18 -64 -37
-70 -29 -3 -71 -8 -93 -9 -22 -2 1 -4 51 -5 110 -2 122 5 108 71 -9 41 -10 42
-49 43 -22 1 -71 -2 -110 -7z"/>
<path d="M2633 106 c18 -14 23 -61 7 -71 -6 -4 -10 5 -10 19 0 14 -4 26 -10
26 -5 0 -10 -9 -10 -20 0 -11 -5 -20 -11 -20 -6 0 -9 9 -6 20 3 11 1 20 -4 20
-5 0 -9 -9 -9 -20 0 -11 -4 -20 -10 -20 -5 0 -10 5 -10 11 0 6 -7 3 -16 -6
-10 -9 -20 -13 -26 -7 -4 4 -22 7 -38 4 -22 -3 -30 -10 -30 -24 0 -18 5 -19
63 -13 34 4 78 9 97 10 19 2 38 4 43 4 4 1 7 8 7 16 0 17 25 20 35 5 3 -5 11
-10 17 -10 6 0 -10 20 -36 45 -27 25 -51 45 -55 45 -3 0 2 -7 12 -14z"/>
<path d="M1613 97 c-40 -6 -73 -14 -73 -19 0 -12 31 -10 107 8 111 26 99 29
-34 11z"/>
<path d="M1039 53 c-1 -10 -1 -23 0 -30 1 -6 -9 -14 -21 -16 -20 -4 -19 -4 5
-6 15 0 27 4 27 12 0 6 3 22 6 35 4 13 2 22 -5 22 -6 0 -12 -8 -12 -17z"/>
<path d="M2107 50 c-13 -16 -12 -19 20 -34 18 -9 55 -16 80 -16 43 0 45 1 27
15 -10 8 -26 15 -35 15 -9 0 -22 6 -28 14 -19 22 -47 25 -64 6z"/>
<path d="M2400 53 c0 -12 -4 -25 -10 -28 -12 -7 -13 -25 -2 -25 14 0 33 53 22
64 -7 7 -10 3 -10 -11z"/>
<path d="M815 45 c-81 -15 -160 -24 -300 -35 -94 -7 -89 -7 72 -8 122 0 173 3
177 11 5 9 7 9 12 0 11 -24 58 -14 87 17 16 17 27 29 25 29 -1 -1 -34 -7 -73
-14z"/>
<path d="M1660 15 c-40 -10 -47 -13 -25 -14 17 0 50 6 75 13 55 18 25 18 -50
1z"/>
</g>
</svg>
