<?xml version="1.0" encoding="UTF-8" standalone="no"?>
<!-- Created with Inkscape (http://www.inkscape.org/) -->

<svg
   width="210mm"
   height="297mm"
   viewBox="0 0 210 297"
   version="1.1"
   id="svg5"
   inkscape:version="1.1.1 (3bf5ae0d25, 2021-09-20)"
   sodipodi:docname="logo.svg"
   xmlns:inkscape="http://www.inkscape.org/namespaces/inkscape"
   xmlns:sodipodi="http://sodipodi.sourceforge.net/DTD/sodipodi-0.dtd"
   xmlns="http://www.w3.org/2000/svg"
   xmlns:svg="http://www.w3.org/2000/svg">
  <sodipodi:namedview
     id="namedview7"
     pagecolor="#ffffff"
     bordercolor="#666666"
     borderopacity="1.0"
     inkscape:pageshadow="2"
     inkscape:pageopacity="0.0"
     inkscape:pagecheckerboard="0"
     inkscape:document-units="mm"
     showgrid="false"
     inkscape:lockguides="false"
     inkscape:zoom="0.45611672"
     inkscape:cx="134.83391"
     inkscape:cy="599.62722"
     inkscape:window-width="1366"
     inkscape:window-height="697"
     inkscape:window-x="-8"
     inkscape:window-y="-8"
     inkscape:window-maximized="1"
     inkscape:current-layer="layer1" />
  <defs
     id="defs2">
    <rect
       x="26.309055"
       y="234.58907"
       width="747.61565"
       height="244.45497"
       id="rect65484" />
    <rect
       x="758.57776"
       y="475.75541"
       width="715.54899"
       height="221.49891"
       id="rect57522" />
    <rect
       x="157.85433"
       y="449.44636"
       width="65.772638"
       height="48.233268"
       id="rect34391" />
    <rect
       x="160.04675"
       y="278.4375"
       width="624.84005"
       height="377.09645"
       id="rect8927" />
    <rect
       x="39.463583"
       y="263.09055"
       width="613.87795"
       height="401.21309"
       id="rect4059" />
  </defs>
  <g
     inkscape:label="Layer 1"
     inkscape:groupmode="layer"
     id="layer1">
    <g
       transform="scale(0.26458333)"
       id="text4057"
       style="font-size:85.3333px;line-height:1.25;font-family:Elephant;-inkscape-font-specification:'Elephant, Normal';font-variant-ligatures:none;white-space:pre;shape-inside:url(#rect4059)" />
    <g
       aria-label="Lyrics"
       transform="matrix(0.34375199,0,0,0.44911043,-54.201182,-25.168557)"
       id="text8925"
       style="font-size:24px;line-height:1.25;font-family:Elephant;-inkscape-font-specification:'Elephant, Normal';font-variant-ligatures:none;white-space:pre;shape-inside:url(#rect8927);fill:#241c1c"
       inkscape:transform-center-x="-7.1199669"
       inkscape:transform-center-y="2.5968466e-06">
      <path
         d="m 250.65829,447.12519 c 7.68001,0 16.26859,-2.09068 23.82059,-9.13068 7.67999,-7.04 14.39999,-15.168 20.15999,-24.384 5.888,-9.216 11.2,-18.944 15.93601,-29.184 h 3.072 v 68.544 H 163.50287 v -3.072 h 4.224 c 1.92,-0.128 4.736,-0.384 8.448,-0.768 3.84,-0.512 6.592,-1.6 8.25601,-3.264 1.66399,-1.664 2.68799,-4.48 3.072,-8.448 l 0.38399,-8.832 v -91.2 l -0.38399,-8.832 c -0.38401,-4.096 -1.28001,-6.912 -2.68801,-8.448 -1.27999,-1.664 -3.32799,-2.688 -6.144,-3.072 -2.816,-0.384 -5.248,-0.576 -7.296,-0.576 -2.048,-0.128 -3.904,-0.256 -5.568,-0.384 v -3.072 h 92.928 v 3.072 l -12.67199,0.576 c -3.84001,0.384 -6.46401,1.344 -7.87201,2.88 -1.408,1.536 -2.304,4.416 -2.68799,8.64 l 8.03044,38.38581 -8.41445,82.57419 z"
         style="font-size:192px;fill:#241c1c"
         id="path42235"
         sodipodi:nodetypes="ccccccccccscccccsccccccscccc" />
      <path
         d="m 329.00656,375.01851 c -1.536,-3.2 -2.816,-5.44 -3.84,-6.72 -1.024,-1.408 -2.368,-2.304 -4.032,-2.688 l -7.488,-0.576 v -3.072 h 62.784 v 3.072 h -2.88 c -1.024,0 -2.368,0.192 -4.032,0.576 -1.536,0.256 -2.304,1.536 -2.304,3.84 0,1.024 0.256,2.368 0.768,4.032 l 1.536,4.608 14.976,35.712 c 1.28,-3.072 3.328,-8.064 6.144,-14.976 2.816,-7.04 5.056,-12.992 6.72,-17.856 1.664,-4.864 2.496,-8.384 2.496,-10.56 0,-1.664 -0.32,-2.816 -0.96,-3.456 -0.512,-0.64 -2.048,-1.152 -4.608,-1.536 l -6.144,-0.384 v -3.072 h 32.064 v 3.072 c -0.768,0 -1.6,0.064 -2.496,0.192 -0.768,0 -2.304,0.192 -4.608,0.576 -2.176,0.384 -4.032,1.536 -5.568,3.456 -1.536,1.92 -4.416,8.192 -8.64,18.816 -4.096,10.624 -8.576,21.888 -13.44,33.792 -4.736,11.904 -10.112,24.256 -16.128,37.056 -5.888,12.8 -11.456,22.4 -16.704,28.8 -5.12,6.4 -12.032,9.6 -20.736,9.6 -5.12,0 -9.856,-1.728 -14.208,-5.184 -4.224,-3.456 -6.336,-7.936 -6.336,-13.44 0,-5.12 1.728,-9.472 5.184,-13.056 3.456,-3.584 7.872,-5.376 13.248,-5.376 5.504,0 9.792,1.6 12.864,4.8 3.072,3.2 4.608,6.976 4.608,11.328 0,4.352 -1.216,7.872 -3.648,10.56 -2.432,2.688 -3.648,4.288 -3.648,4.8 1.152,-0.128 2.368,-0.256 3.648,-0.384 2.816,-1.28 5.504,-3.712 8.064,-7.296 2.688,-3.584 5.056,-7.296 7.104,-11.136 2.048,-3.84 4.224,-8.384 6.528,-13.632 -2.816,-6.656 -6.336,-14.848 -10.56,-24.576 -4.096,-9.856 -16.47119,-13.98057 -21.59119,-25.75657 -4.992,-11.776 -1.19281,-27.55543 -4.13681,-33.95543 z"
         style="font-size:192px;fill:#241c1c"
         id="path42237"
         sodipodi:nodetypes="cccccccscsccccssccccccccsccccscsssssscccscccc" />
      <path
         d="m 415.02224,452.97051 v -3.072 l 5.184,-0.192 c 3.712,-0.384 5.952,-1.28 6.72,-2.688 0.768,-1.408 1.152,-4.48 1.152,-9.216 l 0.192,-8.832 v -45.888 l -0.192,-7.872 c -0.256,-3.072 -0.64,-5.376 -1.152,-6.912 -0.512,-1.536 -2.816,-2.496 -6.912,-2.88 l -4.992,-0.384 v -3.072 h 49.728 v 16.128 c 0.896,-2.304 2.816,-5.76 5.76,-10.368 2.944,-4.608 9.664,-6.912 20.16,-6.912 6.144,0 11.328,2.176 15.552,6.528 4.352,4.224 6.528,9.28 6.528,15.168 0,5.888 -2.048,10.816 -6.144,14.784 -3.968,3.84 -8.896,5.76 -14.784,5.76 -4.864,0 -9.088,-1.664 -12.672,-4.992 -3.456,-3.456 -5.184,-7.36 -5.184,-11.712 0,-3.2 0.576,-6.144 1.728,-8.832 1.28,-2.432 2.56,-4.928 3.84,-7.488 -0.64,-0.896 -1.28,-1.344 -1.92,-1.344 -3.328,0 -6.272,1.984 -8.832,5.952 -2.432,3.968 -3.648,7.68 -3.648,11.136 l 12.29805,34.87248 -12.10605,19.07952 c 0,3.584 0.448,6.016 1.344,7.296 0.896,1.28 3.136,2.112 6.72,2.496 l 5.76,0.384 v 3.072 z"
         style="font-size:192px;fill:#241c1c"
         id="path42239"
         sodipodi:nodetypes="cccsccccscccccsscscscsccscsccscccc" />
      <path
         d="m 575.91807,452.97051 h -62.208 v -3.072 l 4.608,-0.192 c 3.712,-0.384 5.952,-1.28 6.72,-2.688 0.768,-1.408 1.152,-4.48 1.152,-9.216 l -11.45878,-25.56057 11.65078,-29.15943 -0.192,-7.872 c -0.256,-3.072 -0.64,-5.376 -1.152,-6.912 -0.512,-1.536 -2.816,-2.496 -6.912,-2.88 l -5.184,-0.384 v -3.072 h 50.304 v 67.008 l 0.192,8.832 c 0,4.608 0.384,7.68 1.152,9.216 0.768,1.408 3.008,2.304 6.72,2.688 l 4.608,0.192 z m -49.92,-123.072 c 0,-4.992 1.792,-9.216 5.376,-12.672 3.712,-3.584 8.128,-5.376 13.248,-5.376 5.248,0 9.664,1.728 13.248,5.184 3.712,3.328 5.568,7.616 5.568,12.864 0,5.12 -1.856,9.472 -5.568,13.056 -3.584,3.456 -8,5.184 -13.248,5.184 -5.12,0 -9.536,-1.728 -13.248,-5.184 -3.584,-3.584 -5.376,-7.936 -5.376,-13.056 z"
         style="font-size:192px;fill:#241c1c"
         id="path42241"
         sodipodi:nodetypes="ccccsccccsccccccccccscscscscs" />
      <path
         d="m 637.74174,363.11451 c -3.584,0 -6.592,1.408 -9.024,4.224 -2.432,2.816 -4.352,6.272 -5.76,10.368 -1.28,4.096 -2.24,8.576 -2.88,13.44 -0.512,4.736 12.17732,18.82352 12.17732,23.30352 0,11.648 -11.02532,12.34448 -7.18532,21.04848 3.968,8.576 10.88,12.864 20.736,12.864 7.04,0 13.184,-2.176 18.432,-6.528 5.248,-4.48 9.216,-10.112 11.904,-16.896 l 2.88,1.536 c -8.576,18.944 -23.936,28.416 -46.08,28.416 -14.592,0 -27.008,-4.288 -37.248,-12.864 -10.24,-8.704 -15.36,-20.16 -15.36,-34.368 0,-14.336 4.992,-25.856 14.976,-34.56 10.112,-8.704 22.656,-13.056 37.632,-13.056 5.632,0 10.816,0.64 15.552,1.92 4.736,1.152 9.152,2.816 13.248,4.992 4.224,2.048 8.192,5.056 11.904,9.024 3.84,3.84 5.76,8.384 5.76,13.632 0,4.736 -1.472,8.576 -4.416,11.52 -2.944,2.816 -7.296,4.224 -13.056,4.224 -4.992,0 -9.536,-1.728 -13.632,-5.184 -3.968,-3.584 -5.952,-7.616 -5.952,-12.096 0,-3.456 0.704,-6.784 2.112,-9.984 1.408,-3.2 2.112,-5.888 2.112,-8.064 0,-2.048 -0.768,-3.712 -2.304,-4.992 -1.536,-1.28 -3.712,-1.92 -6.528,-1.92 z"
         style="font-size:192px;fill:#241c1c"
         id="path42243"
         sodipodi:nodetypes="ssccscscccscscscccscscsssss" />
      <path
         d="m 688.23755,413.22651 h 2.496 c 3.328,10.368 6.656,17.984 9.984,22.848 3.328,4.864 6.912,8.512 10.752,10.944 3.968,2.432 8.768,3.648 14.4,3.648 3.2,0 5.952,-0.832 8.256,-2.496 2.304,-1.792 3.456,-4.224 3.456,-7.296 0,-3.968 -0.896,-6.912 -2.688,-8.832 -1.792,-1.92 -8.95602,-2.78511 -12.79602,-4.96111 -3.84,-2.304 -3.97198,-5.98289 -9.09198,-8.67089 -4.992,-2.816 -9.216,-5.504 -12.672,-8.064 -3.328,-2.688 -5.952,-5.696 -7.872,-9.024 -1.792,-3.328 -2.688,-7.168 -2.688,-11.52 0,-9.472 3.584,-16.768 10.752,-21.888 7.168,-5.248 15.936,-7.872 26.304,-7.872 4.864,0 9.472,0.896 13.824,2.688 4.224,2.176 8.512,4.288 12.864,6.336 1.792,0 3.328,-1.088 4.608,-3.264 1.28,-2.176 1.92,-4.736 1.92,-7.68 h 2.688 v 38.592 h -2.496 c -1.024,-3.072 -2.304,-6.464 -3.84,-10.176 -1.536,-3.712 -3.776,-7.424 -6.72,-11.136 -2.816,-3.84 -5.824,-6.784 -9.024,-8.832 -3.2,-2.048 -7.296,-3.072 -12.288,-3.072 -3.584,0 -6.528,0.896 -8.832,2.688 -2.176,1.664 -3.264,3.776 -3.264,6.336 0,2.944 0.768,5.248 2.304,6.912 1.664,1.664 4.032,3.456 7.104,5.376 3.072,1.792 8.37622,1.59707 13.62422,4.54107 5.376,2.816 9.03178,8.19493 13.25578,11.01093 4.224,2.816 7.744,6.336 10.56,10.56 2.816,4.096 4.224,8.832 4.224,14.208 0,9.856 -3.776,17.28 -11.328,22.272 -7.424,4.992 -16.448,7.488 -27.072,7.488 -5.504,0 -10.88,-1.152 -16.128,-3.456 -5.12,-2.56 -10.176,-5.184 -15.168,-7.872 -1.664,0 -3.136,1.344 -4.416,4.032 -1.28,2.688 -2.048,5.568 -2.304,8.64 h -2.688 z"
         style="font-size:192px;fill:#241c1c"
         id="path42245"
         sodipodi:nodetypes="ccscscssccccscsccsccccscsscscccscscsccsccc" />
    </g>
    <g
       transform="scale(0.26458333)"
       id="text34389"
       style="font-size:24px;line-height:1.25;font-family:Elephant;-inkscape-font-specification:'Elephant, Normal';font-variant-ligatures:none;white-space:pre;shape-inside:url(#rect34391)" />
    <g
       transform="scale(0.26458333)"
       id="text57520"
       style="font-size:24px;line-height:1.25;font-family:Elephant;-inkscape-font-specification:'Elephant, Normal';font-variant-ligatures:none;white-space:pre;shape-inside:url(#rect57522)" />
    <text
       xml:space="preserve"
       transform="scale(0.26458333)"
       id="text65482"
       style="line-height:1.25;font-family:Elephant;font-size:24px;-inkscape-font-specification:'Elephant, Normal';font-variant-ligatures:none;white-space:pre;shape-inside:url(#rect65484)" />
    <path
       style="fill:#2b0000;stroke-width:0.377602"
       id="path67930"
       d="m 80.489025,57.727057 c 0.32439,0.159614 0.640445,0.360007 0.973165,0.47883 0.591132,0.211104 2.173531,0.514145 2.740787,0.617414 1.386889,0.252481 2.774205,0.417174 4.168457,0.552912 2.792512,0.224411 5.605632,0.739076 8.283971,1.951068 0.696874,0.31535 1.373095,0.718576 2.059653,1.077866 3.651622,2.127177 6.694732,5.648596 9.300572,9.834635 1.71115,2.915159 3.00271,6.264198 4.13338,9.699126 0.60822,1.651529 1.09726,3.411354 1.80961,4.980931 0.19333,0.425959 0.9009,1.80772 1.10905,2.217555 0.93025,1.955871 1.966,3.797631 2.97665,5.666603 0.56417,1.163176 1.1971,2.257429 1.6969,3.482648 0.47869,1.206852 1.04721,2.335365 1.62658,3.444975 0.56697,0.85997 1.13449,2.1751 1.74315,2.93873 0.21005,0.26353 0.44785,0.47729 0.67179,0.71592 2.7955,2.37431 5.67994,4.53094 8.56329,6.67508 0.92926,0.74039 1.89364,1.38492 2.80913,2.16152 0.13512,0.11457 0.92701,0.84842 1.0979,0.95491 0.30228,0.18837 0.62213,0.31188 0.9332,0.46783 3.04789,1.03943 6.17806,1.46066 9.29205,1.8595 0.98577,0.0791 1.97847,0.30025 2.96747,0.16119 0.14424,-0.0203 0.30318,0.008 0.42992,-0.0934 1.48775,-1.18769 2.92514,-2.50175 4.38771,-3.75263 0.82659,-2.19783 0.53399,-4.78247 0.41835,-7.17102 -0.085,-2.62383 -0.31684,-5.27406 -0.11238,-7.900279 0.0495,-0.634616 0.14506,-1.260003 0.2176,-1.889996 0.76316,-4.529111 2.22238,-8.676268 3.89624,-12.630404 0.57707,-1.164995 1.07282,-2.483841 1.8086,-3.47247 1.02901,-1.382653 2.36417,-2.347474 3.55775,-3.383148 3.59771,-2.977239 -0.13615,0.09896 -0.95879,0.861551 -0.3657,0.339014 0.76572,-0.594282 1.14925,-0.889642 0.91122,-0.701776 1.80669,-1.357608 2.75883,-1.934885 6.96984,-4.13662 14.01626,-8.01031 21.10841,-11.690114 2.55565,-1.274549 5.12042,-2.524807 7.7182,-3.611886 0.59956,-0.221127 1.20567,-0.385513 1.80215,-0.623997 0,0 3.73408,-4.117651 3.73408,-4.117651 v 0 c -0.62603,0.212837 -1.22965,0.526614 -1.86841,0.668826 -2.73425,1.159399 -5.40677,2.617709 -8.09412,3.978077 -6.9456,3.742582 -13.8482,7.648832 -20.80941,11.331763 -1.40724,0.75744 -2.71507,1.793767 -4.02336,2.855898 -1.72337,1.399094 -3.44201,2.810166 -5.15964,4.223784 -0.49765,0.409573 -0.99077,0.830494 -1.48617,1.24574 -1.25702,1.104283 -2.62138,2.130227 -3.65741,3.672319 -0.68851,1.024809 -1.14982,2.345432 -1.69485,3.517364 -1.61375,4.061167 -3.039,8.279588 -3.82226,12.846968 -0.0728,0.655702 -0.16745,1.307182 -0.21874,1.967122 -0.20671,2.66063 0.0187,5.33268 0.10562,7.9913 0.0806,2.22249 0.39038,4.84852 -0.69299,6.67858 8.81084,-6.86554 4.47027,-3.03204 3.25189,-2.67161 -1.0002,0.29589 -2.03225,0.0763 -3.03938,0.0481 -3.07912,-0.27293 -6.183,-0.61882 -9.17378,-1.7696 -0.27872,-0.14082 -0.56401,-0.25721 -0.83618,-0.42256 -0.30064,-0.18266 -0.87457,-0.71601 -1.1408,-0.92657 -0.9532,-0.75388 -1.96376,-1.33842 -2.92268,-2.0765 -2.87279,-2.02441 -5.7405,-4.11794 -8.40155,-6.68387 -0.19407,-0.21677 -0.39841,-0.41572 -0.58223,-0.6503 -0.65479,-0.83561 -1.12566,-1.969269 -1.72187,-2.884551 -0.56925,-1.088832 -1.11383,-2.209792 -1.58823,-3.389999 -0.5156,-1.254166 -1.16182,-2.365574 -1.77321,-3.523144 -1.0251,-1.844911 -2.06948,-3.66973 -3.00516,-5.613135 -1.12509,-2.224148 -2.11222,-4.559746 -2.91978,-7.060258 -1.18086,-3.466941 -2.48297,-6.892583 -4.25931,-9.811151 -2.70874,-4.187685 -5.81956,-7.757159 -9.5128,-9.992747 -0.68449,-0.384063 -1.35838,-0.809901 -2.05347,-1.152191 -2.646189,-1.303084 -5.452967,-1.914192 -8.234166,-2.162642 -2.516315,-0.214753 -5.040868,-0.495941 -7.498379,-1.351957 0,0 -4.03984,3.477711 -4.03984,3.477711 z" />
    <path
       style="fill:#280b0b;stroke-width:0.377602"
       id="path67932"
       d="m 84.844369,55.626915 c -0.173495,-0.441181 0.137531,0.466748 0,0 -0.550756,-1.869253 -2.30973,-5.530536 -2.647289,-7.477011 -0.498879,-2.876704 -0.874003,-5.76737 -1.168425,-8.699068 -0.06929,-2.04894 -0.08195,-4.150049 0.662434,-5.987958 0.422547,-1.0433 1.399242,-2.557038 2.053643,-3.292753 0.45188,-0.508031 0.963878,-0.894148 1.445806,-1.341222 -0.698322,0.664767 -1.720218,0.916238 -2.094977,1.994302 -0.272123,0.782824 1.128102,-0.66292 1.713709,-0.89749 1.969803,-0.789033 4.086115,-0.969141 6.118202,-0.769892 0.717931,0.0704 1.429306,0.242361 2.143948,0.363542 3.474458,0.914949 6.858605,2.524393 10.04493,4.713752 0.77668,0.454946 1.43828,1.203903 2.16414,1.788733 0.10989,0.08853 0.2128,0.21163 0.33612,0.248401 0.1867,0.05568 0.3812,0.0149 0.5718,0.02236 2.38118,-1.345685 4.45859,-3.617141 6.60693,-5.594772 0.46818,-0.430963 1.81291,-1.833671 1.40708,-1.287091 -0.50721,0.683117 -2.38103,1.417162 -1.71546,1.702426 0.84238,0.36104 1.63659,-0.923667 2.45489,-1.385502 3.80316,-1.582848 7.74366,-2.433945 11.70557,-2.398325 1.68057,0.01505 2.65088,0.209512 4.27993,0.450285 2.18513,0.432342 3.93709,1.300596 5.64588,3.283271 0.20595,0.229092 0.86144,1.018125 1.1303,1.060062 1.87815,0.292966 5.42952,-0.962444 6.70404,-1.278652 7.40544,-1.837274 5.23343,-1.307321 12.90349,-2.898255 7.22021,-1.282915 14.49187,-1.976519 21.76712,-1.677669 2.44648,0.100482 3.45284,0.240508 5.76431,0.487769 2.81236,0.421229 5.55197,1.453112 8.16496,2.990283 1.17551,0.664248 2.14928,1.733019 3.09504,2.906571 0.81641,0.950437 1.43586,2.14297 1.98838,3.412504 0.50016,1.166088 0.77549,2.470115 1.04775,3.771707 0.27388,1.637584 0.49401,3.291033 0.71327,4.945166 0.19607,1.659273 0.43658,3.302843 0.56828,4.976891 0.0446,1.098246 0.15911,2.22013 0.0392,3.313548 -0.0824,1.136145 -0.52301,2.05462 -0.966,2.962389 -0.3426,0.937752 -0.88086,1.662874 -1.27356,2.552743 -0.40043,0.763178 -0.66585,1.655421 -1.04511,2.432055 l 4.30136,-2.734789 v 0 c 0.3146,-0.827403 0.6769,-1.615117 1.04384,-2.396026 0.43529,-0.838768 0.90359,-1.642208 1.26247,-2.558141 0.43849,-1.005724 0.81927,-2.048651 0.87756,-3.259877 0.0506,-1.146619 -0.0202,-2.296668 -0.11168,-3.436247 -0.16232,-1.67574 -0.41578,-3.32623 -0.60562,-4.995095 -0.2201,-1.682171 -0.43876,-3.364541 -0.71166,-5.03109 -0.29499,-1.351703 -0.58021,-2.715097 -1.11068,-3.92382 -0.58151,-1.323309 -1.22202,-2.57645 -2.0792,-3.564926 -0.9872,-1.234305 -1.97173,-2.405857 -3.2235,-3.0521 -2.72866,-1.517689 -5.5838,-2.547796 -8.50415,-2.901344 -3.46949,-0.192995 -6.93598,-0.316059 -10.40879,-0.188943 -4.20107,0.153772 -6.99057,0.419457 -11.23778,0.980885 -2.19244,0.289811 -4.37958,0.657145 -6.56937,0.985719 -21.25677,4.145872 7.0072,-1.396394 -12.57432,2.532938 -1.41904,0.284753 -2.83822,0.571035 -4.26146,0.808202 -0.56016,0.09334 -1.12434,0.238391 -1.68694,0.183024 -0.27842,-0.0274 -0.88498,-0.734136 -1.08653,-0.946901 -1.89569,-2.175338 -3.56921,-2.942572 -5.99498,-3.399818 -1.6356,-0.204971 -2.75124,-0.389886 -4.42647,-0.393931 -3.97676,-0.0095 -7.92142,0.802431 -11.77134,2.214892 -4.2299,2.247626 -2.3156,1.04614 -8.22799,5.782147 -0.49683,0.397971 -0.96228,0.87225 -1.44249,1.310514 -0.42965,0.392135 -1.74256,1.506748 -1.28707,1.180672 1.99367,-1.427218 4.30316,-3.600842 2.56629,-1.984032 -0.1265,0.10363 -0.23493,0.286923 -0.37951,0.310887 -0.0806,0.01336 -0.6817,-0.462532 -0.70599,-0.482005 -0.6306,-0.505435 -1.23655,-1.078518 -1.91863,-1.440515 -3.2983,-2.084993 -6.75578,-3.65798 -10.2819,-4.714503 -0.719861,-0.141715 -1.435681,-0.335529 -2.159561,-0.425126 -2.020963,-0.250137 -4.194072,-0.159836 -6.172506,0.541855 -2.556509,0.906707 -5.105263,3.480885 -7.215392,5.1324 -0.481674,0.49062 -0.995753,0.921153 -1.445029,1.471864 -0.692006,0.848239 -1.594608,2.400488 -2.00853,3.56753 -0.6937,1.955874 -0.60895,4.12777 -0.496892,6.240302 0.36641,2.912994 0.817244,5.785687 1.298041,8.664436 0.202385,1.211786 1.455981,6.098154 1.745017,7.402149 0.12429,0.560733 -0.153853,-0.545312 0,0 z"
       sodipodi:nodetypes="csscsscsssccsscssscsccsscsccccccccccccsccccccccccsscsssccscssscssccsscsscsscc" />
    <path
       style="fill:#550000;stroke-width:0.293904"
       id="path68536"
       d="m 102.45705,34.840983 c -0.78513,0.03976 -1.57076,0.04384 -2.35617,0.05481 -1.676577,0.129967 -3.323096,0.753099 -4.924067,1.576027 -2.115001,1.553149 -4.213367,3.392754 -5.958369,5.969317 -0.569724,0.901823 -1.024568,1.992638 -1.478469,3.061444 -0.353757,0.828726 -0.707513,1.657112 -1.084954,2.456007 -0.227405,0.594858 -0.421428,1.224342 -0.639169,1.830096 -0.249046,0.589102 -0.529227,1.133211 -0.749718,1.756298 -0.0376,0.09875 -0.07094,0.202806 -0.113085,0.296272 -0.185819,0.412258 -0.07464,0.05806 -0.237967,0.492146 -0.105284,0.279715 -0.176738,0.592706 -0.247104,0.900047 -0.07139,0.328571 -0.105845,0.672252 -0.13917,1.015913 0,0 3.026,-2.485791 3.026,-2.485791 v 0 c 0.04243,-0.307197 0.08665,-0.613353 0.169397,-0.898635 0.173427,-0.573917 0.413056,-1.063975 0.61754,-1.605855 0.247407,-0.59493 0.527432,-1.151022 0.745801,-1.779326 0.202667,-0.597787 0.398969,-1.207105 0.645276,-1.757216 0.356922,-0.807299 0.701296,-1.630047 1.05017,-2.447294 0.454642,-1.034292 0.902571,-2.094325 1.49085,-2.927353 0.331892,-0.463277 0.371727,-0.535529 0.742377,-0.976727 0.155042,-0.184558 0.638541,-0.689912 0.471983,-0.536795 -4.503628,4.139942 -1.842766,1.776637 -0.84563,0.961343 1.557376,-0.879867 3.162994,-1.550586 4.81196,-1.64512 0.75569,0.01075 1.511637,0.01398 2.267012,0.05483 0,0 2.735446,-3.364454 2.735446,-3.364452 z" />
    <path
       style="fill:#550000;stroke-width:0.377602"
       id="path68538"
       d="m 86.19488,53.708833 c -0.489942,-1.550332 -0.770157,-3.213232 -1.035815,-4.866465 -0.294717,-1.797279 -0.527981,-3.615563 -0.686435,-5.448181 -0.137128,-1.285492 -0.07936,-2.569229 -0.0119,-3.857141 0.0752,-1.21125 0.107305,-2.427082 0.135063,-3.642179 0.05702,-0.557815 -0.03906,-1.148486 0.0202,-1.704026 0.0079,-0.07889 0.185606,-0.809113 0.187323,-0.816372 0.185303,-0.917977 0.566548,-1.71175 0.811003,-2.594725 0.0422,-0.09959 0.06241,-0.227641 0.126588,-0.298804 0.07094,-0.07874 0.331309,-0.191167 0.254781,-0.123932 -1.208827,1.062122 -2.451416,2.043455 -3.656987,3.113228 -0.130389,0.1157 0.28154,-0.174838 0.426374,-0.246528 0.325008,-0.160864 0.686731,-0.278316 1.019353,-0.39692 0.895297,-0.343452 1.808688,-0.550065 2.723505,-0.745551 0.524984,-0.103691 1.005182,-0.412074 1.485539,-0.71404 0.437491,-0.274827 0.909002,-0.353125 1.380054,-0.398416 0.625532,-0.103476 1.225966,0.05879 1.827208,0.292968 0.735946,0.336225 1.44107,0.790707 2.168586,1.163356 0.60296,0.317709 1.198803,0.652221 1.747505,1.136533 0.426446,0.462018 0.934257,0.696665 1.418924,0.995487 0.480491,0.308501 0.919418,0.722989 1.372982,1.101383 0.247542,0.197906 0.5265,0.321345 0.763737,0.547238 0.116543,0.111001 0.08946,0.09528 0.03985,0.08081 -1.278541,-1.625378 -0.130405,-0.05802 3.791282,-3.566857 0.0518,-0.04638 -0.11892,0.05091 -0.17991,0.04907 -0.0942,-0.0028 -0.77072,-0.168178 -0.79203,-0.174063 -0.17561,-0.04847 -0.34956,-0.108559 -0.52435,-0.162834 -0.85977,-0.239921 -1.681908,-0.637958 -2.498299,-1.082278 -0.797062,-0.382455 -1.632848,-0.557043 -2.46365,-0.707787 -0.627822,-0.113688 -1.259999,-0.139473 -1.891884,-0.149255 -0.574764,-0.0055 -1.14872,-0.0318 -1.720443,0.06389 -0.668094,0.164376 -1.346975,0.182914 -2.016675,0.324336 -0.584384,0.124515 -1.149933,0.367968 -1.732038,0.511407 -0.610424,0.114149 -1.193786,0.387664 -1.759154,0.728462 -1.650841,1.25241 -0.412147,0.306203 -4.427209,3.725136 -0.252405,0.214932 -0.503006,0.38824 -0.714361,0.686078 -0.364581,0.716852 -0.482719,1.615938 -0.564844,2.478986 -0.08919,0.895928 -0.0701,1.424889 0.161625,2.260309 0.205083,0.681458 0.379087,1.380717 0.577598,2.06669 1.199815,3.911493 -0.160463,2.829983 4.81729,-1.277875 -0.101917,-2.145324 -0.155929,-4.294278 -0.191128,-6.443759 0.03334,-1.16632 -0.103376,-2.360904 0.01998,-3.519342 0.162079,-0.466217 0.421855,-0.827084 0.716066,-1.123451 0.07666,-0.07728 0.321948,-0.275501 0.241133,-0.207426 -1.252814,1.055317 -2.504753,2.112773 -3.757131,3.169159 0.428489,-0.386631 0.921709,-0.473609 1.414782,-0.521224 0.541788,0.01 1.082284,0.147382 1.618459,0.259549 0.637227,0.156771 1.234788,0.526569 1.829699,0.877575 0.634703,0.364137 1.239885,0.825078 1.820486,1.341744 0.635331,0.545246 1.325874,0.939551 2.023185,1.285707 0.57335,0.301088 1.187658,0.514836 1.724507,0.942653 -1.357213,-1.87672 -0.03356,0.257842 3.038897,-3.61975 0.224296,-0.283066 -0.596393,0.02706 -0.894534,0.0178 -1.041057,-0.03239 -2.066736,-0.230564 -3.096377,-0.434989 -1.193169,-0.253644 -2.357918,-0.746103 -3.55561,-0.954157 -0.308703,-0.0106 -0.671698,-0.07021 -0.955449,0.164359 -2.789806,2.306242 -3.773405,1.69009 -4.491224,4.453211 -0.194551,0.884399 -0.18079,1.812407 -0.186021,2.728531 -0.01291,1.024792 0.01347,2.049003 0.01886,3.073586 0.01122,1.171053 0.0022,2.342089 -0.0067,3.513078 -0.01875,0.691852 0.01605,1.387692 -0.02705,2.077999 -0.526208,2.154562 -0.09765,0.371634 3.971257,-3.471996 0.04725,-0.04455 -0.103937,-0.13998 -0.153774,-0.10194 -2.745122,2.094262 -3.63025,1.433377 -4.319334,3.875253 -0.775233,3.762038 0.710736,0.918587 4.119182,-1.555646 0.327605,-2.37758 0.719525,-4.736694 1.025107,-7.122831 0.247788,-1.159157 0.07633,-2.476154 0.418903,-3.589191 0.226889,-0.652674 0.497328,-1.375004 0.911573,-1.813377 1.626855,-0.88624 0.08362,-0.06877 -3.494851,3.004197 -0.08014,0.0688 0.172091,-0.104443 0.260752,-0.146122 0.258822,-0.121628 0.525163,-0.168093 0.794098,-0.212198 0.501548,-0.05942 1.005375,-0.04876 1.508101,-0.0446 0.434269,0.03962 0.879359,-0.05825 1.309307,0.05307 -0.03098,-0.04877 0.147578,0.09257 0.111682,0.141961 -0.04827,0.06633 -0.12954,-0.0458 -0.194596,-0.06693 -0.04995,-0.01626 -0.196123,0.0088 -0.152258,-0.02922 1.28504,-1.114089 2.602496,-2.14876 3.903732,-3.22314 -0.457245,0.188985 -0.928286,0.250321 -1.382736,0.469239 -1.753319,1.389845 -4.343154,2.665386 -5.487778,5.413105 -0.3615,0.781315 -0.542998,1.689951 -0.815895,2.534146 -0.05231,0.19641 -0.328514,1.26279 -0.311049,1.420937 0.01538,0.139519 0.04209,0.439641 0.130854,0.379578 1.464706,-0.990962 2.840618,-2.23395 4.260934,-3.350927 0.239808,-0.877148 0.552394,-1.698922 0.861007,-2.526262 0.29731,-0.466268 0.418948,-1.098581 0.734913,-1.536812 -0.200702,-0.02706 0.715697,-0.604052 0.502682,-0.423401 -1.267934,1.07528 -5.040522,4.36856 -3.82267,3.179222 1.403176,-1.370337 2.947655,-2.416396 4.383942,-3.713651 -7.292682,6.240356 -4.478855,3.058797 -2.789874,2.745279 0.179847,-0.0023 0.375162,-0.08265 0.55401,-0.0088 0.05724,0.02371 0.187682,0.139826 0.04355,0.131932 -0.04232,-0.01972 -0.08239,-0.05991 -0.126847,-0.05911 -0.04759,9.06e-4 -0.176626,0.09918 -0.13578,0.06392 6.629089,-5.717382 4.812117,-3.813111 3.240318,-2.855801 -1.824156,1.142015 -3.670031,2.593975 -5.204194,4.46948 -0.361357,0.531472 -0.703766,1.10252 -1.146252,1.498593 -0.229661,0.153808 -0.350614,0.485049 -0.569835,0.659871 -0.05522,0.04406 -0.233635,0.135419 -0.178456,0.09125 4.104422,-3.284212 3.20486,-1.319227 4.095881,-3.312103 0.09339,-1.788978 0.441015,-3.521335 0.712947,-5.265216 0.02133,-0.578291 0.269631,-1.224079 0.187278,-1.816182 -0.321207,-2.309444 -3.301491,1.695652 -4.844925,3.020646 -0.858987,1.841667 -1.485193,3.860471 -2.093147,5.888842 -0.41475,1.395952 -0.637823,2.880325 -0.845338,4.361905 -0.194507,1.061589 -0.31995,2.145864 -0.396354,3.23735 -0.0022,0.786046 -0.223005,1.504003 -0.366272,2.247295 -0.132105,0.62906 -0.294552,1.222607 -0.361032,1.88094 -0.209032,0.57558 -0.217653,1.13538 -0.09468,1.748001 0.114731,0.561223 0.231567,1.112105 0.398755,1.64649 1.066841,2.374014 2.15633,-0.923603 4.320964,-3.155479 0.01122,-0.0106 -0.298332,-1.290038 -0.310679,-1.343548 -0.300878,-1.211422 -0.819958,-2.261736 -1.249906,-3.376826 -0.426413,-1.500405 -0.776645,-3.043364 -1.157711,-4.568449 -0.23176,-1.316635 -0.758967,-2.507931 -0.953664,-3.833579 -0.02975,-1.034149 0.15439,-1.661431 0.481467,-2.552473 0.352489,-1.010367 0.74084,-1.987937 1.135521,-2.962994 0.21645,-0.411854 0.177715,-0.979416 0.341646,-1.417557 0.04232,-0.113028 0.272516,-0.488622 0.32179,-0.571461 0.315707,-0.744473 0.665861,-1.463585 1.05934,-2.129306 0.431138,-0.630606 0.854251,-1.298441 1.337267,-1.848112 0.285143,-0.343743 0.02772,-0.983632 -0.290508,-1.091757 -0.156972,-0.05334 -0.343554,0.03405 -0.491783,0.08179 -0.233814,0.09743 -0.491682,0.182273 -0.70593,0.357831 -1.408306,1.153917 -2.805309,2.336217 -4.210077,3.498991 -1.265443,1.047439 5.042315,-4.237599 3.792049,-3.152988 -1.402009,1.216268 -2.831607,2.365345 -4.247407,3.548017 8.59744,-7.172292 1.126841,-0.949761 -0.473767,0.428112 -0.318151,0.273878 -0.542131,0.784093 -0.801883,1.151916 -0.493624,0.685646 -0.815572,1.592261 -1.084102,2.491656 -0.268596,0.843185 -0.600709,1.690959 -0.583275,2.639391 0.02951,0.110325 0.03887,0.236832 0.08854,0.33097 1.199352,2.273718 4.620725,-2.965989 5.898918,-4.837939 0.66393,-1.01347 1.273378,-2.110877 1.990421,-3.051135 0.219031,-0.287221 0.659036,-0.760326 0.900853,-1.026228 1.923805,-1.602759 -1.957421,1.629495 -3.148165,2.654889 -0.106968,0.09213 0.224464,-0.156788 0.339884,-0.224596 0.296097,-0.17398 0.59508,-0.26522 0.908284,-0.344413 0.836638,-0.138797 1.679843,-0.10793 2.517728,-0.01769 0.811183,0.08125 1.612656,0.305427 2.410537,0.524565 0.724228,0.226722 1.442091,0.487036 2.173222,0.665226 0.105845,0.02107 0.211657,0.04214 0.317491,0.0632 0,0 3.809886,-3.892773 3.809886,-3.892773 v 0 c -0.104723,-0.01336 -0.209547,-0.0268 -0.314315,-0.04021 -0.731063,-0.129184 -1.443326,-0.362642 -2.155161,-0.629197 -0.811856,-0.276605 -1.65312,-0.415831 -2.480129,-0.556709 -0.842655,-0.117482 -1.685647,-0.202579 -2.533095,-0.135527 -2.324335,0.224929 -4.259352,2.555789 -6.126261,4.406727 -1.031749,1.243044 -1.900672,2.713838 -2.826773,4.113318 -0.358589,0.492647 -0.634957,0.900699 -1.025204,1.333638 -0.125218,0.138905 -0.534249,0.484628 -0.393524,0.380991 1.27146,-0.936351 4.209033,-4.678113 3.857319,-2.684664 -0.0045,0.0282 -0.0128,-0.05516 -0.01931,-0.08276 0.07464,-0.847951 0.41026,-1.597149 0.635982,-2.373878 0.3008,-0.850956 0.659777,-1.64818 1.159843,-2.287803 0.197504,-0.2952 0.393581,-0.569543 0.624298,-0.811711 0.07184,-0.07534 0.297904,-0.278333 0.220715,-0.215043 -0.840804,0.689368 -9.942462,8.252253 0.476966,-0.402778 -9.784626,8.12225 0.165032,-0.138198 0.473969,-0.389362 1.281605,-1.041835 -2.544431,2.130935 -3.824162,3.177494 -0.293534,0.240051 0.842341,-0.788543 0.628821,-0.508573 0.0779,-0.03021 0.450107,-0.102908 0.431777,-0.342123 -0.01122,-0.136679 -0.05882,-0.410443 -0.146107,-0.354797 -0.04972,0.0317 -0.08138,0.104045 -0.121952,0.156087 -0.43721,0.630466 -0.899282,1.229363 -1.283109,1.932165 -0.379082,0.698997 -0.711838,1.444092 -1.061867,2.173251 -0.278015,0.650096 -0.37194,1.392428 -0.640997,2.050115 -0.387505,0.977977 -0.724113,1.995668 -1.098468,2.984088 -0.311556,0.953973 -0.483113,1.918439 -0.343687,2.97699 0.246616,1.329942 0.775898,2.518055 1.052299,3.839331 0.396126,1.564558 0.683943,3.183117 1.121418,4.723657 0.420961,1.065981 0.97072,2.041066 1.195098,3.247685 0.0264,0.148165 0.133485,0.704443 0.13949,0.891282 0.0011,0.03851 -0.05861,0.123225 -0.03545,0.103859 1.176594,-0.983661 3.517843,-5.585759 4.103704,-3.071198 0.0034,0.01305 -0.01908,-4.53e-4 -0.02851,-9.06e-4 -0.180124,-0.468908 -0.251522,-0.995584 -0.358736,-1.504257 -0.05803,-0.527325 0.1091,-0.981012 0.179028,-1.491166 0.100233,-0.615744 0.276226,-1.196421 0.370982,-1.814948 0.161237,-0.766819 0.304886,-1.537637 0.314809,-2.345917 0.07801,-1.068504 0.214396,-2.122195 0.397072,-3.16417 0.203194,-1.420379 0.388092,-2.850752 0.802618,-4.184743 0.58738,-2.008897 1.217783,-4.05233 2.243945,-5.684866 -1.237022,0.957556 -2.441673,2.007492 -3.711089,2.872665 -0.07958,0.05426 0.01336,-0.257007 0.04602,-0.374754 0.04086,-0.146952 0.04119,0.315834 0.02885,0.473162 -0.02447,0.313397 -0.107979,0.958021 -0.143919,1.249987 -0.251952,1.830945 -0.610071,3.646554 -0.703806,5.511836 0.04669,0.249196 -0.02885,0.833466 0.140046,0.747577 2.631922,-1.337739 3.410464,-2.028611 5.008281,-3.818267 0.383995,-0.494588 0.731299,-1.045733 1.135767,-1.506918 0.19399,-0.202029 0.379798,-0.405837 0.582914,-0.587805 0.06791,-0.06088 0.272515,-0.241646 0.202969,-0.184619 -3.650972,2.994485 -5.07535,4.279968 -3.624224,2.975356 1.830026,-0.87827 2.631544,-1.925304 4.824958,-3.853342 0.05275,-0.04639 0.08542,-0.137277 0.102366,-0.222942 0.0202,-0.102186 0.0034,-0.212462 0.0045,-0.318693 -0.141932,-0.719698 -0.503299,-1.141824 -1.039979,-1.063145 -2.137203,0.13052 -3.214705,1.673246 -5.35908,3.736958 -0.06061,0.06075 -0.246216,0.234956 -0.182024,0.182244 1.279371,-1.050631 5.111649,-4.217112 3.828293,-3.176595 -1.108728,0.898935 -3.558494,2.126744 -4.661352,4.162618 -0.22268,0.54358 -0.457942,1.075632 -0.674713,1.624139 -0.304617,0.828264 -0.543527,1.712754 -0.916545,2.484099 1.363258,-0.995608 2.692095,-2.09578 4.089816,-2.986816 0.07352,-0.0469 0.009,0.289467 0.0862,0.324635 0.06005,0.02757 0.02671,-0.177559 0.044,-0.264934 0.07071,-0.360612 0.169577,-0.707495 0.273705,-1.050286 0.236171,-0.830097 0.458806,-1.677135 0.837728,-2.4 0.224688,-0.389851 0.453407,-0.749793 0.727954,-1.069778 0.09574,-0.111646 0.403189,-0.406221 0.295615,-0.319659 -3.352472,2.697769 -4.915437,4.265357 -3.482887,2.840959 0.413571,-0.33597 0.853834,-0.511933 1.331003,-0.502238 2.069576,-1.651022 5.389037,-2.777176 3.965657,-4.750958 -0.44436,-0.350302 -0.93071,-0.23453 -1.423054,-0.248274 -0.512323,-0.0051 -1.024826,-0.01662 -1.537049,0.0035 -2.13957,0.143312 -4.088428,1.701084 -5.65598,3.946863 -0.337359,0.645594 -0.664312,1.325475 -0.821094,2.110951 -0.169083,1.177693 -0.102141,2.404957 -0.273054,3.586156 -0.259675,2.395725 -0.572508,4.812685 -1.216089,7.063849 6.515742,-4.176383 3.925851,-0.440814 4.199714,-2.927405 0.04187,-0.380524 0.113085,-0.757321 0.274558,-1.070948 1.021908,-1.474484 6.25798,-3.670832 -3.772123,2.955666 -0.03098,0.02402 -6.28e-4,-0.120277 0.02952,-0.146215 1.373555,-1.176913 4.927634,-1.42493 4.146353,-3.467801 -0.04624,-0.676595 -0.0056,-1.360292 -0.02739,-2.038646 -0.009,-1.1663 -0.02076,-2.332598 -0.01538,-3.499025 -1.91e-4,-1.025417 0.01201,-2.050681 0.0056,-3.076119 0.01515,-0.836258 0.02806,-1.698596 0.287601,-2.465678 0.852252,-1.830957 3.98301,-3.460305 -3.423697,2.527757 -0.08575,0.06934 0.156321,-0.173264 0.241267,-0.244667 0.281899,-0.236946 0.253524,-0.17777 0.586078,-0.213318 1.238365,-0.01626 2.447023,0.580524 3.671766,0.773412 1.031572,0.192405 2.061528,0.402721 3.098982,0.520301 0.288948,0.03277 0.598649,0.229074 0.868,0.07487 1.61508,-0.924634 3.207318,-1.970857 4.696787,-3.260751 0.145108,-0.125667 -0.06993,-0.477244 -0.104835,-0.715867 -0.561015,-0.476318 -1.210095,-0.689303 -1.812954,-1.031633 -0.676008,-0.279736 -1.329982,-0.661427 -1.948173,-1.146362 -0.590344,-0.558978 -1.221758,-1.036402 -1.876922,-1.417167 -0.602836,-0.394041 -1.217458,-0.79665 -1.861735,-1.020691 -0.550059,-0.191578 -1.124038,-0.196225 -1.675164,-0.39506 -0.523233,0.01152 -1.054469,0.027 -1.554345,0.277182 -0.185381,0.155519 -4.028699,2.441446 -4.829496,4.523066 -0.153012,0.397745 -0.135956,0.440163 -0.202838,0.881604 -0.02888,1.176827 0.06928,2.35223 0.103567,3.527085 0.04564,1.111308 0.09249,2.222637 0.111581,3.33575 0.01044,0.610177 0.02772,1.680589 -0.02349,2.308093 -0.01806,0.221432 -0.07116,0.433975 -0.106743,0.650968 1.361275,-1.013965 2.714952,-2.04941 4.083838,-3.041895 0.0229,-0.01662 -0.01482,0.132823 -0.02974,0.102508 -0.21086,-0.433827 -0.308882,-1.441104 -0.518732,-1.921381 -0.177221,-0.699733 -0.349223,-1.400543 -0.552697,-2.085478 -0.166446,-0.635207 -0.145658,-1.262724 -0.06095,-1.929473 0.103825,-0.771082 0.248282,-1.559508 0.726595,-2.02381 0.185684,-0.153048 0.365992,-0.301856 0.540429,-0.48059 0.05837,-0.05985 0.237563,-0.230613 0.175257,-0.179562 -6.964064,5.705365 -4.914411,4.049045 -3.587761,2.978029 0.506301,-0.472722 1.077855,-0.71709 1.662351,-0.910709 0.592734,-0.104474 1.166084,-0.303399 1.743576,-0.505336 0.664801,-0.183073 1.331459,-0.244202 2.005132,-0.336613 0.55941,-0.13055 1.112803,-0.176586 1.68108,-0.142498 0.629213,0.0013 1.25919,0.0034 1.887023,0.07138 0.807164,0.101925 1.609086,0.257995 2.387898,0.591766 0.849446,0.407011 1.679743,0.881868 2.568632,1.096864 0.417275,0.161822 0.855136,0.271617 1.267889,0.452677 0.08575,0.03761 0.169543,0.205506 0.249101,0.145985 4.297815,-3.216248 4.514735,-1.213624 4.124095,-3.819898 -0.20618,-0.570437 -0.61467,-0.817197 -1.02072,-1.0245 -0.48407,-0.340279 -0.91487,-0.818265 -1.40513,-1.146633 -0.464478,-0.275339 -0.941871,-0.529696 -1.372829,-0.900307 -0.56336,-0.539204 -1.188735,-0.895057 -1.815491,-1.251398 -0.732735,-0.38816 -1.477391,-0.726178 -2.192549,-1.183873 -0.610873,-0.291617 -1.239144,-0.57134 -1.889683,-0.506979 -0.49386,0.0152 -0.993017,0.03454 -1.472116,0.22682 -0.497732,0.237052 -0.942204,0.658918 -1.457895,0.822189 -0.909261,0.341464 -1.87086,0.370916 -2.772915,0.781168 -2.217451,0.661574 -5.085494,1.672164 -6.093477,4.791328 -0.279034,0.867238 -0.593639,1.714809 -0.770176,2.642612 -0.177897,0.887103 -0.162854,1.772623 -0.152741,2.691049 -0.01272,1.19852 -0.04776,2.395649 -0.116371,3.590497 -0.06909,1.330959 -0.111705,2.649737 0.07628,3.968783 0.19618,1.840743 0.45182,3.669704 0.722287,5.490068 0.281127,1.699379 0.624732,3.374129 0.979534,5.044012 0,0 4.095232,-3.312747 4.095232,-3.312747 z" />
    <path
       style="fill:#550000;stroke-width:0.377602"
       id="path68575"
       d="m 174.01478,29.078358 c 0.17041,-0.02721 0.33991,-0.07097 0.5112,-0.08167 0.72696,-0.04543 1.52236,0.08096 2.23278,0.292609 0.57616,0.171644 0.89986,0.354604 1.45646,0.623245 0.70425,0.391913 1.36572,0.912468 1.99091,1.5192 0.18744,0.181904 0.36585,0.382469 0.55126,0.568625 1.16355,1.16819 0.0859,0.03638 1.26676,1.297991 0.74809,0.838492 1.42047,1.812861 1.99622,2.897367 0.18497,0.348377 0.29056,0.589052 0.45379,0.944014 0.42935,0.795214 0.93352,1.503917 1.35507,2.307917 0.41546,0.792401 0.53048,1.134655 0.87993,1.995171 0.48406,1.215595 0.83686,2.523145 1.1146,3.862935 0.0621,0.299548 0.12611,0.598782 0.17466,0.903474 0.0493,0.309304 0.0791,0.624395 0.11857,0.93659 0.16353,1.070321 0.31836,2.147092 0.42369,3.233171 0.10046,1.035602 0.15545,2.083002 0.21385,3.124781 0.0112,0.892555 -0.008,1.791028 -0.09,2.677058 -0.0198,0.213221 -0.0482,0.424601 -0.0716,0.637058 -0.001,0.01662 -0.0421,0.457988 -0.0425,0.488057 -0.001,0.08774 0.008,0.175093 0.0119,0.262745 0.008,0.25476 0.0129,0.509448 0.0122,0.764452 0.0112,0.263761 -0.015,0.528721 -0.0119,0.792034 6.4e-4,0.04232 0.0159,0.258398 0.0195,0.310201 0.0386,0.197189 0.0718,0.394488 0.0799,0.599331 -0.002,0.179781 0.0283,0.358912 0.0754,0.524574 0.0541,0.165489 0.0927,0.330054 0.1064,0.512358 -0.004,0.250033 0.0713,0.471942 0.15319,0.686002 0.0196,0.04358 0.0393,0.08717 0.0589,0.130751 0,0 4.02452,-3.426101 4.02452,-3.426101 v 0 c -0.009,-0.01559 -0.0201,-0.03108 -0.0301,-0.04662 -0.0561,-0.165471 -0.0445,-0.341437 -0.0744,-0.518361 -0.0349,-0.202124 -0.0834,-0.398126 -0.12153,-0.598831 -0.0136,-0.138552 -0.0366,-0.274288 -0.0438,-0.414632 -0.0275,-0.193585 -0.0724,-0.379544 -0.10225,-0.571953 -0.0369,-0.327604 -0.0423,-0.660745 -0.0605,-0.99112 -0.0227,-0.484085 0.002,-0.962313 0.004,-1.446347 -0.0155,-0.345886 -0.0542,-0.674053 -0.0973,-1.01524 -0.0855,-0.677003 -0.17231,-1.353829 -0.24358,-2.034337 -0.19461,-2.142147 -0.47338,-4.266957 -0.63464,-6.415659 -0.0428,-0.305515 -0.22738,-1.659468 -0.289,-1.947703 -0.16341,-0.764268 -0.30456,-1.014334 -0.57456,-1.712001 -0.42903,-1.108547 -0.34869,-0.90849 -0.76491,-2.076265 -0.30444,-0.812531 -0.49163,-1.300907 -0.78205,-2.11998 -0.32328,-0.911762 -0.61117,-1.866826 -1.05647,-2.674137 -0.3756,-0.45381 -0.76543,-0.882813 -1.13839,-1.341107 -0.59185,-0.727226 -1.16206,-1.491263 -1.74607,-2.231287 -0.13584,-0.16393 -1.03321,-1.253826 -1.19181,-1.418332 -0.19312,-0.200315 -0.40101,-0.369429 -0.60426,-0.547757 -0.66665,-0.584905 -1.3441,-1.153874 -2.06454,-1.592134 -0.24672,-0.131534 -0.48864,-0.283513 -0.74015,-0.394637 -0.25067,-0.110771 -0.51009,-0.175504 -0.76397,-0.269936 -0.2495,-0.0928 -0.49622,-0.200834 -0.74606,-0.291723 -0.28638,-0.104168 -0.85232,-0.261793 -1.15273,-0.417796 -0.0922,-0.04787 -0.17405,-0.129798 -0.26107,-0.194702 0,0 -3.78637,3.89865 -3.78637,3.89865 z" />
    <path
       style="fill:#550000;stroke-width:0.377602"
       id="path68577"
       d="m 179.55027,28.536125 c 0.9537,-0.116714 1.91265,0.03197 2.84546,0.324879 0.18527,0.05816 0.36813,0.131273 0.55218,0.196898 0.84264,0.29694 1.66472,0.703743 2.46368,1.18848 0.20796,0.159717 0.42724,0.296579 0.62849,0.474342 0.23688,0.209222 0.4599,0.464481 0.68158,0.704403 0.3741,0.370316 0.67578,0.858123 0.9927,1.319299 0.25064,0.351556 0.13138,0.179762 0.35842,0.514433 0.28415,0.399848 0.57481,0.789006 0.85679,1.19229 0.22115,0.331583 0.41028,0.699795 0.59107,1.077392 0.0919,0.204118 0.18294,0.414481 0.31805,0.566851 0.0934,0.105257 0.1456,0.130243 0.25244,0.203194 0.28133,0.175971 0.58348,0.276761 0.88969,0.285702 0.0663,-0.0061 0.1328,-0.01044 0.19907,-0.0184 0.0918,-0.0109 0.18309,-0.0309 0.27507,-0.03805 0.3703,-0.02883 0.73369,0.01844 1.09653,0.120323 0.29183,0.10257 0.57328,0.25335 0.83529,0.46434 0.24048,0.225838 0.48739,0.520631 0.66921,0.843031 0.043,0.07623 0.0796,0.159579 0.11931,0.239376 0.0962,0.22669 0.19056,0.455537 0.26055,0.702062 0.0336,0.118204 0.0487,0.246142 0.0826,0.364158 0.0385,0.134283 0.0857,0.263116 0.12854,0.394673 0.26266,1.278495 0.27296,2.623562 0.32876,3.94468 0.009,0.170164 0.0145,0.34097 0.0285,0.510484 0.0285,0.344394 0.0769,0.641421 0.11956,0.982301 0.0532,0.425719 0.10371,0.85247 0.14735,1.280409 0.008,0.104013 0.0112,0.209416 0.0257,0.31204 0.0158,0.111585 0.0451,0.218344 0.065,0.328537 0.0925,0.510821 0.18209,1.017416 0.29472,1.520345 0.13381,0.723554 0.19466,1.472776 0.20236,2.220416 0.0195,0.503261 -0.007,1.002599 -0.0612,1.499232 -0.0208,0.180711 -0.0316,0.367292 -0.0841,0.536701 -0.008,0.02697 -0.0221,0.04968 -0.0333,0.07454 -0.008,0.02976 -0.0174,0.05952 -0.026,0.08929 -0.009,0.02872 -0.0215,0.05596 -0.0282,0.08628 -0.031,0.141915 -0.0145,0.164068 -0.0305,0.325297 -0.0208,0.208433 -0.0643,0.415753 -0.10135,0.61893 -0.0301,0.215743 -0.0823,0.419633 -0.13304,0.625858 -0.0165,0.0674 -0.0269,0.137907 -0.0457,0.204159 -0.0112,0.03951 -0.095,0.262899 -0.11123,0.306205 -0.13345,0.296493 -0.16378,0.434895 -0.40449,0.55525 -0.0549,0.07547 -0.1419,0.130797 -0.1843,0.225272 -0.0532,0.118526 -0.0763,0.26029 -0.12179,0.38536 -0.0367,0.101249 -0.0783,0.198631 -0.11761,0.297949 -0.17945,0.356611 -0.35176,0.736123 -0.60325,0.998112 -0.12975,0.135173 -0.16945,0.147228 -0.31307,0.237391 1.25501,-1.048099 2.51103,-2.093732 3.76505,-3.1443 0.0484,-0.04056 -0.0972,0.08076 -0.14816,0.114211 -0.1484,0.09739 -0.30962,0.142867 -0.4695,0.179154 -0.0705,0.03663 -0.15537,-0.0014 -0.22583,0.02764 -0.0506,0.02093 -0.0281,0.0805 -0.0973,0.06743 -0.0355,-0.0068 -0.066,-0.0391 -0.0991,-0.05866 -0.0501,-0.06266 -0.10596,-0.116929 -0.15038,-0.187951 -0.13152,-0.210312 -0.32971,-0.673477 -0.39387,-0.890597 -0.0776,-0.262537 -0.12237,-0.542761 -0.18205,-0.814836 -0.26704,-1.217589 -0.17016,-0.738649 -0.38467,-1.996539 -0.0541,-0.332117 -0.10865,-0.664094 -0.16232,-0.996355 -0.0504,-0.311959 -0.0954,-0.625804 -0.14997,-0.93631 -0.2944,-1.675103 -0.0556,-0.145847 -0.33804,-1.786089 -0.10641,-0.618061 -0.13147,-0.851177 -0.21034,-1.452913 -0.26155,-0.865624 -0.35568,-1.101604 -0.53801,-2.082103 -0.0836,-0.44952 -0.14422,-0.90747 -0.20463,-1.364635 -0.16362,-1.238442 -0.249,-2.482956 -0.3279,-3.736698 -0.0509,-0.74659 -0.1188,-1.490517 -0.19417,-2.232697 -0.002,-0.01909 -0.0654,-0.704371 -0.10326,-0.767924 -0.11488,-0.193419 -0.27915,-0.312283 -0.41873,-0.468423 -0.20095,-0.220911 -0.4145,-0.419875 -0.60286,-0.662729 -0.39804,-0.51323 -0.72358,-1.101546 -1.04492,-1.711354 -0.33448,-0.634728 -0.62665,-1.30085 -0.91326,-1.98083 -0.15934,-0.362598 -0.23451,-0.664999 -0.47653,-0.928672 -0.18537,-0.20196 -0.41128,-0.311721 -0.62344,-0.438546 -0.37823,-0.189175 -0.73898,-0.437814 -1.09442,-0.701079 -0.29021,-0.157112 -0.48875,-0.500464 -0.72944,-0.761562 -0.33758,-0.331817 -0.67823,-0.655618 -0.99943,-1.020805 -0.25127,-0.291603 -0.50432,-0.581596 -0.7689,-0.847974 -0.15005,-0.142498 -0.30577,-0.272027 -0.45671,-0.412136 -0.10798,-0.07295 -0.19816,-0.191859 -0.30782,-0.259205 -0.10697,-0.08652 -0.22478,-0.13938 -0.33458,-0.218046 -0.11702,-0.112552 -0.23188,-0.229622 -0.35251,-0.334262 -0.10125,-0.01714 -0.18443,-0.181037 -0.2895,-0.153018 -0.0578,-0.06898 -0.0581,0.02686 -0.0617,0.02585 -0.0158,-0.0046 -0.12255,-0.156395 -0.13774,-0.174613 -0.0429,-0.0434 -0.0899,-0.07769 -0.14018,-0.09855 -0.006,-0.0026 -0.0129,0.0088 -0.019,0.0057 -0.0761,-0.03896 -0.0137,-0.03667 -0.0559,-0.03543 -1.40425,-1.684597 2.94312,-3.302966 -4.30571,3.016905 -0.0401,0.03495 0.157,0.502298 0.16347,0.518762 0.10742,0.127848 0.2171,0.251632 0.32209,0.383515 0.16963,0.213132 0.34481,0.418622 0.50158,0.651311 0.29741,0.441456 0.68833,1.188434 0.95707,1.664467 0.49812,0.882361 0.4038,0.7102 0.92635,1.532337 0.35306,0.428553 0.6632,0.828296 1.04419,1.203428 0.25555,0.251637 0.66849,0.581565 0.94917,0.796148 0.11896,0.09094 0.23402,0.195743 0.36014,0.263709 0.14178,0.07639 0.29272,0.111278 0.43907,0.166927 0.26316,2.5e-5 0.52633,0.0017 0.78948,7.4e-5 0.61976,-0.0038 1.23239,-0.03004 1.85226,0.01576 0.83497,0.06177 1.66627,0.242132 2.49365,0.405759 0.47092,0.112598 0.94303,0.216708 1.41064,0.356098 0.0686,0.02044 0.14285,0.112614 0.20502,0.06616 4.15341,-3.102429 4.21093,-1.044672 4.03454,-3.637364 -0.0308,-0.10389 -0.0546,-0.212628 -0.0923,-0.311678 -0.0715,-0.187691 -0.1653,-0.316356 -0.25347,-0.485416 -0.12303,-0.235884 -0.22488,-0.486007 -0.31949,-0.746781 -0.12532,-0.318846 -0.21645,-0.660601 -0.32278,-0.99219 -0.0741,-0.220495 -0.20078,-0.365987 -0.33628,-0.500773 -0.11273,-0.121198 -0.2426,-0.176603 -0.37975,-0.204271 -0.17075,-0.01029 -0.34195,-0.006 -0.51282,-0.0023 -0.25061,0.0089 -0.50081,0.02366 -0.75163,0.02253 -0.22923,-0.0051 -0.45854,-0.0066 -0.68771,-0.01725 -0.14404,-0.0083 -0.28813,-0.01351 -0.43227,-0.01609 -0.0471,-0.0086 -0.0281,-3.61e-4 -0.0585,-0.01695 -1.2535,1.330215 -2.5165,2.642079 -3.76051,3.990647 -0.0241,0.02612 0.0602,-0.0069 0.0901,-0.01182 0.16742,-0.02723 0.0465,-0.02195 0.22959,-0.01628 0.18744,-0.01321 0.37331,0.02652 0.55528,0.08884 0.0668,0.02287 0.13144,0.05761 0.19828,0.08018 0.77329,0.261174 -0.28024,-0.136602 0.63933,0.220854 0.44836,0.187414 0.86175,0.501027 1.28567,0.77465 0.1055,0.06806 0.53331,0.328066 0.63209,0.388322 0.4984,0.30999 0.95673,0.722909 1.4019,1.165626 0.20804,0.174676 0.40178,0.376532 0.57897,0.610878 0.1773,0.202993 0.36897,0.374702 0.54642,0.577387 0.12325,0.15833 0.23823,0.329277 0.33587,0.521067 0.1045,0.18102 0.11761,0.419457 0.13508,0.644815 -0.007,0.598089 -0.14602,1.168538 -0.2186,1.75305 -0.001,0.148227 -0.10113,0.545769 -0.0753,0.684091 0.0732,0.392077 0.27413,0.528503 0.50018,0.69615 0.33348,0.205469 0.67857,0.36915 0.98284,0.660917 0.17781,0.170489 0.24936,0.276031 0.40484,0.476226 0.18811,0.247313 0.31089,0.567381 0.45116,0.867509 0.051,0.129798 0.0847,0.276163 0.10439,0.422874 0.0217,0.230628 0.0278,0.462671 0.0266,0.695175 -0.0112,0.281032 0.003,0.561727 0.001,0.842734 -0.001,0.363938 0.007,0.725191 0.0336,1.087312 0.0548,0.46412 0.0629,0.93493 0.055,1.404471 -0.001,0.09924 -0.009,0.198341 -0.008,0.297599 0.001,0.114917 0.0112,0.229387 0.0155,0.34408 0.091,1.115091 0.0532,2.238199 0.0628,3.357554 9.3e-4,0.193432 2.9e-4,0.386886 0.002,0.580296 0.007,0.648123 0.0153,0.443946 0.0112,1.064426 -0.002,0.364411 -0.018,0.727592 -0.0196,1.091999 -0.0458,0.453009 0.06,0.878465 0.11249,1.317223 0.0452,0.275819 0.0699,0.556213 0.15319,0.814973 0.0394,0.07579 0.071,0.161395 0.11809,0.227387 0.046,0.06442 0.10113,0.202569 0.15766,0.158895 1.38845,-1.072613 2.73731,-2.249721 4.08142,-3.433702 0.0428,-0.03767 0.0314,-0.137169 0.0492,-0.204699 0.0613,-0.233357 0.0618,-0.220165 0.13984,-0.440458 0.1188,-0.376359 0.1986,-0.718704 0.2135,-1.131685 0.02,-0.1783 -0.0176,-0.347974 -0.0437,-0.519838 -0.026,-0.172061 -0.0526,-0.326526 -0.0988,-0.49008 -0.11689,-0.321481 -0.24295,-0.636571 -0.36609,-0.953434 -0.0878,-0.263263 -0.1947,-0.511882 -0.30344,-0.75791 -0.14554,-0.273118 -0.24204,-0.581439 -0.33658,-0.894073 -0.0515,-0.193482 -0.13635,-0.361143 -0.17054,-0.564056 -0.004,-0.105549 -0.0309,-0.343088 -0.0121,-0.438947 0.003,-0.01823 0.0166,-0.02924 0.0249,-0.04386 0.0408,-0.122288 -0.0112,-0.0083 0.0587,-0.06436 0.0119,-0.0094 0.0132,-0.0374 0.0256,-0.0449 0.0246,-0.0149 0.0805,0.02195 0.0998,0.02393 0.0204,0.0022 0.041,-0.006 0.0613,-0.0089 -6.57762,10.208978 -5.13752,4.209402 -3.79998,3.176033 0.0698,-0.05389 0.13236,-0.09412 0.19767,-0.161036 0.15957,-0.116268 0.22604,-0.196463 0.41073,-0.153263 0.14788,0.03472 0.21431,0.233306 0.28331,0.402985 0.0555,0.123471 0.0567,0.259017 0.059,0.400371 0.0192,0.27132 0.0112,0.537076 -0.0268,0.804387 -0.0341,0.575829 -0.0323,1.154685 -0.0366,1.732222 -0.0329,0.699317 -0.0357,1.400535 -0.0595,2.100262 -0.0205,0.306548 -0.0377,0.615997 -0.0802,0.918467 -0.0294,0.209279 -0.0759,0.413035 -0.10651,0.622146 -0.0162,0.04191 -0.0285,0.08726 -0.0483,0.12579 -0.0418,0.08132 -0.10472,0.13932 -0.15672,0.203938 -0.1063,0.132332 -0.21361,0.254292 -0.32588,0.376419 -0.0825,0.09194 -0.11,0.1329 -0.20234,0.197684 -0.0305,0.02148 -0.12469,0.07797 -0.0953,0.0533 1.30039,-1.08929 2.60388,-2.170883 3.90912,-3.248075 0.0277,-0.02288 -0.0475,0.06313 -0.0758,0.08445 -0.0322,0.02428 -0.0688,0.03368 -0.10326,0.05048 -0.20104,0.08552 -0.40964,0.124377 -0.61632,0.169993 -0.15857,0.02434 -0.31952,0.0616 -0.47964,0.05645 -0.20164,-0.0065 0.0167,-0.02379 -0.17447,-0.0028 -0.0854,-9.06e-4 -0.16775,-0.0035 -0.24863,0.04097 -0.021,0.01152 -0.0395,0.03208 -0.0611,0.041 -0.12171,0.05039 -0.017,-0.04463 -0.12531,0.07748 -0.20391,0.160419 -0.43441,0.222256 -0.65449,0.321137 -0.26932,0.08357 -0.5355,0.186137 -0.80576,0.263106 -0.25515,0.109788 -0.51178,0.211747 -0.76999,0.305675 -0.21863,0.0071 -0.40248,0.154835 -0.59783,0.276247 -0.23647,0.130243 -0.46241,0.294231 -0.69816,0.428663 -0.24432,0.110556 -0.49307,0.189504 -0.74317,0.266143 -0.10371,-0.01198 -0.21413,-0.01881 -0.31359,-0.0688 -0.0197,-0.01 -0.0718,-0.06035 -0.0543,-0.04395 0.10225,0.0966 0.1882,0.311137 0.30907,0.284551 0.14533,-0.03194 0.21865,-0.283114 0.32798,-0.424669 1.10271,-1.362137 2.32988,-2.49019 3.55034,-3.616423 0.20887,-0.297389 0.39817,-0.462077 0.44234,-0.916587 0.0203,-0.209053 -0.009,-0.423983 -0.0388,-0.630803 -0.10169,-0.71613 -0.38528,-1.344655 -0.63216,-1.968913 -0.21811,-0.536602 -0.45973,-1.051892 -0.69699,-1.570933 -0.082,-0.17953 -0.27144,-0.585006 -0.32742,-0.769446 -0.0821,-0.270326 -0.14045,-0.554289 -0.21067,-0.831437 -0.18397,-1.285274 -0.20878,-1.1826 -0.23465,-2.538171 -0.0266,-1.395343 0.0657,-1.069364 -0.0209,-2.428653 -0.0744,-1.169275 -0.12597,-1.209708 -0.35996,-2.356724 -0.34047,-1.476103 -0.62843,-2.980624 -1.04214,-4.419548 -0.86807,-2.179742 -0.2033,-0.689236 -4.21701,3.065585 -0.0931,0.08697 0.0848,0.295006 0.128,0.442093 0.155,0.52868 0.30307,1.060999 0.455,1.591551 0.31773,0.954219 0.57804,1.946423 0.80889,2.950432 1.37954,-1.036846 2.8464,-1.861929 4.1386,-3.110537 0.1418,-0.137016 -0.20197,-0.39876 -0.28161,-0.616306 -0.0744,-0.203312 -0.12601,-0.422765 -0.17828,-0.639926 -0.13911,-0.578004 -0.2159,-1.161843 -0.2718,-1.765393 1.11505,-1.652062 0.759,-1.094454 -3.5151,3.167823 -0.10079,0.100573 0.24011,-0.08806 0.36278,-0.08893 0.34251,-0.0022 0.77253,0.224774 1.09614,0.383766 0.34627,0.199152 0.6945,0.388342 1.04963,0.551869 0.14919,0.04914 0.30899,0.162303 0.46478,0.126128 0.12777,0.0023 0.18346,0.0068 0.29547,0.09795 0.15006,0.0575 0.2834,0.184337 0.43413,0.236194 0.0623,0.01746 0.13549,0.02836 0.1455,0.131825 0.006,0.197157 -0.004,0.104029 -0.0716,0.104812 -0.0119,1.3e-4 -0.0204,0.01542 -0.0305,0.0232 -0.0174,-0.0058 -0.0347,-0.01167 -0.0521,-0.01749 -0.0163,0.0098 -0.0315,0.02516 -0.049,0.02913 -0.0233,0.0054 -0.0908,0.01542 -0.0706,-0.0018 1.30434,-1.107835 2.6121,-2.207812 3.93168,-3.277545 0.0404,-0.03277 -0.0391,0.147612 -0.0846,0.158929 -0.2242,0.05553 -0.61835,-0.29772 -0.75531,-0.392986 -0.16468,-0.180586 -0.33717,-0.347302 -0.49405,-0.541754 -0.34302,-0.425145 -0.5747,-0.817346 -0.87151,-1.303166 -0.32537,-0.532542 -0.62761,-1.082111 -0.92747,-1.644206 -0.27804,-0.508212 -0.59214,-1.007789 -0.97856,-1.351021 -0.13984,-0.124208 -0.2887,-0.226047 -0.43305,-0.33907 -0.1401,-0.126374 -0.2802,-0.252749 -0.42029,-0.379125 -0.58881,-0.550309 -1.1607,-1.140644 -1.68273,-1.817577 -0.20033,-0.252844 -0.37109,-0.479672 -0.49796,-0.816335 -0.0162,-0.03389 -0.051,-0.299854 -0.0305,-0.320997 0.0131,-0.01351 0.0314,0.01075 0.0473,0.01609 0.0498,-0.0604 0.0887,-0.0035 0.14176,0.0038 0.0168,0.0023 0.0332,-0.01 0.0501,-0.01167 0.0194,-0.002 0.0404,0.0106 0.0584,-2.55e-4 0.0182,-0.0109 0.0281,-0.04022 0.0421,-0.06032 0.017,-0.0083 0.0368,-0.0084 0.0506,-0.02476 0.0749,-0.08863 0.0683,-0.329861 0.0475,-0.445948 -0.0112,-0.06103 -0.0303,-0.118249 -0.0455,-0.177365 -0.10427,-0.293736 -0.21775,-0.450408 -0.44209,-0.49819 -0.16947,-0.01695 -0.33971,-0.0091 -0.50957,-0.0129 -0.0321,0.0017 -0.0642,0.0054 -0.0964,0.0049 -0.0446,-3.72e-4 -0.0892,-0.01044 -0.13366,-0.0069 -0.21811,0.01774 -0.41957,0.128093 -0.61589,0.256357 -1.49278,1.092652 -2.81028,2.308965 -4.3408,3.592465 -0.23725,0.198954 -0.40026,0.469689 -0.58208,0.762314 -0.10787,0.157592 -0.21575,0.315171 -0.32362,0.472757 0,0 3.90844,-2.306348 3.90844,-2.306348 v 0 c 0.13462,-0.165694 0.26923,-0.331388 0.40386,-0.497083 0.44096,-0.452661 0.28587,-0.315398 0.66429,-0.640294 0.0606,-0.05205 0.24388,-0.204779 0.18275,-0.15396 -1.2516,1.040353 -2.50122,2.085645 -3.75417,3.12261 -0.0431,0.0356 0.0807,-0.08368 0.1241,-0.118295 0.0439,-0.03502 0.0914,-0.05995 0.13698,-0.08992 0.15792,-0.138751 0.31099,-0.290499 0.48032,-0.399409 0.0272,-0.01748 0.0531,-0.0418 0.0823,-0.04962 0.0289,-0.0077 0.0586,0.0028 0.088,0.0041 0.15904,-0.0049 0.31794,-0.0029 0.47694,-0.0045 0.1608,-0.01712 0.14792,-0.06487 0.0734,-0.269571 -0.0121,-0.02752 -0.0214,-0.05822 -0.0365,-0.08259 -0.0305,-0.04934 -0.13455,-0.06011 -0.17403,-0.03164 -0.0166,0.01198 -0.0277,0.03569 -0.0416,0.05354 -0.0165,0.0086 -0.036,0.0095 -0.0495,0.02589 -0.0175,0.02118 -0.0265,0.05366 -0.0391,0.08119 -0.0654,0.143496 -0.0495,0.2865 -0.0561,0.451602 0.0397,0.262143 0.0725,0.526017 0.18557,0.748389 0.20257,0.391366 0.45066,0.606256 0.73235,0.869644 0.62079,0.590394 1.27061,1.111286 1.90896,1.660626 0.12948,0.131426 0.26418,0.252753 0.3884,0.394278 0.11067,0.126127 0.20851,0.274211 0.31521,0.407325 0.33125,0.413265 0.69203,0.775377 1.01438,1.204488 0.20021,0.251515 0.51138,0.638113 0.69843,0.892724 0.60175,0.819045 1.17053,1.690501 1.70491,2.600926 0.17882,0.323501 0.34285,0.648083 0.54833,0.936562 0.0643,0.09029 0.12546,0.309241 0.20558,0.250815 3.37102,-2.4584 3.3337,-1.459608 4.16455,-3.594028 6.3e-4,-0.0055 0.0231,-0.202523 0.0217,-0.231944 -0.008,-0.17235 -0.055,-0.342599 -0.0878,-0.506942 -0.0807,-0.255969 -0.19187,-0.477563 -0.36549,-0.618164 -0.0941,-0.05934 -0.12506,-0.04693 -0.21592,-0.08599 -0.0785,-0.03372 -0.0625,-0.03408 -0.13512,-0.08918 -0.0176,-0.01336 -0.0357,-0.02514 -0.0535,-0.0377 -0.0693,-0.02632 -0.10775,-0.07912 -0.17045,-0.127295 -0.02,-0.0152 -0.043,-0.02049 -0.0636,-0.03382 -0.12824,-0.0831 -0.0221,-0.03753 -0.14332,-0.08036 -0.026,-0.01213 -0.0512,-0.03087 -0.0781,-0.03663 -0.0219,-0.0046 -0.0442,0.0041 -0.0663,0.0058 -0.11785,0.0094 -0.23608,0.01351 -0.35381,-0.0022 -0.15329,-0.02374 -0.3015,-0.06525 -0.45343,-0.101725 -0.26048,-0.0625 -0.52263,-0.112813 -0.77882,-0.209153 -0.37909,-0.132669 -0.76612,-0.258381 -1.13016,-0.464892 -0.11261,-0.0639 -0.22186,-0.300938 -0.32934,-0.220677 -4.22515,3.15464 -4.60415,1.392746 -3.96457,3.818991 0.16716,0.528559 0.33212,1.06276 0.41073,1.636984 0.0317,0.230846 0.0742,0.466868 0.0578,0.700959 -0.0112,0.149915 -0.0906,0.271677 -0.13585,0.407518 1.35633,-0.974579 2.71264,-1.949159 4.06898,-2.923739 -0.0422,-0.06547 -0.0883,-0.125944 -0.1265,-0.196404 -0.0765,-0.141822 -0.27463,-0.592106 -0.32868,-0.722834 -0.2265,-0.547737 -0.42426,-1.118561 -0.54567,-1.734558 -0.0786,-0.418556 -0.15246,-0.728072 -0.17575,-1.159775 -0.008,-0.147182 -0.021,-0.301246 0.008,-0.442734 0.0143,-0.06903 0.15708,-0.17583 0.11274,-0.142436 -3.98244,3.003362 -5.10384,4.660144 -3.95021,2.979676 0.0569,0.04979 0.11999,0.08746 0.17088,0.149378 0.1667,0.202778 0.37992,0.596331 0.49499,0.835688 0.39829,0.82845 0.70098,1.734065 0.89419,2.704218 0.0556,0.399399 0.11919,0.796656 0.16674,1.198197 0.0955,0.806213 0.13,1.426294 0.18269,2.240093 0.0854,1.318807 0.15485,2.641495 0.0878,3.966903 9.5e-4,0.533129 -0.0567,1.323414 0.12205,1.857046 0.042,0.125483 0.14695,0.18132 0.21781,0.276125 0.30194,0.403939 0.56951,0.850759 0.78659,1.357563 0.19458,0.540999 0.42506,1.121219 0.38589,1.760663 -0.0274,0.447487 -0.25461,0.723342 -0.47918,0.981723 -1.12233,1.208299 -2.24962,2.40749 -3.39099,3.578292 -0.19733,0.216916 -0.45509,0.352492 -0.592,0.650748 -0.34518,0.752008 -0.27029,0.800947 -0.0155,1.016689 0.12367,0.104674 0.24932,0.185225 0.39081,0.227488 0.0489,0.02293 0.0963,0.05585 0.14709,0.06877 0.0935,0.02379 0.19319,-0.0051 0.28503,-0.02225 0.14871,-0.02773 0.29583,-0.06174 0.43769,-0.135572 0.16485,-0.0383 0.33852,-0.08098 0.49089,-0.18612 0.0359,-0.02479 0.0668,-0.06326 0.10292,-0.08754 0.0384,-0.02583 0.0798,-0.04146 0.11964,-0.06221 0.096,-0.05711 0.20056,-0.09829 0.29209,-0.169343 0.0427,-0.03317 0.1036,-0.105011 0.14701,-0.135925 0.0296,-0.02107 0.0617,-0.03395 0.0926,-0.05092 0.27415,-0.0776 0.54024,-0.201177 0.80951,-0.306377 0.25531,-0.132071 0.52647,-0.179234 0.78761,-0.284085 0.21836,-0.04309 0.42677,-0.149839 0.64617,-0.184613 0.16233,-0.02116 0.003,0.02371 0.12279,-0.07878 0.0213,-0.01831 0.0482,-0.01831 0.0712,-0.03199 0.0734,-0.04364 0.11653,-0.13075 0.18933,-0.175404 0.0568,-0.0193 0.11045,-0.05662 0.16778,-0.07265 0.0377,-0.01044 0.0765,-0.0074 0.11476,-0.01136 0.13303,-0.01367 0.26592,-0.03076 0.39922,-0.03893 0.21115,-0.01735 0.42293,-0.02945 0.63191,-0.08026 0.0356,-0.0072 0.0706,-0.01944 0.10652,-0.0217 0.0383,-0.0022 0.0814,0.0344 0.11488,0.0075 2.70791,-2.165788 3.05246,-1.908723 4.30501,-3.684481 0.20977,-0.318426 0.40411,-0.666964 0.41285,-1.12665 0.0385,-0.512171 0.028,-1.029333 0.0631,-1.542211 0.0129,-0.68651 -0.002,-1.373376 0.0218,-2.059268 0.0425,-0.599595 0.10966,-1.192551 0.19592,-1.782295 0.0231,-0.326829 0.0439,-0.656303 0.0291,-0.984917 -0.0245,-0.246572 -0.0727,-0.477994 -0.17829,-0.680449 -0.13713,-0.267444 -0.26607,-0.552304 -0.45817,-0.747689 -0.12526,-0.09761 -0.2672,-0.226878 -0.41149,-0.254107 -0.0164,-0.0032 -0.15591,0.01244 -0.171,0.01397 -0.0812,0.01029 -0.0879,9.07e-4 -0.16095,0.04902 -0.0235,0.01542 -0.0436,0.04065 -0.067,0.05555 -0.0251,0.01576 -0.0528,0.02135 -0.0781,0.03604 -1.4775,0.855825 0.17173,11.78924 -4.13488,3.447103 -0.0175,0.03463 -0.0397,0.06519 -0.0524,0.103829 -0.0515,0.155212 -0.0356,0.368815 -0.0378,0.534173 0.0263,0.23783 0.0354,0.480853 0.0918,0.710091 0.057,0.233215 0.142,0.450336 0.22968,0.662288 0.13615,0.289411 0.24663,0.60233 0.36982,0.903043 0.0997,0.257162 0.17634,0.533711 0.29706,0.773966 0.12791,0.266514 0.25511,0.533941 0.31207,0.852418 0.058,0.238055 0.0815,0.464389 0.0406,0.714592 -0.0471,0.30162 -0.11499,0.59703 -0.22862,0.861556 -0.0604,0.143757 -0.0963,0.252175 -0.18362,0.368008 -0.0372,0.04925 -0.16763,0.161584 -0.12373,0.125728 4.01813,-3.27973 3.49904,-5.291522 4.01901,-2.852949 -0.0899,-0.171381 -0.10439,-0.410506 -0.15972,-0.604492 -0.0713,-0.38343 -0.11725,-0.773911 -0.15259,-1.167441 -0.0282,-0.334687 -0.0761,-0.662973 -0.10652,-0.997224 -0.036,-0.395662 -0.0456,-0.598443 -0.0595,-1.004848 -0.006,-0.18823 -0.009,-0.376654 -0.0146,-0.564984 -0.009,-1.153856 -0.012,-2.31036 0.0943,-3.456839 0.007,-0.128109 0.0191,-0.255887 0.0206,-0.384377 0.003,-0.227606 -0.022,-0.394224 -0.0348,-0.619985 -0.0209,-0.367881 -0.0209,-0.736755 0.0232,-1.101682 0.025,-0.378517 0.0357,-0.756232 0.0346,-1.136342 -0.001,-0.28575 0.0144,-0.571335 1e-4,-0.856969 -0.007,-0.283315 0.001,-0.572697 -0.0485,-0.848987 -0.0457,-0.235161 -0.0998,-0.465373 -0.21122,-0.655506 -0.19637,-0.328251 -0.42965,-0.601804 -0.67066,-0.859977 -0.24171,-0.25346 -0.48262,-0.508582 -0.7276,-0.755471 -0.0819,-0.08257 -0.16188,-0.169702 -0.24707,-0.245139 -0.06,-0.05314 -0.32567,-0.245194 -0.39999,-0.299499 -0.0414,-0.03191 -0.0821,-0.06579 -0.12414,-0.09566 -0.0154,-0.0109 -0.0308,-0.02555 -0.0479,-0.02643 -0.006,-3e-4 0.003,0.03249 0.004,0.0242 0.007,-0.187993 0.003,-0.377882 0.0302,-0.564036 0.0764,-0.621613 0.14654,-1.245085 0.18495,-1.874456 0.0129,-0.471487 0.0173,-0.700618 -0.16845,-1.093469 -0.12888,-0.240105 -0.29441,-0.416995 -0.45331,-0.614262 -0.17528,-0.202102 -0.33835,-0.420934 -0.51254,-0.624534 -0.19377,-0.174793 0.0618,0.05986 -0.16887,-0.168315 -0.1715,-0.169582 -0.3602,-0.306208 -0.54351,-0.445914 -0.53312,-0.310906 -1.0304,-0.734698 -1.55975,-1.058877 -0.27945,-0.204904 -0.32869,-0.249306 -0.61205,-0.425338 -0.4374,-0.271725 -0.88954,-0.493194 -1.32137,-0.784306 -0.0991,-0.0698 -0.19875,-0.137906 -0.29724,-0.209394 -0.0806,-0.05852 -0.15637,-0.132009 -0.24013,-0.180597 -0.0652,-0.03778 -0.13651,-0.04762 -0.2037,-0.07692 -0.17643,-0.07695 -0.3432,-0.189843 -0.51911,-0.268534 -0.0232,-0.0051 -0.27827,-0.08457 -0.28468,-0.07809 -8.44326,8.539367 -5.35454,4.183481 -3.77553,3.973668 0.15433,-0.0028 0.30865,-0.008 0.46291,-0.01609 0.24035,-0.01029 0.48082,-0.01213 0.72123,-0.01749 0.23767,-0.0014 0.47467,0.01244 0.71211,0.02026 0.15642,0.0026 0.31289,0.0029 0.46931,0.0046 0.0868,-0.0074 0.1727,-0.02698 0.25922,-0.03259 0.0597,0.02649 0.0282,0.0074 0.0924,0.06393 0.0112,0.0051 0.0219,-0.0057 0.0329,-0.0043 0.0436,0.0054 0.0697,0.0569 0.10326,0.0903 0.15338,0.29356 0.26696,0.628768 0.42461,0.918803 0.11523,0.246842 0.23435,0.494036 0.33104,0.75747 0.0297,0.0809 0.0555,0.164718 0.0808,0.248605 0.012,0.03971 0.031,0.07861 0.0313,0.121951 9e-5,0.01609 -0.0203,0.01305 -0.0305,0.01944 -1.17159,-1.481965 -0.0797,-0.03942 3.75015,-3.133137 0.0888,-0.07176 -0.18141,0.143159 -0.28128,0.172021 -0.14712,0.04251 -0.29934,0.03308 -0.44934,0.0391 -0.40327,0.01628 -0.89411,-0.0074 -1.29124,-0.01975 -0.87688,-0.08052 -1.75625,-0.156805 -2.63046,-0.286233 -0.29348,-0.04344 -0.58526,-0.108743 -0.87855,-0.154698 -0.24662,-0.03864 -0.49495,-0.05423 -0.74105,-0.09907 -0.18217,-0.0332 -0.36189,-0.0899 -0.54283,-0.134865 -0.29368,-0.08271 -0.53694,-0.140963 -0.82555,-0.26577 -0.76791,-0.3321 -1.46597,-0.893633 -2.06306,-1.666699 -0.16191,-0.224005 -0.32963,-0.439583 -0.4857,-0.672011 -0.46805,-0.697029 -1.01542,-1.609533 -1.31665,-2.479762 -0.0928,-0.268168 -0.16177,-0.554286 -0.21478,-0.844043 -0.0267,-0.146292 -0.0149,-0.301796 -0.0225,-0.452695 0.0276,0.02176 0.2127,0.153187 0.1345,0.219571 -1.34062,1.137983 -2.71646,2.188853 -4.09558,3.227019 -0.066,0.04963 -0.0252,-0.157713 -0.0167,-0.15941 0.012,-0.0025 0.0205,0.01861 0.0308,0.02793 0.042,0.06286 0.0952,0.130689 0.14587,0.178988 0.0119,0.01106 0.0272,0.0106 0.0395,0.01995 0.0187,0.01397 0.033,0.04084 0.0533,0.04983 0.008,0.004 0.0172,-0.0098 0.0257,-0.01474 0.0932,-0.04828 0.14322,0.24851 0.2519,0.251094 0.0209,0.01645 0.04,0.03955 0.0628,0.0491 0.0132,0.0055 0.0273,-0.0041 0.041,-0.0057 0.0683,-0.0078 0.12166,0.01367 0.17765,0.07496 0.0862,-0.0043 0.12014,0.04839 0.1938,0.105104 0.0165,0.01275 0.0354,0.01783 0.0529,0.02674 0.0192,0.01609 0.0384,0.03217 0.0576,0.04824 0.10775,0.127157 0.22236,0.241479 0.35519,0.304279 0.0556,0.0455 0.0923,0.04343 0.14081,0.08646 0.0213,0.01884 0.0388,0.04583 0.0606,0.06327 0.16614,0.132715 -0.13405,-0.165353 0.11,0.08902 0.14596,0.08399 -0.0404,-0.02793 0.12915,0.09249 0.0865,0.06149 0.17683,0.110356 0.26531,0.165129 0.0369,0.02291 0.0725,0.05051 0.10876,0.07576 0.28758,0.189722 0.53398,0.485356 0.80536,0.716525 0.31838,0.341059 0.64474,0.666041 0.9375,1.0539 0.11213,0.142175 0.23073,0.258143 0.34975,0.387474 0.0576,0.06249 0.24713,0.28697 0.30288,0.342821 0.0515,0.05152 0.10674,0.09437 0.16017,0.141561 0.38201,0.242493 0.76744,0.474517 1.15349,0.702945 0.23701,0.122518 0.15962,0.07801 0.38668,0.212577 0.0734,0.04345 0.25863,0.151436 0.32798,0.210559 0.15744,0.134191 0.32191,0.337257 0.46137,0.497083 0.62039,0.789486 1.2172,1.623494 1.73916,2.5519 0.16866,0.300001 0.33624,0.602833 0.48308,0.925765 0.12823,0.282 0.22678,0.58979 0.34017,0.884683 0.0483,0.157713 0.0892,0.320493 0.14472,0.473153 0.0716,0.196628 0.20861,0.337251 0.23796,0.570998 0.15737,0.453295 0.19992,0.607758 0.3244,1.115852 0.0651,0.26535 0.12329,0.534014 0.18493,0.801023 0.16434,0.849359 0.26092,1.299297 0.38922,2.187193 0.2506,1.734465 0.39259,3.495431 0.43715,5.265465 0.14841,0.490139 0.24826,0.796038 0.37184,1.315181 0.11,0.462357 0.26776,1.288872 0.36359,1.752975 0.062,0.299783 0.12963,0.597065 0.19008,0.89747 0.0647,0.321411 0.12348,0.645209 0.18523,0.967817 0.0544,0.342309 0.11725,0.682097 0.16351,1.026926 0.0119,0.08609 0.19811,1.817795 0.21279,1.973029 0.0268,0.284111 0.0276,0.574151 0.0702,0.854248 0.0234,0.154288 0.19011,0.6256 0.24485,0.786355 0.0846,0.177041 0.17697,0.427451 0.33383,0.49596 0.0687,0.03004 0.20837,-0.02393 0.28012,-0.0083 1.86802,-0.214469 3.12177,-1.929876 4.83865,-3.53319 0.11487,-0.153325 0.14533,-0.184068 0.24766,-0.363562 0.18896,-0.331491 0.3342,-0.711195 0.51603,-1.050422 0.13754,-0.237617 0.18621,-0.347249 0.34993,-0.537871 0.0893,-0.104045 0.20877,-0.172152 0.28809,-0.300027 0.12011,-0.259989 0.21014,-0.549546 0.28497,-0.841865 0.0874,-0.395515 0.14821,-0.80309 0.22936,-1.201579 0.0367,-0.209931 0.0711,-0.428963 0.12517,-0.631387 0.0441,-0.165163 0.0574,-0.144387 0.10034,-0.299397 0.0112,-0.03812 0.0164,-0.07863 0.0246,-0.117942 0.0425,-0.261344 0.0315,-0.530656 0.0324,-0.797271 -0.002,-0.511195 -0.0131,-1.021026 -0.0533,-1.529549 -0.0223,-0.225875 -0.0377,-0.453231 -0.0631,-0.678441 -0.0603,-0.535047 -0.17264,-1.055012 -0.25452,-1.583198 -0.0555,-0.39302 -0.12392,-0.780836 -0.18105,-1.173178 -0.0176,-0.120615 -0.0341,-0.241578 -0.0483,-0.363129 -0.014,-0.120431 -0.0168,-0.243667 -0.0361,-0.362575 -0.0156,-0.09656 -0.0454,-0.187246 -0.068,-0.280866 -0.0872,-0.390091 -0.16738,-0.783192 -0.22204,-1.185999 -0.0644,-0.475179 -0.0977,-0.959155 -0.17085,-1.43222 -0.15788,-1.318776 -0.32787,-2.645724 -0.30734,-3.989616 0.007,-0.201639 0.0285,-0.403393 0.0203,-0.604924 -0.0156,-0.383008 -0.33752,-0.875315 -0.46629,-1.201683 -0.075,-0.166209 -0.17976,-0.406307 -0.26507,-0.563137 -0.16176,-0.297279 -0.3754,-0.516787 -0.5561,-0.78746 -0.0632,-0.06965 -0.20408,-0.230584 -0.27401,-0.285937 -0.23137,-0.183139 -0.50615,-0.241403 -0.76033,-0.315209 -0.50473,-0.107376 -1.01027,-0.237733 -1.52087,-0.260698 -0.0864,0.0065 -0.17242,0.02635 -0.259,0.02899 -0.16709,0.0051 -0.33683,-0.04257 -0.49735,-0.103476 -0.0735,-0.04128 -0.16931,-0.075 -0.23637,-0.137753 -0.0878,-0.08211 -0.15178,-0.21413 -0.21648,-0.328167 -0.20999,-0.38829 -0.4413,-0.753514 -0.67952,-1.105828 -0.28297,-0.433945 -0.58807,-0.835289 -0.91212,-1.204843 -0.50297,-0.544662 -0.99257,-1.114501 -1.42939,-1.769747 -0.0835,-0.118434 -0.34676,-0.497714 -0.4431,-0.613705 -0.0682,-0.08211 -0.14264,-0.152864 -0.21473,-0.227756 -0.0735,-0.07633 -0.144,-0.159494 -0.22201,-0.225846 -0.18438,-0.156822 -0.31363,-0.203042 -0.51715,-0.303744 -0.8962,-0.409142 -1.82462,-0.645994 -2.72758,-1.022816 -0.40117,-0.1202 -0.80068,-0.251796 -1.20273,-0.36573 -0.61266,-0.17362 -1.24821,-0.242727 -1.82426,-0.617129 0,0 -3.76308,3.84699 -3.76308,3.84699 z" />
    <path
       style="fill:#550000;stroke-width:0.377602"
       id="path68680"
       d="m 188.01858,38.557312 c 0.58938,0.802298 0.88891,1.920116 1.20535,2.96986 0.24945,0.846539 0.44374,1.730984 0.78289,2.515975 0.20314,0.470234 0.42887,0.919473 0.63984,1.382521 0.67007,1.359549 1.22733,2.82295 1.82249,4.250582 0.3724,0.897973 0.67281,1.847969 0.9854,2.789783 0.26777,0.861156 0.59388,1.680455 0.88798,2.522396 0.183,0.480603 0.35704,0.969989 0.55229,1.44061 0.0776,0.191814 0.0437,0.09844 0.10349,0.278913 0,0 4.07539,-3.354484 4.07539,-3.354484 v 0 c -0.0862,-0.225205 -0.0403,-0.116176 -0.13759,-0.327304 -0.21615,-0.429682 -0.38982,-0.904306 -0.59405,-1.345847 -0.32842,-0.800474 -0.65895,-1.59747 -0.90925,-2.457483 -0.31046,-0.974444 -0.64239,-1.928459 -1.08654,-2.794699 -0.62678,-1.405501 -1.25267,-2.812022 -1.85803,-4.236952 -0.54271,-1.207855 -1.00333,-2.475543 -1.34559,-3.830502 -0.32243,-1.126502 -0.68142,-2.223579 -1.09851,-3.284532 0,0 -4.02553,3.481163 -4.02553,3.481163 z" />
    <path
       style="fill:#550000;stroke-width:0.377602"
       id="path68682"
       d="m 87.735441,32.605147 c -0.01785,-0.01075 -0.146579,-0.08735 -0.162966,-0.10128 -0.02941,-0.02497 -0.05466,-0.05886 -0.0825,-0.0872 -0.08912,-0.09047 -0.177008,-0.172646 -0.258957,-0.276513 -0.144063,-0.200837 -0.304111,-0.374828 -0.461206,-0.553729 -0.123558,-0.121321 -0.256532,-0.220813 -0.372401,-0.357674 -0.0385,-0.0579 -0.09833,-0.07917 -0.141573,-0.125467 -0.03816,-0.04096 -0.07576,-0.09826 -0.108651,-0.147613 -0.07835,-0.112536 -0.134771,-0.250451 -0.208414,-0.368447 -0.0495,-0.132547 -0.101692,-0.2676 -0.13266,-0.412024 -0.04175,-0.127602 -0.09282,-0.248917 -0.156445,-0.356331 -0.03042,-0.06353 -0.04546,-0.144663 -0.05522,-0.221464 -0.0011,-0.0469 -0.03547,-0.307381 0.05522,-0.21233 0.02537,0.02654 0.04434,0.06359 0.06645,0.09538 -1.319285,1.135223 -2.632838,2.284384 -3.957853,3.405669 0.01904,-0.06891 0.01443,-0.08448 0.06089,-0.125191 0.04825,-0.04229 0.113255,-0.04744 0.167525,-0.05553 0.149001,-0.01152 0.297937,-0.01854 0.447149,-0.02035 0.143373,0.01198 0.285712,-0.01986 0.427923,0.01351 0.09686,0.0074 0.186269,0.05977 0.278549,0.09638 0.04704,0.0072 0.06425,0.08755 0.08477,0.140348 0.06172,0.131918 0.139765,0.243148 0.216764,0.356142 0.100009,0.156444 0.225419,0.268744 0.341489,0.398366 0.09631,0.122672 0.04972,0.06077 0.140013,0.185501 0,0 3.924159,-3.497039 3.924159,-3.497039 v 0 c -0.09473,-0.119847 -0.04804,-0.05856 -0.139877,-0.183866 -0.06712,-0.108314 -0.129496,-0.237359 -0.206259,-0.332286 -0.009,-0.01213 -0.02346,-0.01645 -0.03356,-0.02812 -0.01291,-0.0149 -0.02323,-0.03414 -0.0348,-0.0512 -0.0513,-0.07875 -0.107641,-0.160351 -0.142908,-0.254733 -0.03625,-0.067 0.0165,0.03288 -0.04827,-0.110494 -0.04838,-0.1071 -0.115351,-0.198679 -0.176086,-0.290585 -0.122974,-0.135511 -0.246901,-0.191263 -0.392616,-0.258982 -0.104947,-0.03308 -0.05141,-0.01305 -0.160474,-0.06106 -0.02683,-0.0086 -0.05478,-0.0091 -0.08194,-0.01559 -0.08923,-0.02139 -0.159812,-0.03566 -0.251368,-0.02244 -0.142729,-0.0034 -0.28493,-0.01609 -0.427546,-0.02271 -2.074986,-0.146476 3.951636,-4.114041 -4.366473,3.372238 0.02536,0.222268 0.06339,0.440267 0.09462,0.660914 0.03031,0.180137 0.05558,0.359948 0.135586,0.511331 0.03724,0.07255 0.08507,0.125421 0.111536,0.20801 0.06182,0.160024 0.138145,0.307501 0.191825,0.474704 0.0627,0.168795 0.150784,0.311466 0.237594,0.455895 0.09118,0.158911 0.185444,0.322619 0.31602,0.415773 0.139156,0.106793 0.260384,0.262556 0.41165,0.3393 0.168867,0.113212 0.301031,0.307011 0.450941,0.462758 0.08744,0.101433 0.173113,0.20564 0.260001,0.307967 0.02503,0.02949 0.05242,0.0553 0.07543,0.08804 0.01392,0.01986 0.08575,0.146568 0.107866,0.185578 0,0 3.95717,-3.623528 3.95717,-3.623528 z" />
    <path
       style="fill:#550000;stroke-width:0.377602"
       id="path69825"
       d="m 90.747052,42.52693 c -0.09013,-0.102478 -0.115229,-0.256658 -0.144805,-0.409406 -0.04243,-0.183453 -0.08542,-0.364583 -0.09855,-0.557847 -0.0011,-0.162253 -0.04535,-0.315068 -0.09664,-0.456884 -0.03637,-0.136786 -0.09821,-0.249634 -0.158544,-0.365021 -0.06948,-0.151175 -0.154806,-0.279445 -0.242917,-0.407158 -0.01583,-0.02348 -0.03154,-0.04698 -0.04737,-0.07047 0,0 -3.978463,3.487976 -3.978463,3.487976 v 0 c 0.01403,0.02208 0.02806,0.04414 0.04209,0.06619 0.03502,0.05983 0.06634,0.123026 0.10259,0.181261 0.01976,0.03164 0.04389,0.05714 0.06319,0.08944 0.01122,0.0174 0.01762,0.03812 0.02638,0.05717 0.03805,0.09719 0.07509,0.195106 0.112132,0.292219 0.02615,0.09907 0.05152,0.198549 0.06925,0.301738 0.04321,0.197043 0.08654,0.393517 0.126823,0.591829 0.04377,0.204065 0.0999,0.400932 0.14897,0.60147 0,0 4.0758,-3.402489 4.0758,-3.402489 z" />
    <path
       style="fill:#550000;stroke-width:0.377602"
       id="path69932"
       d="m 84.783634,52.757283 c 0.05331,0.116115 0.1036,0.23367 0.146657,0.358382 0.03412,0.08614 0.05534,0.182072 0.09305,0.26518 0.05971,0.0964 0.111907,0.09228 0.192094,0.06338 0.07487,-0.02906 0.152179,-0.04001 0.22791,-0.06283 0.05781,-0.01592 0.11689,-0.01777 0.175616,-0.01735 0.04041,-0.0022 0.07936,0.0078 0.119292,0.01336 0.339704,-0.28414 0.67942,-0.568279 1.019124,-0.852418 0.0056,-0.01428 0.01122,-0.02936 0.01729,-0.04265 0.0067,-0.01351 0.01616,-0.02411 0.02323,-0.03733 0.02391,-0.04477 0.04568,-0.09334 0.0651,-0.142284 0.0056,-0.01795 0.01122,-0.03635 0.01695,-0.05381 0.03019,-0.08377 0.0067,-0.0035 0.03278,-0.08419 0.01122,-0.03271 0.01437,-0.06579 0.02795,-0.09598 0.0045,-0.01851 0.0119,-0.04111 0.02458,-0.05149 0.0034,-0.0032 0.009,-0.0018 0.01324,-0.0057 0.009,-0.0089 0.01448,-0.02872 0.01908,-0.0416 0.009,-0.0072 0.01538,-0.02125 0.02458,-0.02872 0.01706,-0.01398 0.01235,-0.0028 0.03098,-0.0098 0.0045,-0.0018 0.01863,-0.0129 0.01414,-0.0091 -0.328042,0.274563 -0.656657,0.547718 -0.984991,0.821579 0.0045,-0.0055 0.009,-0.01182 0.01504,-0.01645 0.0056,-0.0049 0.01212,-0.0075 0.01807,-0.01198 0.01964,-0.0149 0.03749,-0.03399 0.05736,-0.04854 9.54e-4,-0.0058 6.28e-4,-0.01229 0.0022,-0.01763 0.01122,-0.02718 0.0477,0.0035 0.05792,0.01382 0.02346,0.03305 0.05197,0.06326 0.06824,0.105119 0.0056,0.01696 0.0022,0.03635 0.0034,0.05406 0.0022,0.01576 0.0056,0.03087 0.0079,0.04632 0.0034,0.03538 0.02941,0.06352 0.03491,0.09658 0.01448,0.05016 0.03861,0.09081 0.06364,0.130719 0.311026,0.462735 0.352332,-0.178676 1.057477,-0.806401 0.0056,-0.0051 -1.68e-4,-0.01972 3.14e-4,-0.02955 0.0011,-0.03385 0.0011,-0.02601 0.0119,-0.05673 0.02234,-0.05776 0.04793,-0.11355 0.06678,-0.173891 0.0022,-0.01 0.0045,-0.01979 0.0056,-0.02969 0.0011,-0.01 0.0022,-0.02016 0.0034,-0.0299 0.0079,-0.03833 0.0067,-0.0032 0.009,-0.0502 0.0011,-0.02448 6.28e-4,-0.04908 0.0011,-0.07356 0.0079,-0.08665 0.0045,-0.135511 -0.01785,-0.217366 -0.01998,-0.0651 -0.04961,-0.12023 -0.08777,-0.164889 -0.01448,-0.02316 -0.03446,-0.03767 -0.05073,-0.05737 -0.01931,-0.02334 -0.03401,-0.0535 -0.05073,-0.08059 -1.243138,1.129796 -0.962126,0.371634 -0.991376,1.179452 -0.0034,0.06756 -0.0056,0.134942 -0.0045,0.20264 0.0022,0.06021 0.0056,0.123163 0.01672,0.181803 0.009,0.044 0.02346,0.08551 0.03491,0.128339 0.01347,0.03454 0.02245,0.07138 0.03154,0.108513 0.0067,0.03445 0.0056,0.07053 0.0056,0.105949 -0.0034,0.04606 0.0045,0.08896 0.01122,0.133514 0.0034,0.03549 0.0034,0.07161 0.0034,0.107454 3.25e-4,0.04592 -0.0022,0.09139 0.0045,0.136355 0.0079,0.03951 0.01953,0.07889 0.0303,0.117528 0.0119,0.04708 0.01268,0.09726 0.01291,0.146752 -2.8e-4,0.04816 -0.0011,0.09632 -0.0022,0.144495 -3.03e-4,0.04409 -3.03e-4,0.08823 -3.03e-4,0.132347 -1.1e-5,0.04386 0,0.08773 0,0.131595 -0.0034,0.03027 0.0045,0.06324 0.0011,0.09316 -0.0011,0.01183 -0.0067,0.02167 -0.009,0.03296 -0.344025,0.282896 -0.756789,0.62211 1.040663,-0.774514 0.0056,-0.0048 -0.0067,-0.01749 -0.0079,-0.02706 -0.0034,-0.02167 -0.0056,-0.04395 -0.009,-0.06605 -0.01392,-0.114395 -0.01122,-0.08666 -0.01639,-0.211129 -0.0034,-0.225032 0.009,-0.449628 0.01841,-0.674059 0.0067,-0.123625 0.01661,-0.246892 0.0229,-0.37062 0.0022,-0.04251 0.0045,-0.08612 -0.0034,-0.127879 -0.0022,-0.01 -0.01706,-0.06087 -0.01908,-0.06742 -0.01684,-0.08268 -0.03345,-0.165677 -0.04479,-0.250375 -0.009,-0.05424 -0.0229,-0.107361 -0.03805,-0.158962 -0.02099,-0.07723 -0.03278,-0.158519 -0.0403,-0.240563 -0.01313,-0.08228 -0.02211,-0.165248 -0.02413,-0.2496 0.0022,-0.01719 -0.0067,-0.166944 0.02144,-0.14944 0.0079,0.0049 0.01358,0.01679 0.02043,0.02514 -0.338289,0.273459 -0.673492,0.554983 -1.014858,0.820375 -0.0056,0.0046 -0.0056,-0.02062 -0.0022,-0.02918 0.0022,-0.0065 0.01852,0.01443 0.03053,0.03679 0.02043,0.0383 0.02615,0.06091 0.04175,0.105626 0.03827,0.136171 0.05073,0.282054 0.05825,0.427332 0.0022,0.08221 -0.0022,0.164238 -0.0056,0.246164 -0.0022,0.02425 -9.42e-4,0.04891 -0.0022,0.07319 -3.26e-4,0.0061 6.28e-4,0.01351 -0.0022,0.0183 -0.0011,0.0028 -0.009,4.52e-4 -0.0067,-9.06e-4 0.353735,-0.257621 0.708681,-0.511787 1.063022,-0.76768 -0.01212,-0.08916 -0.0067,-0.182063 -0.0022,-0.272252 -6.29e-4,-0.0973 0.0011,-0.193687 0.0147,-0.289361 0.0056,-0.04088 0.02323,-0.08176 0.02065,-0.124792 -0.0034,-0.05189 -0.02177,-0.09698 -0.03423,-0.144372 -0.009,-0.03431 -0.01672,-0.06925 -0.02526,-0.103875 -0.04344,-0.202341 -0.05668,-0.411321 -0.05545,-0.62193 0.0045,-0.102124 0.0045,-0.204449 0.01123,-0.306323 0.0011,-0.02773 0.0022,-0.05545 0.0045,-0.08314 0.0022,-0.03159 0.0067,-0.06301 0.0056,-0.09474 -6.28e-4,-0.113351 -0.01762,-0.189353 -0.03311,-0.303838 -0.01123,-0.07567 -0.02155,-0.151099 -0.02941,-0.227348 -0.0079,-0.08362 -0.01324,-0.16799 -0.01987,-0.251968 -0.01122,-0.224873 -0.01313,-0.450163 -0.01336,-0.675477 0,0 -0.925524,0.690394 -0.925524,0.690394 v 0 c 0.0202,0.215255 0.03962,0.430688 0.05354,0.647027 0.0022,0.08671 0.0067,0.173324 0.0067,0.26009 6.7e-5,0.257643 -0.02862,0.510826 -0.06813,0.761249 -6.28e-4,0.0058 -0.0174,0.136325 -0.01807,0.147459 -0.0045,0.06591 0.01123,0.130259 0.01987,0.193854 0.03322,0.205038 0.06061,0.411309 0.08418,0.619102 0.0022,0.03621 0.0056,0.07233 0.0056,0.108713 3.14e-4,0.08394 -0.02447,0.161771 -0.02582,0.245624 -0.0034,0.10128 -0.0079,0.20266 -0.01122,0.303984 3.25e-4,0.08899 3.25e-4,0.183706 -0.0257,0.266007 0.353162,-0.246357 0.707177,-0.490232 1.059519,-0.739075 0.0022,-0.0018 -0.0056,-9.06e-4 -0.0067,-0.0041 -0.0022,-0.0045 -0.0011,-0.01044 -0.0022,-0.01576 -0.0011,-0.02402 2.69e-4,-0.04842 -0.0022,-0.07239 -0.0045,-0.08256 -0.01358,-0.164324 -0.02335,-0.245881 -0.01807,-0.155864 -0.05332,-0.304967 -0.07958,-0.4581 -0.177917,-0.815825 -0.336168,-0.130628 -1.132197,0.513295 0.0119,0.0778 0.01841,0.15612 0.02234,0.235487 0.0056,0.09081 0.0079,0.182537 0.02862,0.26967 0.01583,0.09202 0.02481,0.185294 0.03738,0.278215 0.0119,0.04725 0.02851,0.09016 0.0394,0.137815 0.01953,0.08022 0.0376,0.160762 0.04613,0.245248 0.0034,0.05272 0.0056,0.105318 0.0079,0.158174 0.0045,0.113167 0.0119,0.226147 0.01437,0.339538 6.4e-4,0.222734 -9.32e-4,0.445377 -0.0011,0.668131 -0.0011,0.04128 -0.0022,0.08264 -0.0045,0.123855 -0.0034,0.06502 -0.009,0.129629 -0.01459,0.194493 -0.0011,0.02374 -0.01998,0.08113 -0.0045,0.0713 1.067164,-0.694487 1.13891,-0.203348 1.05035,-0.773113 0.0011,-0.05023 -0.0022,-0.100803 -2.3e-5,-0.151221 1.2e-5,-0.04381 3.4e-5,-0.08763 7.9e-5,-0.131441 6.7e-5,-0.04409 1.79e-4,-0.08813 -1.35e-4,-0.132209 -6.4e-4,-0.05039 -0.0011,-0.100819 -0.0056,-0.150945 -0.0045,-0.0626 -0.009,-0.125913 -0.02234,-0.18634 -0.0045,-0.03222 -0.01549,-0.06134 -0.01863,-0.09314 0.0045,-0.03928 -0.0011,-0.08053 -2.02e-4,-0.120123 -0.0011,-0.04486 -0.0045,-0.08967 -0.0119,-0.133546 -0.0045,-0.03649 -0.0022,-0.07308 -0.0045,-0.110202 -0.0034,-0.05085 -0.009,-0.101357 -0.02155,-0.149409 -0.009,-0.03879 -0.0183,-0.07832 -0.03412,-0.113166 -0.009,-0.03566 -0.02009,-0.07138 -0.02761,-0.108237 -0.0056,-0.04701 -0.0119,-0.09415 -0.009,-0.142207 9.54e-4,-0.06428 -0.0022,-0.128108 -0.0045,-0.192276 -0.0011,-0.06316 -0.0034,-0.13201 0.009,-0.193352 0.0022,-0.0129 0.01964,-0.04332 0.0119,-0.03652 -0.33032,0.280609 -0.655197,0.574338 -0.98279,0.861509 -0.0079,-0.02483 -0.01919,-0.04831 -0.02526,-0.07457 -9.42e-4,-0.0035 0.0056,-9.08e-4 0.0079,9.06e-4 0.0045,0.0041 0.009,0.01198 0.01414,0.01678 0.0034,0.0032 0.0067,0.0045 0.01122,0.0069 0.0034,0.0045 0.0079,0.0091 0.01246,0.01351 0.0034,0.0035 0.0067,0.0065 0.0119,0.0098 0.02222,0.02755 0.04995,0.0381 0.05915,0.08262 0.0067,0.04741 -0.0022,0.09752 -0.0056,0.145124 -0.0056,0.0314 -0.01358,0.04719 -0.02133,0.07571 -0.0056,0.02153 -0.009,0.04232 -0.0202,0.06057 -0.02267,0.05565 -0.04175,0.114441 -0.06375,0.170729 -0.0056,0.01628 -0.01369,0.04278 -0.02716,0.05194 -0.0034,0.0022 -0.01515,9.07e-4 -0.0119,-0.0018 0.05668,-0.04905 0.913693,-1.404526 1.015509,-0.77773 -0.0067,0.0357 -0.01594,-0.01398 -0.02121,-0.02583 -0.0079,-0.02706 -0.01897,-0.05106 -0.02851,-0.0757 -0.0079,-0.04903 -0.01347,-0.09981 -0.03345,-0.143189 -0.02526,-0.05575 -0.05657,-0.0971 -0.08991,-0.142115 -0.0376,-0.05699 -0.06948,-0.09911 -0.119673,-0.133038 -0.02615,0.0014 -0.05264,0.0035 -0.07711,0.01913 -0.0056,0.0035 -0.01122,0.01 -0.01661,0.01336 -0.0056,0.0035 -0.01268,0.0051 -0.01919,0.0075 -0.338953,0.282617 -0.678354,0.564137 -1.016891,0.847846 -0.0045,0.0041 -0.009,0.0091 -0.01291,0.0152 -0.01571,0.02652 -0.02368,0.06343 -0.03839,0.09101 -0.0067,0.01014 -0.01852,0.02307 -0.02335,0.03667 -0.01122,0.03024 -0.01122,0.06794 -0.02166,0.09808 -0.01122,0.06594 -0.04209,0.133822 -0.06791,0.188928 -0.02436,0.04139 -0.0477,0.08039 -0.07565,0.116929 -0.009,0.01198 -0.01729,0.02538 -0.02739,0.03552 -0.009,0.0092 -0.03962,0.03031 -0.02986,0.02225 0.324843,-0.27014 0.650214,-0.538981 0.975316,-0.808474 -0.0022,0.0089 -0.0011,0.01938 -0.0056,0.02695 -0.0022,0.0054 -0.0079,0.0051 -0.01235,0.0083 -0.0045,0.0035 -0.0079,0.01 -0.01257,0.01183 -0.01987,0.0077 -0.04355,-0.0049 -0.06364,0.0022 -0.06432,0.0028 -0.128564,0.0065 -0.192846,0.01029 -0.07981,0.008 -0.156164,0.04662 -0.235924,0.05691 -0.022,0.0049 -0.07532,0.01944 -0.09159,0.0446 -0.0034,0.0049 -0.0034,0.01305 -0.0067,0.01785 -0.0022,0.0028 -0.0045,0.0022 -0.0067,0.0035 -0.01863,-0.01695 -0.02885,-0.03987 -0.0422,-0.06519 -0.02458,-0.0465 -0.04669,-0.09506 -0.07015,-0.14279 -0.03884,-0.09044 -0.09597,-0.230126 -0.088,-0.340275 0,0 -1.039957,0.794634 -1.039957,0.794634 z" />
    <ellipse
       id="path69934"
       style="fill:#550000;stroke:#000000;stroke-width:0.377602"
       cx="88.700912"
       cy="42.223198"
       rx="0.00050758343"
       ry="0.00073108415" />
    <ellipse
       id="path69936"
       style="fill:#550000;stroke:#000000;stroke-width:0.377602"
       cx="88.700912"
       cy="42.223198"
       rx="0.00050758343"
       ry="0.00073108415" />
    <path
       style="fill:#550000;stroke-width:0.377602"
       id="path69938"
       d="m 88.98802,44.677823 c 0.02402,0.04369 0.04591,0.09294 0.05747,0.146599 0,0 1.020719,-0.823596 1.020719,-0.823596 v 0 c -0.01818,-0.05427 -0.04523,-0.10237 -0.05612,-0.161105 0,0 -1.021964,0.838111 -1.021964,0.838111 z" />
    <path
       sodipodi:type="star"
       style="fill:#0000ff"
       id="path70932"
       inkscape:flatsided="false"
       sodipodi:sides="5"
       sodipodi:cx="515.21899"
       sodipodi:cy="122.22749"
       sodipodi:r1="29.965876"
       sodipodi:r2="14.982938"
       sodipodi:arg1="0.69473828"
       sodipodi:arg2="1.3230568"
       inkscape:rounded="0"
       inkscape:randomized="0"
       d="m 538.23942,141.41118 -19.34641,-4.65819 -14.80508,13.29631 -1.54817,-19.83899 -17.22057,-9.97168 18.38959,-7.60298 4.16219,-19.45915 12.91356,15.14009 19.79294,-2.05474 -10.40858,16.96007 z"
       transform="matrix(0.37704942,0,0,0.52305126,-65.560271,-16.890728)"
       inkscape:transform-center-x="0.8561522"
       inkscape:transform-center-y="-0.32146272" />
    <path
       sodipodi:type="star"
       style="fill:#0000ff"
       id="path70934"
       inkscape:flatsided="false"
       sodipodi:sides="5"
       sodipodi:cx="593.59808"
       sodipodi:cy="106.88054"
       sodipodi:r1="20.287302"
       sodipodi:r2="10.143651"
       sodipodi:arg1="-0.027020449"
       sodipodi:arg2="0.60129808"
       inkscape:rounded="0"
       inkscape:randomized="0"
       d="m 613.87798,106.33243 -11.91542,6.28651 -1.57636,13.37955 -9.66089,-9.3896 -13.21184,2.6353 5.94467,-12.0896 -6.58901,-11.750849 13.3349,1.917821 9.13961,-9.897725 2.29675,13.274873 z"
       transform="matrix(0.31463275,0,0,0.45317281,-38.199943,-7.3990629)"
       inkscape:transform-center-x="-0.55862566"
       inkscape:transform-center-y="-0.076755974" />
    <path
       sodipodi:type="star"
       style="fill:#0000ff"
       id="path70936"
       inkscape:flatsided="false"
       sodipodi:sides="5"
       sodipodi:cx="658.27448"
       sodipodi:cy="125.51612"
       sodipodi:r1="42.544415"
       sodipodi:r2="21.272207"
       sodipodi:arg1="0.9041035"
       sodipodi:arg2="1.532422"
       inkscape:rounded="0"
       inkscape:randomized="0"
       d="m 684.58353,158.95055 -25.49295,-12.17788 -24.48419,14.09666 3.7041,-28.00841 -20.97275,-18.92974 27.78221,-5.13227 11.52231,-25.795882 13.46626,24.836492 28.09393,2.98701 -19.45961,20.48206 z"
       transform="matrix(0.31463275,0,0,0.45317281,-35.268261,-10.3797)"
       inkscape:transform-center-x="0.15869099"
       inkscape:transform-center-y="-1.6223333" />
  </g>
</svg>
