<?xml version="1.0" standalone="no"?>
<!DOCTYPE svg PUBLIC "-//W3C//DTD SVG 20010904//EN"
 "http://www.w3.org/TR/2001/REC-SVG-20010904/DTD/svg10.dtd">
<svg version="1.0" xmlns="http://www.w3.org/2000/svg"
 width="300.000000pt" height="157.000000pt" viewBox="0 0 300.000000 157.000000"
 preserveAspectRatio="xMidYMid meet">
<metadata>
Created by potrace 1.10, written by Peter Selinger 2001-2011
</metadata>
<g transform="translate(0.000000,157.000000) scale(0.100000,-0.100000)"
fill="#000000" stroke="none">
<path d="M475 1489 c-137 -26 -262 -48 -276 -48 -25 -1 -58 -26 -47 -36 2 -3
53 -12 114 -21 147 -22 138 -18 119 -55 -9 -17 -31 -50 -50 -74 -18 -25 -44
-70 -57 -102 -22 -55 -23 -70 -22 -258 2 -195 13 -351 36 -507 11 -75 11 -77
-15 -107 -34 -40 -47 -89 -47 -173 l0 -68 510 0 510 0 0 80 c0 80 -12 122 -47
161 -12 14 -12 36 2 160 8 79 18 250 22 380 6 222 5 239 -15 305 -13 41 -42
100 -72 143 -28 41 -49 79 -47 85 2 6 40 15 84 22 44 6 92 14 107 18 l26 6 0
-182 c0 -143 -3 -189 -15 -212 -21 -41 -20 -119 3 -139 39 -35 62 -8 62 73 0
61 -1 62 -25 58 -14 -3 -25 -1 -25 3 0 5 6 9 13 9 9 0 12 49 12 210 0 203 -1
211 -20 215 -11 3 -58 11 -105 19 -47 8 -171 31 -277 50 -105 20 -195 35 -200
35 -4 -1 -120 -23 -258 -50z m410 -10 c61 -11 156 -28 213 -38 104 -18 139
-31 85 -31 -16 0 -52 -7 -80 -15 l-51 -15 8 -36 c8 -35 7 -36 -33 -54 -23 -10
-85 -27 -137 -38 -137 -28 -256 -19 -407 29 -61 20 -63 22 -63 55 0 30 3 34
28 35 35 0 -102 38 -142 39 -58 0 -16 11 175 45 107 20 199 37 204 39 23 10
97 4 200 -15z m-421 -209 c81 -28 207 -50 280 -50 77 1 197 22 282 50 36 12
66 20 67 19 42 -67 70 -119 83 -157 25 -72 28 -222 8 -497 -9 -137 -18 -265
-18 -282 1 -33 -9 -42 -21 -23 -3 5 -11 10 -18 10 -6 0 -4 -6 5 -12 8 -7 29
-38 47 -69 25 -46 31 -68 31 -118 l0 -61 -467 2 -468 3 0 65 c1 56 6 72 35
120 19 30 39 59 45 63 6 5 3 7 -6 4 -15 -5 -19 9 -29 96 -6 56 -13 113 -15
126 -6 33 -19 343 -19 416 0 33 3 78 7 100 8 48 87 214 103 214 6 1 37 -8 68
-19z m875 -322 c0 -18 -4 -42 -8 -53 -8 -19 -8 -19 -19 2 -7 12 -12 35 -12 52
0 24 4 31 20 31 16 0 20 -6 19 -32z"/>
<path d="M810 1129 c-14 -11 -32 -26 -42 -34 -9 -7 -19 -11 -22 -8 -3 4 -6 2
-6 -4 0 -16 -172 -123 -198 -123 -5 0 -27 -8 -48 -17 -22 -9 -57 -22 -78 -28
-56 -15 -62 -29 -50 -128 12 -94 52 -191 100 -243 16 -17 56 -47 89 -66 41
-23 60 -41 60 -54 0 -28 103 -153 127 -154 9 0 59 49 104 102 20 24 28 40 21
47 -14 14 -1 28 41 48 45 21 53 27 104 78 69 69 108 174 108 290 0 67 -12 86
-76 118 -18 9 -43 30 -58 47 -14 18 -26 28 -26 24 0 -9 -57 63 -78 99 -19 32
-38 34 -72 6z m69 -31 c35 -61 95 -122 163 -165 l60 -38 -5 -85 c-3 -53 -13
-107 -26 -142 -28 -74 -97 -150 -166 -184 -41 -20 -55 -32 -55 -48 0 -11 -16
-41 -36 -66 -20 -25 -45 -56 -56 -70 -17 -21 -21 -22 -28 -9 -5 9 -30 40 -55
71 -27 33 -45 65 -45 80 0 20 -6 27 -28 31 -44 9 -129 82 -162 140 -33 58 -60
162 -60 231 0 45 0 45 43 56 122 32 287 118 374 196 27 24 50 43 53 43 3 1 16
-18 29 -41z"/>
<path d="M537 872 c-33 -36 -12 -102 32 -102 45 0 67 72 33 103 -24 22 -45 21
-65 -1z m53 -46 c0 -19 -4 -23 -19 -19 -16 4 -19 16 -12 41 1 1 8 2 16 2 9 0
15 -9 15 -24z"/>
<path d="M885 876 c-21 -15 -25 -67 -5 -90 18 -23 56 -20 74 6 21 30 20 54 -4
78 -23 23 -39 25 -65 6z m45 -51 c0 -14 -6 -21 -19 -21 -13 0 -18 7 -17 22 1
29 36 28 36 -1z"/>
<path d="M680 708 c0 -25 87 -37 108 -16 20 20 14 23 -48 23 -33 0 -60 -3 -60
-7z"/>
<path d="M620 616 c0 -25 70 -60 120 -60 52 0 113 30 118 57 3 15 -9 17 -117
17 -98 0 -121 -3 -121 -14z"/>
<path d="M1953 1455 c-155 -42 -274 -150 -322 -293 -17 -50 -21 -86 -21 -200
0 -277 29 -587 53 -563 7 7 6 24 -2 53 -7 24 -11 68 -9 98 l3 55 78 3 77 3
-26 44 c-33 58 -54 135 -54 206 l0 56 60 17 c115 33 215 86 343 183 33 24 60
43 62 41 1 -2 10 -17 18 -34 26 -50 110 -136 166 -169 49 -29 51 -31 51 -77 0
-90 -34 -201 -78 -250 -14 -17 -10 -18 66 -18 49 0 84 -4 88 -11 8 -13 6 -173
-3 -197 -5 -15 -4 -15 10 -2 18 17 37 294 38 555 1 127 -2 159 -19 207 -81
226 -340 357 -579 293z m207 -27 c36 -6 88 -21 117 -34 77 -36 166 -123 205
-202 l33 -67 1 -189 c1 -104 -1 -213 -5 -240 l-6 -51 -54 -3 c-46 -3 -53 -1
-47 13 16 41 37 155 38 200 1 64 -8 92 -33 100 -10 4 -19 11 -19 16 0 5 -6 9
-12 9 -14 0 -88 63 -88 74 0 4 -12 19 -26 34 -14 15 -33 39 -42 55 -18 30 -38
34 -68 12 -12 -8 -25 -11 -29 -7 -3 4 -5 2 -3 -4 10 -35 -264 -187 -359 -199
-47 -5 -56 -24 -49 -99 8 -87 37 -197 49 -189 6 3 7 1 3 -5 -8 -13 -102 -17
-109 -4 -3 4 -8 102 -12 217 -6 198 -6 214 14 273 50 148 156 246 310 285 67
17 108 18 191 5z"/>
<path d="M1888 909 c-21 -12 -25 -78 -6 -97 29 -29 78 3 78 50 0 24 -27 58
-46 58 -5 0 -17 -5 -26 -11z"/>
<path d="M2217 902 c-33 -36 -10 -102 36 -102 37 0 52 91 18 110 -27 14 -35
13 -54 -8z"/>
<path d="M2116 748 c-10 -6 -36 -7 -59 -4 -35 6 -39 5 -27 -9 16 -20 84 -20
100 0 17 20 10 26 -14 13z"/>
<path d="M1960 651 c0 -25 47 -41 120 -41 73 0 120 16 120 41 0 5 -51 9 -120
9 -69 0 -120 -4 -120 -9z"/>
<path d="M1579 349 c-75 -53 -128 -131 -129 -190 0 -14 -10 -36 -22 -50 -12
-13 -30 -34 -41 -46 l-20 -23 718 0 719 0 -36 38 c-33 34 -35 39 -22 58 17 25
9 54 -15 54 -10 0 -24 16 -35 40 -19 43 -80 101 -138 131 -21 10 -39 19 -40
19 -2 0 -3 -24 -3 -53 0 -49 2 -52 24 -52 18 0 26 -7 31 -25 5 -21 7 -22 13
-7 8 21 55 23 64 1 3 -8 12 -13 19 -10 7 3 16 1 19 -4 3 -4 -1 -10 -7 -13 -9
-3 -5 -11 12 -24 13 -11 25 -31 26 -44 1 -13 5 -32 8 -41 8 -18 -9 -58 -25
-58 -6 0 -8 4 -5 9 3 5 -1 12 -10 15 -12 4 -15 2 -10 -9 3 -8 1 -15 -5 -15 -6
0 -13 9 -16 19 -3 11 -11 17 -18 15 -7 -3 -20 4 -28 16 -11 16 -16 18 -20 8
-4 -9 -12 -6 -27 11 -18 21 -23 22 -30 10 -8 -12 -81 -15 -455 -19 -276 -3
-450 -1 -456 5 -6 5 -9 3 -9 -7 0 -9 6 -18 13 -21 6 -2 8 -8 4 -13 -4 -5 -11
-3 -15 3 -11 17 -46 11 -54 -9 -4 -10 -12 -18 -18 -18 -6 0 -9 4 -6 9 3 5 -1
12 -10 15 -12 4 -15 2 -10 -9 3 -8 1 -15 -4 -15 -6 0 -20 20 -32 45 -21 43
-21 45 -3 65 11 12 13 20 6 20 -7 0 -9 5 -6 10 4 6 11 8 16 5 5 -4 9 1 9 9 0
8 9 20 20 26 11 6 18 16 14 21 -7 13 44 69 63 69 7 0 13 5 13 10 0 6 5 10 10
10 6 0 10 -16 10 -36 0 -29 -3 -35 -16 -30 -19 7 -64 -19 -64 -37 0 -6 5 -4
11 6 12 20 49 23 67 5 9 -9 12 -9 13 3 0 7 3 40 5 72 5 68 -3 71 -67 26z
m1000 -40 c23 -14 30 -24 23 -31 -13 -13 -72 17 -72 37 0 20 9 19 49 -6z m-19
-209 c0 -5 9 -10 20 -10 11 0 20 -4 20 -10 0 -5 -16 -9 -35 -8 -19 1 -35 5
-35 10 0 5 -6 6 -12 2 -19 -12 -27 -12 -433 -12 -416 0 -429 0 -432 14 -1 5 8
8 20 7 75 -7 810 -1 829 7 31 12 58 12 58 0z"/>
</g>
</svg>
