<?xml version="1.0" standalone="no"?>
<!DOCTYPE svg PUBLIC "-//W3C//DTD SVG 20010904//EN"
 "http://www.w3.org/TR/2001/REC-SVG-20010904/DTD/svg10.dtd">
<svg version="1.0" xmlns="http://www.w3.org/2000/svg"
 width="275.000000pt" height="183.000000pt" viewBox="0 0 275.000000 183.000000"
 preserveAspectRatio="xMidYMid meet">
<metadata>
Created by potrace 1.10, written by Peter Selinger 2001-2011
</metadata>
<g transform="translate(0.000000,183.000000) scale(0.100000,-0.100000)"
fill="#000000" stroke="none">
<path d="M216 1550 c-38 -13 -39 25 19 -590 43 -453 46 -484 48 -485 1 0 65 5
142 11 77 6 129 12 115 13 -20 1 -22 3 -10 11 9 6 -5 7 -42 3 -54 -5 -57 -4
-55 16 2 24 12 28 21 6 3 -8 13 -15 23 -14 16 0 16 1 -1 8 -11 4 -15 10 -10
14 6 3 16 2 24 -4 20 -12 33 -11 25 1 -3 6 -2 10 4 10 5 0 12 -6 15 -12 5 -10
7 -10 12 0 3 6 10 12 15 12 6 0 7 -5 3 -12 -5 -8 -2 -9 9 -5 9 3 19 2 22 -3 4
-6 16 -10 28 -10 24 0 13 -16 -18 -23 -11 -3 0 -5 25 -5 25 0 37 2 27 5 -9 2
-14 9 -11 14 3 6 -3 13 -15 16 -12 3 -21 9 -21 14 0 12 37 11 45 -1 3 -5 15
-10 26 -10 11 0 18 4 15 8 -3 5 21 8 52 9 31 0 77 3 102 7 53 9 48 9 82 7 16
-1 26 -6 24 -13 -1 -7 -1 -10 1 -5 3 4 12 7 21 8 14 0 13 2 -3 9 -13 6 8 9 65
8 128 -2 461 10 497 18 23 4 37 2 49 -10 9 -9 19 -14 22 -11 4 3 0 10 -8 16
-12 7 -11 8 5 6 11 -2 27 -7 35 -10 20 -9 53 -4 62 8 5 6 8 5 8 -4 0 -10 3
-11 14 -2 12 10 13 8 9 -8 -6 -23 -32 -28 -52 -8 -10 10 -11 8 -5 -6 6 -16 15
-18 79 -12 49 5 75 4 79 -4 5 -7 -8 -11 -38 -11 -25 0 -46 -4 -46 -10 0 -5 7
-7 15 -4 21 8 19 -9 -3 -29 -20 -19 -62 -23 -62 -7 0 6 9 10 20 10 13 0 18 5
14 15 -9 21 -23 19 -45 -9 -16 -20 -26 -23 -78 -21 -33 1 -58 -2 -55 -6 3 -5
-4 -9 -16 -9 -12 0 -18 4 -15 10 3 6 -1 7 -9 4 -10 -4 -16 -1 -16 7 -1 10 -4
10 -13 -3 -17 -22 -50 -26 -71 -9 -13 11 -19 12 -25 3 -4 -7 -29 -14 -57 -17
-27 -3 -43 -3 -36 1 17 8 15 24 -3 24 -9 0 -12 6 -8 17 4 11 3 14 -6 9 -6 -4
-9 -16 -6 -27 8 -23 -11 -32 -52 -27 -25 4 -26 5 -8 13 11 5 26 15 33 22 11
11 11 13 -1 13 -8 0 -20 -7 -28 -16 -12 -14 -14 -14 -25 1 -8 10 -14 12 -19 6
-3 -6 -1 -11 4 -11 6 0 11 -5 11 -11 0 -7 -12 -9 -32 -6 -18 3 -27 3 -20 0 17
-7 5 -23 -19 -23 -21 0 -25 10 -10 26 6 5 1 10 -14 10 -14 1 -22 -2 -19 -7 3
-5 -2 -9 -10 -9 -20 0 -29 17 -14 24 13 6 -8 2 -54 -10 -19 -5 -20 -4 -8 6 13
10 12 11 -3 6 -10 -3 -22 -6 -25 -6 -4 0 0 -5 8 -10 13 -9 13 -11 0 -20 -8 -5
-19 -10 -25 -10 -5 0 -3 5 5 10 9 6 11 10 3 10 -7 0 -10 6 -7 14 4 10 -6 13
-37 13 l-42 0 33 -17 c20 -10 28 -19 20 -22 -8 -2 -10 -9 -6 -16 9 -16 123
-16 128 -1 3 9 9 9 25 0 12 -6 28 -9 35 -7 14 5 548 29 631 29 26 0 47 3 47 6
0 4 49 5 109 3 65 -2 111 0 115 6 3 6 25 8 49 5 31 -3 38 -2 27 6 -13 9 -13
11 0 11 9 0 24 -6 35 -14 11 -7 54 -19 95 -25 98 -16 223 -41 228 -46 11 -11
-13 -23 -55 -29 -53 -7 -385 -28 -823 -51 -157 -8 -361 -19 -455 -25 -93 -5
-237 -13 -320 -16 l-150 -6 -95 45 c-129 62 -192 88 -197 83 -5 -5 20 -19 147
-81 108 -53 134 -63 193 -74 49 -9 322 2 837 33 319 20 734 43 908 52 136 6
184 24 65 24 -65 0 -66 0 -49 19 20 22 18 43 -5 47 -7 2 -59 12 -114 23 -274
57 -289 60 -302 49 -8 -6 -37 -8 -76 -5 -37 4 -54 3 -42 -2 15 -6 8 -9 -31
-12 -38 -3 -50 -1 -47 8 3 7 8 13 12 13 19 0 -7 186 -73 522 -14 68 -27 141
-30 163 -4 22 -16 96 -28 165 -30 172 -27 170 -200 171 -73 0 -146 2 -163 4
-16 2 -257 8 -535 14 -278 7 -521 13 -540 15 -19 2 -44 0 -54 -4z m276 -39 c3
-1 4 -10 1 -21 -4 -13 0 -20 10 -20 8 0 14 8 13 18 -1 12 8 18 28 20 18 2 26
0 21 -7 -4 -7 7 -11 32 -10 34 1 35 2 13 9 -20 7 -15 8 23 7 31 0 47 -5 47
-14 0 -7 -7 -13 -15 -13 -8 0 -15 5 -15 10 0 6 -6 5 -14 -2 -11 -10 -11 -15
-2 -20 22 -12 56 3 57 26 2 20 2 20 6 -1 4 -21 10 -23 74 -25 38 -1 81 -3 97
-4 27 -3 355 -11 614 -14 75 -1 140 0 145 3 4 3 13 -1 20 -8 7 -8 8 -15 3 -17
-9 -3 -7 -20 20 -163 6 -33 13 -76 15 -95 5 -45 19 -133 40 -240 31 -166 53
-293 54 -317 1 -7 7 -13 15 -13 8 0 14 -8 13 -19 -1 -14 -10 -20 -34 -23 -18
-2 -33 0 -33 4 0 4 5 8 11 8 5 0 7 5 4 10 -3 5 -1 10 5 10 6 0 8 5 5 10 -3 6
-17 10 -31 10 -33 0 -30 20 4 21 20 1 17 3 -13 8 -45 7 -129 2 -120 -7 3 -3
26 -5 50 -3 31 1 45 -2 45 -11 0 -9 -18 -13 -58 -15 -31 0 -154 -6 -272 -13
-118 -6 -263 -10 -322 -8 -61 2 -104 -1 -101 -6 4 -5 1 -6 -5 -3 -11 8 -11 24
2 47 7 12 6 13 -5 2 -8 -7 -37 -11 -73 -10 -60 2 -60 2 -12 5 27 3 59 11 70
20 16 12 17 14 4 10 -12 -4 -18 -1 -18 8 0 11 12 15 41 15 22 0 38 -4 35 -9
-3 -5 1 -11 9 -15 8 -3 15 -2 15 2 -1 19 -18 30 -50 32 -53 3 -60 1 -60 -15 0
-10 -10 -15 -30 -15 -17 0 -30 -5 -31 -12 0 -10 -2 -10 -6 0 -6 15 -141 16
-163 1 -12 -9 -12 -10 4 -5 11 4 23 1 28 -6 6 -10 10 -10 17 2 6 8 13 11 18 7
12 -13 -19 -27 -62 -27 -22 0 -57 -3 -78 -6 -34 -6 -37 -5 -30 12 5 15 4 17
-8 8 -24 -19 -61 -25 -55 -9 3 10 0 12 -11 8 -11 -4 -14 -2 -9 5 4 7 13 12 19
12 7 0 18 9 24 19 10 16 9 18 -7 14 -11 -3 -17 -9 -14 -14 3 -5 -19 -9 -49 -9
-60 0 -67 -3 -60 -28 3 -14 13 -16 50 -13 43 3 45 2 38 -20 -4 -16 -3 -20 3
-11 7 10 39 14 122 15 109 0 140 9 140 38 0 5 16 9 36 9 30 0 33 -2 22 -13 -7
-8 -20 -16 -28 -20 -8 -3 20 -6 63 -6 54 -1 77 -5 77 -13 0 -10 -38 -13 -160
-12 -88 1 -160 -1 -160 -5 0 -3 -17 -7 -37 -7 -21 -1 -47 -4 -58 -6 -11 -3
-24 -3 -30 0 -5 3 -34 7 -63 7 -43 1 -55 -2 -64 -18 -9 -18 -7 -19 26 -15 20
2 36 0 36 -4 0 -4 -22 -8 -49 -8 -45 0 -48 2 -48 25 0 15 5 25 14 25 11 0 13
9 9 35 -6 34 -5 34 12 17 11 -10 15 -21 11 -28 -5 -6 -3 -11 6 -11 8 0 12 4 9
8 -2 4 0 10 5 13 14 9 2 44 -17 51 -14 5 -15 4 -4 -6 19 -20 14 -34 -6 -16
-10 10 -22 14 -25 10 -13 -12 -7 13 6 26 9 11 9 13 0 7 -8 -4 -13 -2 -13 6 0
8 9 14 20 15 12 1 18 -3 14 -9 -20 -32 97 -38 156 -8 21 11 45 17 53 14 10 -4
13 2 11 23 -1 15 -2 34 -3 41 -1 7 -5 11 -11 7 -5 -3 -7 -13 -4 -23 5 -16 5
-16 -9 1 -18 21 -27 22 -27 2 0 -13 -13 -15 -75 -14 -41 1 -75 5 -75 10 0 4
33 9 72 11 l73 3 2 33 c2 18 -2 32 -8 32 -6 0 -9 -7 -5 -15 4 -12 -4 -15 -46
-15 -53 0 -60 11 -11 16 43 3 43 3 43 14 0 5 -8 6 -18 3 -15 -6 -15 -5 -4 10
8 9 11 21 8 26 -4 5 -2 12 4 16 18 11 0 25 -31 25 -16 0 -29 5 -29 10 0 6 11
10 24 10 32 0 39 12 21 36 -18 24 -19 40 -2 26 10 -8 13 -6 13 7 0 10 -5 17
-12 14 -6 -2 -16 2 -22 10 -9 11 -2 13 38 13 28 -1 50 -5 50 -10 0 -6 5 -5 11
1 15 15 3 63 -16 63 -8 0 -15 -3 -15 -7 0 -5 -43 -8 -95 -8 -52 0 -95 3 -95 8
0 4 43 7 95 7 60 0 95 4 95 11 0 5 5 7 12 3 7 -4 8 -3 4 5 -4 6 -12 9 -17 6
-5 -4 -9 -1 -9 4 0 6 -8 11 -17 11 -11 0 -5 7 15 17 28 13 31 18 18 25 -9 5
-14 14 -10 20 4 7 -2 8 -17 3 -13 -4 -21 -4 -17 0 3 3 -2 15 -13 26 -24 24
-112 28 -103 4 4 -8 1 -15 -5 -15 -6 0 -11 6 -12 13 0 6 -2 22 -3 35 -2 21 1
22 56 22 35 0 58 -4 58 -11 0 -7 -18 -9 -50 -6 -27 3 -50 1 -50 -4 0 -5 25 -9
55 -9 38 0 55 4 54 13 -1 18 -17 54 -18 40 -1 -16 -81 -18 -81 -2 0 6 10 10
23 9 39 -4 45 -1 44 23 0 12 2 29 5 37 2 8 3 12 1 8 -9 -16 -22 -7 -16 10 6
15 5 16 -12 2 -11 -9 -16 -10 -11 -2 4 6 2 12 -4 12 -6 0 -13 -7 -16 -15 -9
-22 -57 -19 -72 5 -10 17 -10 20 3 20 8 0 15 -4 15 -9 0 -14 32 -23 44 -11 7
7 3 10 -12 10 -12 0 -22 3 -22 8 0 4 25 5 55 4 34 -3 55 0 55 7 0 6 -6 8 -14
5 -9 -3 -17 3 -21 15 -3 12 -15 21 -25 21 -10 0 -26 3 -36 7 -13 5 -15 3 -9
-7 6 -10 2 -11 -18 -6 -15 3 -29 1 -33 -5 -4 -8 11 -10 51 -8 36 3 60 0 62 -7
2 -6 -3 -11 -11 -11 -8 0 -13 4 -10 9 3 4 0 8 -5 8 -6 0 -11 -4 -11 -8 0 -4
-20 -7 -44 -7 -45 1 -52 -7 -29 -32 6 -7 13 -18 15 -24 2 -7 26 -11 62 -10 38
0 55 -3 51 -10 -4 -5 -17 -9 -28 -8 -43 3 -51 -4 -12 -11 39 -7 39 -7 8 -9
-23 -1 -33 -6 -33 -17 0 -9 -6 -14 -12 -11 -7 2 -12 17 -11 33 3 29 2 29 -8 4
-5 -13 -7 -36 -3 -50 13 -46 13 -53 -2 -67 -19 -19 -19 -70 1 -70 8 0 15 6 15
14 0 10 19 13 75 13 41 0 77 0 80 0 3 0 5 -3 5 -7 0 -5 -31 -7 -69 -5 -44 1
-72 -2 -77 -9 -4 -8 0 -9 15 -4 12 4 21 2 21 -4 0 -6 -18 -11 -41 -11 -27 0
-38 -4 -33 -11 4 -7 7 -21 8 -33 1 -11 7 -22 14 -22 6 -1 17 -2 23 -3 5 0 7
-6 4 -11 -4 -6 -10 -8 -15 -5 -12 8 -22 -26 -10 -40 5 -6 7 -22 5 -35 -3 -14
2 -31 11 -41 9 -10 14 -21 11 -26 -3 -4 15 -6 39 -4 27 2 44 -1 44 -8 0 -6
-19 -11 -46 -11 -29 0 -43 -4 -39 -10 4 -6 16 -8 26 -5 14 5 20 2 18 -7 -1 -7
-1 -25 0 -40 1 -27 3 -28 51 -28 28 0 50 -4 50 -10 0 -6 -27 -10 -60 -10 l-60
0 0 38 c0 32 -3 38 -22 39 -16 2 -19 0 -9 -6 8 -5 10 -14 6 -21 -5 -8 -4 -11
3 -6 7 4 10 -4 10 -23 -1 -17 -4 -28 -8 -26 -4 3 -14 -3 -21 -13 -13 -15 -12
-16 3 -4 15 12 17 11 15 -7 -1 -21 -9 -25 -36 -21 -11 1 -13 -10 -9 -50 3 -30
2 -46 -3 -38 -12 18 -11 86 1 93 13 8 13 72 0 80 -6 4 -7 23 -3 47 4 30 3 39
-5 34 -7 -4 -13 -26 -14 -49 l-1 -42 -4 39 c-3 21 0 43 6 49 13 13 13 114 0
142 -7 14 -8 3 -5 -40 3 -46 2 -54 -6 -35 -5 14 -6 54 -3 92 7 69 6 85 -7 80
-5 -1 -8 2 -8 8 0 5 5 10 10 10 6 0 10 4 10 10 0 5 -8 7 -17 3 -16 -5 -17 -4
-2 8 14 12 15 26 6 107 -7 62 -14 92 -22 92 -8 0 -14 17 -16 44 -3 30 -1 41 6
36 6 -5 12 -21 13 -36 3 -40 12 -43 12 -5 0 19 -10 51 -22 73 -18 32 -20 41
-9 48 11 6 223 7 263 1z m358 -15 c31 -5 32 -4 10 4 -18 7 -6 8 45 5 39 -3 84
-5 101 -5 21 0 31 -5 31 -15 0 -16 -27 -20 -42 -6 -6 5 -32 11 -60 14 -47 5
-48 4 -25 -10 l25 -14 -25 5 c-14 3 -64 6 -112 6 -75 0 -88 3 -88 16 0 17 20
17 140 0z m515 -13 c126 -3 238 -5 248 -5 14 1 16 -2 8 -12 -8 -9 -25 -10 -63
-5 -29 4 -155 8 -280 8 -134 1 -228 5 -228 10 0 11 47 20 70 14 7 -2 118 -6
245 -10z m-935 -275 c0 -4 -13 -8 -30 -8 -16 0 -30 4 -30 9 0 5 14 9 30 9 17
-1 30 -5 30 -10z m30 -28 c0 -6 -23 -9 -55 -8 -30 1 -55 6 -55 10 0 4 25 8 55
8 31 0 55 -5 55 -10z m1272 -163 c-7 -26 -9 -19 -15 53 l-5 65 12 -50 c7 -27
10 -58 8 -68z m-1237 83 c4 -6 -20 -10 -64 -10 -41 0 -71 4 -71 10 0 6 28 10
64 10 36 0 68 -4 71 -10z m45 -50 c0 -6 -35 -9 -87 -8 l-88 2 80 6 c44 3 83 7
88 8 4 1 7 -2 7 -8z m-140 -52 c22 1 40 -2 40 -7 0 -15 -82 -10 -97 4 -18 19
-16 30 2 15 9 -7 34 -13 55 -12z m15 -37 c-21 -5 -29 -12 -27 -24 2 -9 -2 -17
-8 -17 -6 0 -8 -5 -4 -12 4 -6 3 -8 -3 -5 -6 4 -8 17 -6 31 4 18 0 25 -14 29
-10 3 7 5 37 5 42 0 48 -2 25 -7z m128 -248 c-13 -2 -23 -9 -23 -14 0 -5 -5
-9 -11 -9 -5 0 -7 5 -3 12 5 8 -8 10 -49 5 -33 -3 -57 -2 -57 4 0 5 37 8 83 8
45 -1 72 -4 60 -6z m-108 -33 c-34 -5 -64 -4 -69 1 -6 5 17 8 60 8 l69 -2 -60
-7z"/>
<path d="M335 1486 c-20 -15 -19 -15 5 -15 14 0 32 -1 40 -2 8 -1 35 -1 60 1
l45 3 -45 7 c-25 4 -54 11 -65 14 -12 4 -28 1 -40 -8z"/>
<path d="M666 1442 c-4 -7 -4 -12 -1 -12 19 0 -27 -30 -47 -31 -21 0 -21 -1
-4 -8 19 -7 19 -8 -2 -13 -18 -5 -22 -2 -22 17 0 13 -4 26 -9 29 -4 3 -7 -8
-5 -25 3 -22 0 -28 -9 -23 -9 5 -9 4 1 -7 16 -18 15 -29 -3 -29 -15 0 -21 -35
-7 -43 4 -3 16 0 27 4 18 9 18 9 -2 5 -15 -3 -23 1 -23 10 0 8 7 14 15 14 8 0
15 7 15 16 0 8 5 12 10 9 6 -3 10 -1 10 5 0 6 5 8 12 4 7 -5 5 -11 -7 -21 -11
-7 -16 -13 -13 -13 4 0 13 -2 21 -5 10 -4 13 1 12 17 -4 44 4 50 64 48 118 -5
171 0 171 13 0 10 -17 14 -57 14 l-58 1 45 -8 c37 -6 28 -7 -49 -8 -81 -2 -92
0 -81 13 6 8 10 20 8 27 -3 9 -6 9 -12 0z"/>
<path d="M646 1372 c-8 -14 -10 -13 29 -18 16 -2 35 2 42 8 22 18 14 0 -9 -23
-19 -18 -20 -21 -5 -15 10 3 28 6 38 6 11 0 17 5 14 10 -4 6 -11 8 -16 5 -5
-4 -9 -1 -9 4 0 16 37 13 43 -3 3 -7 0 -19 -6 -25 -6 -6 -9 -13 -6 -15 7 -8
98 -10 105 -3 6 6 -65 12 -89 8 -5 -1 -6 2 -3 7 6 10 128 5 135 -6 3 -5 15
-14 26 -20 19 -11 18 -11 -8 -12 -17 0 -26 -4 -22 -10 4 -6 10 -8 15 -5 14 8
40 -6 33 -19 -4 -7 -1 -6 9 2 8 7 24 9 33 5 13 -4 16 -3 11 6 -5 8 -3 12 5 10
8 -1 28 0 44 1 29 2 29 2 5 9 -14 4 -28 3 -31 -2 -4 -5 -9 -5 -13 1 -7 12 -46
4 -46 -10 0 -5 -5 -6 -10 -3 -6 4 -8 10 -5 15 3 5 -5 16 -17 24 -18 13 -19 16
-6 16 9 0 20 -4 23 -10 3 -5 12 -10 18 -10 7 0 6 4 -3 10 -12 8 -9 10 13 10
15 0 27 -6 27 -12 0 -9 3 -9 9 1 12 19 2 44 -13 33 -16 -13 -87 -12 -79 1 4 6
1 7 -7 2 -18 -11 -121 -15 -115 -4 4 5 -1 6 -9 3 -9 -3 -16 -1 -16 4 0 10 36
8 67 -3 7 -2 15 0 18 5 3 5 13 6 23 3 13 -5 14 -3 6 6 -12 13 -202 20 -222 8
-5 -4 -12 -2 -14 5 -3 9 -6 9 -12 0z"/>
<path d="M613 1303 c7 -7 128 -5 136 2 2 3 -29 5 -69 5 -40 0 -70 -3 -67 -7z"/>
<path d="M588 1283 c19 -7 14 -31 -5 -28 -10 1 -12 0 -5 -2 8 -3 12 -13 9 -24
-5 -18 2 -19 121 -18 82 1 114 4 90 8 -20 4 -43 13 -50 19 -8 6 -24 9 -36 5
-16 -4 -22 -1 -22 11 0 10 4 15 8 12 5 -3 9 1 9 9 0 11 -4 12 -13 4 -7 -5 -15
-6 -18 -1 -3 5 -27 9 -53 10 -26 0 -42 -2 -35 -5z m90 -33 c3 -17 9 -21 28
-17 13 2 27 0 30 -4 3 -5 -27 -9 -65 -9 -73 0 -80 5 -61 40 15 27 64 20 68
-10z"/>
<path d="M726 1274 c-4 -11 -2 -12 14 -4 13 7 21 7 25 -1 4 -6 14 -8 22 -5 8
3 11 1 8 -4 -3 -6 1 -7 9 -4 32 12 15 29 -28 31 -31 1 -46 -3 -50 -13z"/>
<path d="M965 1231 c-3 -5 -32 -9 -64 -7 -33 1 -57 -2 -55 -6 9 -14 108 -8
128 7 11 8 15 15 9 15 -7 0 -14 -4 -18 -9z"/>
<path d="M993 1223 c-7 -2 -13 -11 -13 -18 0 -10 -17 -15 -52 -18 -40 -2 -32
-4 29 -5 45 -1 84 2 87 6 3 5 -8 6 -25 4 -17 -3 -29 0 -29 7 0 6 15 11 33 12
27 0 29 2 12 9 -23 10 -26 10 -42 3z"/>
<path d="M751 1193 c10 -2 19 -13 22 -24 5 -18 0 -19 -81 -18 -64 1 -77 4 -47
8 39 6 39 7 10 12 -17 3 -41 2 -55 -1 -21 -5 -22 -7 -7 -13 9 -3 17 -10 16
-14 -4 -23 2 -32 18 -26 15 6 15 7 -3 14 -17 7 -17 8 4 8 13 1 22 -5 22 -13 0
-10 7 -12 22 -8 21 5 21 6 2 13 -18 7 -17 8 4 8 12 1 22 -5 22 -12 0 -8 9 -13
23 -11 41 4 42 6 12 14 -25 6 -20 8 30 10 85 4 105 6 113 15 4 5 -1 5 -11 2
-14 -5 -20 -2 -24 13 -3 11 -9 20 -14 20 -5 0 -6 -6 -3 -14 3 -8 1 -17 -5 -21
-6 -3 -9 0 -5 8 3 8 1 18 -5 22 -6 3 -11 1 -11 -4 0 -6 -5 -11 -11 -11 -6 0
-9 6 -6 13 3 8 -4 13 -22 14 -14 0 -19 -1 -10 -4z"/>
<path d="M778 1123 c6 -2 12 -12 12 -20 0 -13 8 -14 42 -9 45 7 55 12 46 22
-13 13 -58 11 -58 -2 0 -19 -16 -18 -24 1 -3 8 -11 15 -18 14 -10 0 -10 -2 0
-6z"/>
<path d="M894 1094 c1 -14 -16 -16 -129 -15 -117 1 -128 0 -111 -14 14 -11 43
-15 100 -14 55 0 74 3 61 9 -15 7 -10 9 23 9 23 1 42 -3 42 -7 0 -4 12 -8 28
-9 15 0 20 1 11 4 -11 2 -15 11 -12 22 3 10 0 21 -5 25 -5 3 -9 -1 -8 -10z"/>
<path d="M998 1063 c-37 -3 -48 -8 -47 -21 0 -10 3 -12 6 -4 2 6 21 12 41 13
21 0 46 4 57 9 11 5 13 8 5 7 -8 0 -36 -2 -62 -4z"/>
<path d="M757 1026 c3 -5 28 -6 54 -3 29 4 49 2 49 -3 0 -6 -47 -10 -111 -10
-105 0 -110 -1 -93 -17 16 -17 16 -18 1 -21 -9 -2 -17 -8 -17 -13 0 -6 5 -7
10 -4 7 4 9 -2 5 -17 -3 -12 -1 -30 5 -38 9 -13 12 -12 26 5 8 11 26 21 39 22
23 2 24 0 13 -20 -7 -14 -13 -17 -16 -9 -3 9 -10 6 -23 -9 -21 -24 -24 -34 -9
-24 6 3 10 -1 10 -9 0 -21 -27 -20 -39 2 -6 9 -11 12 -11 6 0 -5 5 -15 12 -22
6 -6 12 -32 13 -57 2 -38 -1 -45 -14 -40 -11 3 -9 0 4 -10 16 -12 17 -18 7
-24 -10 -6 -4 -10 17 -14 24 -5 29 -10 24 -24 -5 -15 -3 -15 10 2 8 11 19 16
23 12 5 -4 2 -12 -6 -17 -9 -6 -10 -10 -3 -10 7 0 16 7 21 17 7 12 23 16 61
16 28 -1 51 3 51 8 0 4 -7 6 -15 3 -17 -7 -19 4 -5 26 8 13 10 13 10 0 0 -11
3 -11 12 -2 17 17 28 15 22 -5 -5 -17 -5 -17 5 -1 7 10 21 15 39 13 15 -1 33
2 40 7 17 15 15 38 -4 38 -14 0 -14 -3 -4 -15 11 -13 6 -15 -39 -16 -131 -2
-148 -1 -113 9 30 9 31 24 1 39 -22 11 -19 13 31 12 48 -1 50 -2 20 -8 -58
-11 -5 -17 90 -10 47 3 76 7 65 8 -11 2 -30 2 -42 1 -13 -1 -23 3 -23 9 0 6
-8 10 -17 9 -54 -4 -173 3 -169 11 3 5 -3 11 -14 14 -22 6 -28 -8 -7 -16 6 -3
-6 -5 -28 -5 -34 0 -36 1 -15 8 14 4 19 8 13 9 -7 1 -13 6 -13 11 0 6 18 10
40 10 29 0 40 -4 40 -15 0 -9 6 -12 15 -9 18 7 20 36 3 33 -27 -3 -37 2 -32
15 4 11 0 13 -15 9 -16 -4 -20 -2 -16 9 3 8 11 15 18 16 7 0 22 3 35 6 23 5
31 -9 10 -17 -10 -4 -10 -6 0 -6 17 -1 43 24 35 33 -11 11 -71 6 -76 -6 -4
-10 -6 -10 -6 0 -1 7 -16 12 -43 12 -71 0 -36 9 42 11 67 1 71 3 49 15 l-24
13 31 1 c24 0 31 -4 30 -16 -2 -23 20 -29 28 -8 6 15 4 15 -11 3 -16 -13 -17
-12 -5 3 8 10 22 15 35 12 21 -5 54 -5 184 -1 56 1 51 16 -7 18 l-35 1 30 8
c29 7 29 8 -10 10 -22 1 -71 1 -109 0 -48 -1 -71 3 -77 12 -5 8 -28 13 -63 13
-30 0 -52 -4 -49 -9z m-7 -36 c-57 -7 -59 -13 -2 -10 17 1 32 -3 32 -9 0 -7
-21 -11 -51 -11 -40 0 -50 3 -46 14 3 8 1 17 -6 20 -7 2 20 4 58 4 l70 -1 -55
-7z m276 1 c-5 -8 -136 -5 -145 4 -2 3 30 5 73 5 42 0 75 -4 72 -9z m-281
-191 c-3 -6 4 -10 17 -10 18 0 20 2 8 10 -13 8 -12 10 3 10 9 0 17 -4 17 -10
0 -5 7 -10 15 -10 8 0 15 -4 15 -10 0 -6 -27 -10 -60 -10 -53 0 -60 2 -60 20
0 15 7 20 26 20 14 0 23 -4 19 -10z m10 -51 c-22 -5 -44 -17 -48 -26 -7 -12
-11 -13 -17 -3 -14 22 13 39 60 39 l45 -1 -40 -9z m77 -34 c-3 -11 -7 -14 -10
-7 -2 7 -8 9 -14 6 -5 -3 -29 -8 -54 -11 -37 -4 -43 -2 -38 11 3 9 10 16 16
16 5 0 6 -4 3 -10 -9 -15 21 -12 33 3 6 6 23 12 40 12 24 0 28 -3 24 -20z"/>
<path d="M1037 1033 c18 -2 50 -2 70 0 21 2 7 4 -32 4 -38 0 -55 -2 -38 -4z"/>
<path d="M832 854 c2 -8 6 -15 11 -15 4 1 19 1 35 1 l27 0 -29 15 c-36 19 -48
19 -44 -1z"/>
<path d="M1120 676 c0 -10 -13 -16 -37 -19 l-38 -4 43 -1 c36 -2 42 1 42 18 0
11 -2 20 -5 20 -3 0 -5 -6 -5 -14z"/>
<path d="M1863 1405 c1 -57 -1 -69 -13 -67 -11 3 -11 -1 3 -15 15 -16 19 -16
27 -3 10 15 4 80 -10 130 -5 16 -7 0 -7 -45z"/>
<path d="M1780 1440 c0 -5 4 -10 9 -10 6 0 6 -12 1 -31 -6 -20 -6 -39 1 -51 6
-10 7 -27 4 -37 -3 -11 6 -53 21 -95 30 -88 26 -115 -5 -34 -13 34 -20 45 -20
30 -1 -13 -5 -20 -11 -17 -18 11 -10 -11 10 -30 24 -22 46 -64 55 -106 10 -42
-10 -30 -25 16 -6 19 -15 35 -20 35 -5 0 -3 -13 3 -29 11 -30 3 -66 -13 -56
-5 3 -10 1 -10 -4 0 -11 77 -16 185 -14 28 1 66 2 86 2 35 1 36 2 42 46 4 25
13 59 22 75 8 16 15 37 15 47 0 10 -10 -2 -22 -26 -12 -25 -24 -39 -26 -33 -2
6 2 21 8 32 6 12 9 24 7 27 -3 2 -8 -5 -12 -16 -3 -12 -11 -21 -17 -21 -5 0
-8 -6 -5 -14 9 -22 -13 -94 -30 -101 -24 -8 -26 -3 -33 80 0 6 -5 3 -10 -5 -5
-8 -7 -26 -4 -40 5 -24 4 -24 -11 4 -20 34 -29 93 -15 101 5 3 10 23 9 43 0
36 -1 36 -24 -23 -22 -59 -22 -60 -4 -86 30 -42 41 -79 24 -79 -7 0 -19 16
-26 35 -7 19 -16 35 -20 35 -4 0 -10 -16 -13 -35 -4 -19 -11 -35 -16 -35 -13
0 -30 34 -30 59 0 12 -4 21 -10 21 -5 0 -10 5 -10 11 0 5 5 7 10 4 6 -3 10 -3
11 2 0 4 2 18 3 30 1 12 -1 20 -5 17 -5 -3 -12 8 -15 23 -4 15 -16 48 -26 72
-14 33 -16 47 -7 57 9 11 8 21 -1 43 -7 17 -10 36 -7 43 4 8 6 7 6 -4 1 -10 6
-18 12 -18 6 0 9 3 7 8 -24 48 -32 62 -40 62 -4 0 -8 -4 -8 -10z"/>
<path d="M2031 1405 c-15 -31 -43 -170 -32 -159 3 3 11 -14 17 -38 12 -41 12
-39 13 53 1 53 6 100 12 106 6 6 9 23 7 39 l-3 29 -14 -30z"/>
<path d="M1950 1360 c-7 -16 -10 -43 -8 -60 3 -16 1 -30 -3 -30 -5 0 -5 -8 -2
-17 11 -28 32 33 31 90 0 26 -2 47 -3 47 -1 0 -8 -13 -15 -30z"/>
<path d="M2139 1348 c-7 -12 -25 -33 -38 -47 -23 -24 -64 -131 -54 -141 11
-11 39 44 38 75 -1 19 2 32 5 30 8 -5 73 95 67 101 -2 2 -10 -6 -18 -18z"/>
<path d="M1830 1309 c0 -9 6 -19 13 -22 9 -3 12 -16 9 -35 -2 -16 1 -33 7 -36
7 -5 11 8 11 39 0 26 -4 44 -9 40 -6 -3 -14 3 -20 12 -9 16 -10 16 -11 2z"/>
<path d="M1892 1238 c2 -45 7 -83 12 -83 13 0 37 73 25 80 -5 4 -9 1 -9 -5 0
-6 -5 -8 -11 -4 -8 5 -8 8 0 13 13 8 4 68 -11 77 -5 3 -8 -29 -6 -78z"/>
<path d="M2122 1263 c-17 -26 -28 -51 -25 -56 3 -5 11 1 18 13 9 17 14 19 18
9 3 -8 6 -5 6 9 1 13 6 32 12 44 22 40 1 27 -29 -19z"/>
<path d="M2170 1261 c0 -5 -5 -22 -11 -38 -6 -15 -10 -29 -10 -30 0 -2 -9 -33
-20 -70 -10 -37 -19 -75 -18 -83 1 -19 37 95 41 129 1 14 10 38 20 53 20 29
23 48 8 48 -5 0 -10 -4 -10 -9z"/>
<path d="M2105 1000 c5 -17 4 -21 -6 -15 -9 6 -11 3 -6 -9 5 -14 2 -17 -16
-15 -12 1 -30 -2 -41 -6 -10 -5 -21 -4 -25 2 -3 7 -15 7 -28 2 -41 -15 -24
-27 37 -28 33 0 60 3 60 7 0 4 17 6 38 4 36 -4 37 -3 38 32 0 22 -4 36 -12 36
-7 0 -20 3 -29 7 -14 5 -16 2 -10 -17z"/>
<path d="M2220 965 c-8 -9 -22 -14 -33 -11 -11 3 -16 1 -11 -3 5 -5 35 -11 68
-13 57 -5 58 -4 30 10 -16 8 -32 19 -35 24 -3 5 -12 2 -19 -7z"/>
<path d="M2180 910 c-30 -4 -47 -7 -37 -8 9 -1 17 -6 17 -10 0 -4 16 -6 35 -4
22 3 35 0 35 -7 0 -7 5 -9 10 -6 6 4 8 11 5 16 -4 5 -1 9 4 9 6 0 11 5 11 10
0 6 -6 9 -12 8 -7 -1 -38 -4 -68 -8z"/>
<path d="M1933 775 l1 -100 -39 -5 -40 -6 39 -7 c21 -5 45 -14 52 -22 12 -11
7 -15 -29 -21 l-42 -8 50 -7 c28 -3 52 -5 54 -3 2 2 -4 22 -14 46 -10 24 -21
86 -25 138 l-8 95 1 -100z"/>
<path d="M2220 620 c13 -8 12 -12 -6 -30 -17 -18 -34 -21 -102 -22 -99 -1
-109 -15 -14 -20 127 -6 458 6 442 17 -16 10 -283 10 -300 0 -5 -3 -6 9 -3 30
5 30 3 35 -13 35 -16 0 -17 -2 -4 -10z"/>
<path d="M2380 626 c0 -2 37 -9 83 -15 45 -7 91 -14 102 -17 16 -4 17 -3 5 4
-23 15 -190 39 -190 28z"/>
<path d="M70 583 c0 -5 24 -7 52 -5 89 5 97 9 21 11 -40 0 -73 -2 -73 -6z"/>
<path d="M2625 582 c31 -14 125 -22 125 -12 0 6 -21 10 -47 10 -27 0 -59 3
-73 5 -21 5 -22 4 -5 -3z"/>
<path d="M776 477 c3 -8 -2 -20 -11 -27 -14 -12 -18 -11 -25 0 -5 8 -7 17 -5
20 2 3 -14 6 -36 6 l-40 1 28 -14 c38 -20 47 -30 26 -30 -10 0 -23 7 -29 16
-9 11 -15 13 -25 4 -11 -9 -24 -7 -53 8 -22 10 -44 19 -50 18 -6 0 -2 -4 9 -8
17 -7 17 -8 -7 -13 -15 -3 -25 -1 -22 3 3 5 -1 9 -8 10 -7 1 -30 3 -50 4 -60
6 -44 -9 40 -38 88 -31 173 -37 152 -12 -7 8 -8 15 -2 15 5 0 15 -7 22 -15 8
-9 29 -15 56 -15 34 0 42 3 38 15 -4 8 -1 15 6 15 7 0 10 7 6 15 -4 13 -2 14
14 5 16 -8 24 -7 35 3 12 13 12 16 -5 20 -10 3 -21 0 -22 -5 -3 -7 -11 -7 -26
1 -17 9 -21 9 -16 -2z"/>
<path d="M2478 483 c17 -2 47 -2 65 0 17 2 3 4 -33 4 -36 0 -50 -2 -32 -4z"/>
<path d="M857 450 c-11 -10 -26 -16 -38 -13 -10 3 -19 1 -19 -5 0 -13 26 -18
68 -14 26 4 30 7 21 18 -9 11 -8 14 7 14 16 0 17 2 4 10 -20 13 -22 12 -43
-10z"/>
<path d="M1737 403 c-3 -5 15 -9 39 -9 24 -1 41 2 38 7 -6 11 -71 12 -77 2z"/>
<path d="M2400 10 c-157 -5 -152 -6 93 -8 177 -1 257 1 257 9 0 7 -32 9 -92 7
-51 -2 -167 -5 -258 -8z"/>
</g>
</svg>
