<?xml version="1.0" standalone="no"?>
<!DOCTYPE svg PUBLIC "-//W3C//DTD SVG 20010904//EN"
 "http://www.w3.org/TR/2001/REC-SVG-20010904/DTD/svg10.dtd">
<svg version="1.0" xmlns="http://www.w3.org/2000/svg"
 width="275.000000pt" height="183.000000pt" viewBox="0 0 275.000000 183.000000"
 preserveAspectRatio="xMidYMid meet">
<metadata>
Created by potrace 1.10, written by Peter Selinger 2001-2011
</metadata>
<g transform="translate(0.000000,183.000000) scale(0.100000,-0.100000)"
fill="#000000" stroke="none">
<path d="M274 1814 c3 -9 6 -20 6 -25 0 -6 9 -8 19 -4 11 3 23 1 26 -6 9 -14
-93 -109 -117 -109 -10 0 -18 -5 -18 -11 0 -15 48 -3 67 16 8 8 16 15 19 15
23 0 -48 -68 -88 -84 -46 -20 -48 -20 -48 -1 0 20 -5 19 -40 -6 -24 -19 -33
-20 -61 -10 -41 14 -39 14 -39 -9 0 -17 7 -20 53 -20 71 0 217 21 217 32 0 4
-4 8 -10 8 -13 0 -2 29 26 66 19 26 29 31 69 32 43 0 48 -3 75 -39 27 -38 28
-42 29 -174 0 -87 -3 -134 -9 -130 -6 4 -5 -5 1 -19 17 -36 4 -72 -30 -84 -23
-8 -31 -7 -35 4 -3 8 -1 14 5 14 6 0 7 5 4 10 -4 6 -1 18 6 27 11 13 11 15 -6
12 -19 -4 -43 -65 -30 -77 5 -6 74 -4 165 3 77 6 409 55 465 69 33 8 114 22
180 31 66 9 174 28 239 42 118 25 213 27 274 8 13 -4 22 -3 22 3 0 10 -39 21
-93 26 -15 2 -30 6 -34 9 -3 4 -15 7 -25 7 -10 0 -18 3 -18 8 -3 131 -9 224
-14 229 -3 3 -6 -39 -6 -95 0 -56 0 -105 -1 -109 0 -5 -9 -18 -21 -30 -16 -17
-37 -23 -95 -29 -41 -3 -70 -10 -63 -14 11 -7 -57 -18 -162 -26 -25 -2 -79
-10 -118 -18 -40 -9 -77 -13 -82 -10 -14 9 -60 -5 -53 -16 4 -6 -26 -8 -76 -6
-50 1 -74 0 -61 -5 36 -14 25 -21 -19 -14 -24 4 -39 3 -36 -2 3 -5 -20 -8 -51
-8 -31 1 -74 -3 -94 -8 -21 -5 -54 -6 -73 -3 -30 6 -35 10 -30 27 4 11 1 26
-5 34 -7 8 -9 25 -6 37 12 42 18 274 7 258 -9 -13 -11 -12 -12 5 -1 11 -2 26
-2 33 1 8 -5 11 -14 8 -11 -5 -13 -2 -9 10 4 11 2 15 -8 11 -9 -4 -13 -1 -10
6 2 7 -5 18 -16 25 -12 7 -20 8 -20 2 0 -5 5 -10 10 -10 6 0 10 -4 10 -10 0
-5 -7 -7 -15 -4 -8 4 -15 14 -15 24 0 10 -7 23 -15 30 -22 18 -18 32 5 20 14
-7 20 -7 20 0 0 5 -3 11 -7 11 -5 1 -24 3 -43 5 -19 2 -36 9 -38 14 -2 6 -11
10 -19 10 -10 0 -13 -6 -9 -16z m86 -57 c0 -17 -38 -53 -46 -44 -8 8 23 57 36
57 6 0 10 -6 10 -13z"/>
<path d="M2621 1785 c-11 -24 -21 -53 -21 -62 0 -10 -9 -37 -19 -60 -15 -33
-17 -43 -6 -47 18 -6 25 3 25 31 0 13 4 23 8 23 10 0 48 148 40 155 -3 3 -15
-15 -27 -40z"/>
<path d="M1529 1813 c-1 -4 -1 -11 0 -15 0 -5 -4 -8 -11 -8 -6 0 -4 -6 7 -13
12 -10 14 -16 7 -21 -7 -4 -12 -12 -12 -18 0 -7 6 -6 15 2 15 13 17 67 3 76
-4 3 -9 2 -9 -3z"/>
<path d="M90 1790 c-8 -5 -33 -7 -55 -5 -39 5 -39 5 -10 -6 17 -7 33 -16 36
-22 4 -5 22 -7 41 -3 27 5 41 2 61 -15 24 -18 39 -14 20 5 -5 4 -8 12 -8 18 0
6 -11 13 -24 15 -14 2 -29 8 -36 13 -6 5 -16 5 -25 0z"/>
<path d="M1018 1783 c34 -2 90 -2 125 0 34 2 6 3 -63 3 -69 0 -97 -1 -62 -3z"/>
<path d="M307 1558 c-15 -12 -15 -15 7 -35 20 -20 24 -20 22 -5 0 9 -5 20 -11
24 -6 4 -2 8 8 8 10 0 15 5 12 10 -8 13 -18 13 -38 -2z"/>
<path d="M330 1411 c-13 -24 -13 -61 0 -81 7 -11 10 0 10 37 0 41 4 53 18 56
16 4 16 5 0 6 -10 0 -22 -8 -28 -18z"/>
<path d="M1600 1310 c0 -5 18 -10 40 -10 22 0 40 5 40 10 0 6 -18 10 -40 10
-22 0 -40 -4 -40 -10z"/>
<path d="M1761 1286 c2 -2 29 -6 59 -9 34 -3 47 -2 35 3 -19 8 -103 14 -94 6z"/>
<path d="M590 1166 c0 -42 2 -46 24 -46 27 0 56 -24 56 -46 0 -10 -12 -14 -39
-14 -22 0 -42 -4 -45 -9 -4 -5 -24 -12 -47 -16 -73 -13 -34 -15 47 -4 45 7 84
18 91 27 12 15 40 12 96 -10 33 -13 19 -28 -26 -28 -16 0 -26 -4 -22 -10 9
-14 35 -12 69 5 25 13 38 14 80 4 28 -7 55 -16 61 -21 5 -4 23 -8 40 -8 16 0
109 -20 205 -45 111 -28 178 -41 184 -35 6 6 16 10 24 10 11 0 12 -3 3 -14
-18 -21 133 -49 529 -96 90 -11 180 -24 200 -29 37 -10 167 -24 138 -15 -10 3
-18 12 -18 20 0 8 5 12 10 9 6 -3 10 1 10 9 0 21 -16 21 -24 0 -4 -10 -13 -13
-28 -9 -18 5 -20 4 -8 -4 23 -16 -16 -14 -76 4 -49 15 -155 31 -250 39 -28 2
-68 9 -90 15 -39 10 -95 22 -104 23 -3 0 -12 4 -22 9 -11 6 -18 4 -22 -6 -3
-8 -11 -15 -18 -14 -10 0 -10 2 0 6 17 7 15 23 -3 23 -8 0 -15 -4 -15 -10 0
-5 -6 -10 -12 -10 -7 1 -2 10 12 22 25 20 25 21 2 14 -33 -11 -49 7 -44 48 3
29 8 35 32 38 16 2 27 1 24 -4 -3 -4 0 -8 5 -8 6 0 11 -8 11 -17 0 -15 -2 -16
-10 -3 -6 9 -10 10 -10 3 0 -6 5 -15 10 -18 6 -3 10 -16 11 -28 1 -12 6 -2 12
23 l11 45 4 -38 c3 -32 6 -36 18 -26 17 14 25 9 27 -20 1 -11 7 -23 14 -25 9
-4 10 0 2 18 -13 27 3 66 26 66 21 0 27 -16 10 -30 -13 -11 -14 -10 -9 5 5 13
4 16 -4 11 -7 -4 -12 -19 -12 -33 0 -23 2 -24 17 -12 15 13 16 12 11 -8 -4
-13 -2 -23 2 -23 5 0 10 17 12 37 2 29 8 39 23 42 19 3 19 3 3 -16 -19 -21
-24 -53 -9 -53 5 0 13 13 19 28 15 42 42 38 42 -7 0 -27 3 -32 10 -21 5 8 7
23 4 34 -4 13 -2 16 6 11 8 -5 10 -20 6 -44 -4 -25 -2 -31 4 -21 5 8 10 27 10
42 0 23 4 27 23 24 12 -3 36 -5 52 -5 19 -1 25 -4 17 -9 -16 -11 110 -35 134
-25 12 4 15 3 10 -6 -6 -9 -1 -12 15 -11 43 4 59 0 56 -12 -1 -8 9 -11 31 -9
52 4 92 -8 92 -29 0 -10 -5 -22 -10 -25 -6 -4 -8 -11 -4 -16 3 -5 10 -7 15 -3
5 3 7 10 4 15 -4 5 -2 9 4 9 5 0 8 10 6 21 -4 19 -1 21 28 15 18 -3 38 -14 44
-23 7 -9 13 -12 13 -5 0 7 4 12 9 12 8 0 0 -62 -15 -115 -3 -13 -2 -16 4 -7 6
9 11 7 20 -10 6 -13 13 -32 15 -43 5 -20 5 -20 6 0 1 18 6 20 39 17 20 -3 40
-10 44 -16 5 -8 8 -7 8 2 0 8 5 10 13 5 22 -13 39 -12 33 3 -3 9 1 14 13 14
10 0 21 -7 25 -15 3 -8 13 -15 22 -15 14 0 15 2 3 17 -13 15 -11 16 11 10 14
-4 31 -7 39 -7 10 0 12 -10 8 -40 -3 -27 -1 -43 9 -51 12 -10 14 -1 14 51 0
61 0 62 -24 56 -14 -3 -27 -2 -30 3 -8 13 -106 22 -146 13 -19 -4 -48 -6 -64
-4 -28 4 -29 4 -23 55 4 29 9 62 13 74 7 26 13 24 -116 48 -52 9 -133 26 -180
36 -363 78 -542 114 -785 158 -154 29 -336 63 -405 76 -69 13 -178 34 -243 45
-65 12 -125 24 -133 27 -11 4 -14 -5 -14 -41z m117 -12 c4 -11 8 -12 13 -4 5
8 13 9 21 4 8 -5 22 -7 32 -6 9 2 17 -1 17 -6 0 -6 9 -8 20 -5 17 5 20 0 20
-26 0 -17 5 -31 10 -31 6 0 10 11 10 25 0 22 4 25 27 22 19 -2 30 -11 34 -28
7 -23 7 -23 8 -1 1 12 7 22 15 22 18 0 29 -30 20 -56 -5 -16 -4 -16 5 -4 6 8
11 23 11 33 0 9 5 17 10 17 6 0 10 -4 10 -10 0 -5 7 -7 15 -4 11 5 15 -1 16
-22 l2 -29 4 28 c3 16 9 26 16 24 7 -3 11 -10 9 -17 -2 -7 1 -16 6 -19 5 -3
14 -15 20 -26 10 -18 11 -17 12 13 0 17 5 32 10 32 6 0 10 -9 10 -19 0 -29 18
-35 22 -9 4 32 23 29 23 -4 1 -16 5 -32 11 -38 7 -7 9 2 6 26 -3 28 -1 35 9
32 8 -3 14 -17 13 -34 -1 -52 50 -63 61 -14 4 17 11 28 16 24 13 -8 11 -52 -3
-57 -8 -4 -7 -6 3 -6 10 -1 19 9 23 23 6 26 50 43 69 28 13 -10 76 -22 114
-22 20 0 21 -3 13 -25 -5 -14 -6 -25 -1 -25 5 0 11 9 14 20 7 25 47 28 46 3 0
-11 -3 -13 -6 -5 -9 22 -23 13 -23 -15 0 -20 3 -24 9 -14 6 9 11 10 15 2 4 -6
5 -15 2 -20 -3 -5 1 -14 9 -21 19 -16 19 -37 1 -37 -8 0 -12 6 -9 12 2 7 -3
15 -11 18 -11 4 -13 1 -10 -11 5 -15 4 -15 -8 -1 -15 18 -49 27 -243 69 -77
17 -151 35 -165 40 -14 6 -38 11 -55 12 -16 1 -34 4 -40 7 -10 6 -110 26 -182
37 -27 4 -40 11 -37 19 3 8 -4 13 -20 14 -57 4 -64 6 -60 13 3 4 -2 8 -10 8
-9 0 -24 8 -34 18 -17 17 -17 20 -3 30 22 15 31 14 38 -4z m531 -127 c2 -19
-1 -27 -12 -27 -11 0 -16 10 -16 31 0 38 24 35 28 -4z"/>
<path d="M330 1153 c0 -15 -2 -16 -10 -3 -7 11 -10 0 -10 -37 0 -62 -7 -83
-29 -84 -10 0 -11 -2 -3 -6 6 -2 12 -12 12 -21 0 -14 4 -13 21 5 18 17 22 34
23 92 1 39 0 71 -1 71 -2 0 -3 -8 -3 -17z"/>
<path d="M852 974 c-30 -7 -57 -15 -60 -19 -9 -9 98 5 117 15 26 14 -4 17 -57
4z"/>
<path d="M310 969 c0 -20 49 -40 83 -34 48 9 97 -2 97 -23 0 -14 1 -14 13 -1
9 11 27 14 70 11 54 -4 57 -5 58 -30 l1 -27 7 25 c7 27 24 32 55 17 13 -6 21
-5 27 4 6 10 9 11 9 2 0 -7 9 -13 20 -13 13 0 20 -7 20 -20 0 -11 5 -20 11
-20 6 0 9 6 6 13 -4 10 11 14 62 14 44 0 59 -2 46 -8 -12 -5 1 -6 35 -3 43 4
52 3 40 -6 -12 -9 -3 -11 38 -7 28 2 52 1 52 -4 0 -4 10 -5 22 -1 16 4 19 2
13 -9 -16 -25 -12 -50 9 -61 17 -9 19 -8 9 3 -29 29 1 79 30 50 8 -8 7 -11 -6
-11 -9 0 -17 -4 -17 -9 0 -5 9 -7 20 -4 11 3 20 9 20 13 0 4 15 8 33 8 17 0
34 1 37 2 25 8 50 8 50 -1 0 -6 -9 -9 -20 -6 -29 8 -25 -19 7 -54 30 -31 57
-41 30 -11 -32 35 -8 81 27 53 11 -9 15 -9 19 1 4 9 6 7 6 -4 1 -9 5 -20 11
-23 6 -3 7 1 4 9 -3 9 -1 16 5 16 6 0 11 -12 11 -27 0 -40 10 -48 55 -49 22
-1 32 1 23 3 -10 3 -18 14 -18 25 0 21 0 21 -20 -2 l-20 -23 0 33 0 32 48 -7
c26 -5 58 -9 72 -10 42 -4 46 -6 25 -15 -20 -9 -20 -9 0 -10 20 -1 20 -1 0
-10 -18 -8 -18 -9 -2 -9 10 -1 15 -5 12 -11 -3 -5 -1 -10 4 -10 6 0 9 10 7 23
-2 12 1 27 6 34 11 14 -21 26 -77 27 -34 1 -40 4 -38 21 1 11 0 14 -3 7 -3 -6
-11 -9 -16 -6 -6 4 -8 3 -5 -3 3 -5 -6 -10 -22 -10 -22 0 -30 7 -40 31 -10 25
-13 28 -21 15 -8 -14 -19 -14 -102 -3 -206 29 -434 54 -453 50 -11 -2 -14 -1
-7 1 37 13 -5 30 -98 38 -236 21 -380 26 -380 14z"/>
<path d="M240 929 c0 -5 -156 -42 -220 -52 -15 -3 -8 -5 16 -6 23 0 79 6 125
15 46 9 91 17 99 18 44 5 54 36 10 33 -16 -1 -30 -5 -30 -8z"/>
<path d="M370 910 c0 -5 -11 -10 -25 -10 -16 0 -25 -6 -25 -15 0 -11 11 -15
39 -15 22 0 43 -5 46 -11 8 -13 -23 -38 -48 -39 -10 0 -20 -7 -23 -15 -4 -8
-12 -15 -20 -15 -33 0 -10 -19 29 -24 23 -3 179 -24 347 -45 168 -22 323 -44
345 -49 71 -18 115 -23 115 -15 0 5 -28 15 -62 22 -35 7 -81 16 -103 22 -22 5
-78 13 -125 19 -47 5 -139 16 -205 25 -66 8 -142 17 -170 20 -103 11 -135 18
-129 27 3 5 15 6 26 2 15 -5 19 -3 13 7 -5 8 -4 11 0 6 5 -4 15 -1 24 7 12 11
27 12 61 6 25 -5 90 -14 145 -20 55 -6 188 -23 295 -36 287 -36 350 -44 405
-48 28 -2 57 -6 65 -9 37 -12 201 -37 243 -37 25 0 47 -4 49 -10 2 -5 41 -12
88 -15 105 -8 243 -22 290 -30 32 -5 135 -19 325 -45 68 -9 205 -26 293 -36
40 -5 43 -7 39 -32 -2 -15 -1 -38 3 -52 5 -19 8 -11 13 34 4 32 6 60 5 62 -2
1 -39 5 -83 8 -102 8 -146 13 -270 32 -55 8 -152 22 -215 30 -63 8 -135 19
-160 24 -25 5 -135 21 -245 35 -261 33 -276 36 -269 46 3 5 0 17 -6 26 -10 16
-10 15 -5 -4 3 -12 1 -24 -5 -28 -5 -3 -10 -2 -10 4 0 6 -6 8 -14 5 -8 -3 -47
0 -87 6 -41 6 -81 11 -89 12 -14 0 -117 14 -170 23 -14 3 -90 11 -170 20 -80
8 -156 17 -170 20 -28 6 -153 23 -215 29 -67 7 -115 18 -115 27 0 5 8 6 18 3
15 -5 15 -4 -1 6 -10 7 -21 9 -24 6 -9 -9 -43 14 -43 29 0 8 -4 15 -10 15 -5
0 -10 -4 -10 -10z"/>
<path d="M1920 768 c89 -18 229 -34 219 -24 -7 7 -202 36 -236 35 -21 -1 -16
-4 17 -11z"/>
<path d="M2680 720 c-39 -16 -41 -19 -18 -19 15 -1 30 4 33 9 3 6 17 10 31 10
13 0 24 5 24 10 0 14 -18 12 -70 -10z"/>
<path d="M2239 693 c-13 -16 -12 -17 4 -4 15 12 20 11 35 -3 10 -9 24 -16 31
-16 7 0 9 -4 6 -10 -3 -5 -1 -10 4 -10 6 0 11 7 11 15 0 8 -7 15 -16 15 -8 0
-22 7 -30 15 -20 19 -28 19 -45 -2z"/>
<path d="M1165 639 c-4 -5 11 -9 32 -9 22 0 43 -4 49 -8 12 -11 120 -48 162
-56 23 -4 32 -2 32 8 0 9 -7 12 -19 9 -10 -3 -22 0 -25 5 -3 6 -15 8 -25 5
-10 -3 -22 0 -25 6 -4 6 -18 11 -31 11 -13 0 -28 6 -32 14 -10 16 -110 29
-118 15z"/>
<path d="M1579 526 c14 -8 31 -12 38 -9 7 3 19 1 26 -4 23 -18 44 -21 44 -7 0
7 -4 11 -8 8 -5 -3 -19 1 -31 7 -13 7 -39 14 -58 16 -34 3 -35 3 -11 -11z"/>
</g>
</svg>
