<?xml version="1.0" encoding="UTF-8" standalone="no"?>
<svg
   version="1.0"
   width="225.000000pt"
   height="225.000000pt"
   viewBox="0 0 225.000000 225.000000"
   preserveAspectRatio="xMidYMid meet"
   id="svg70"
   sodipodi:docname="Save.svg"
   inkscape:version="1.1.1 (3bf5ae0d25, 2021-09-20)"
   xmlns:inkscape="http://www.inkscape.org/namespaces/inkscape"
   xmlns:sodipodi="http://sodipodi.sourceforge.net/DTD/sodipodi-0.dtd"
   xmlns="http://www.w3.org/2000/svg"
   xmlns:svg="http://www.w3.org/2000/svg">
  <defs
     id="defs74" />
  <sodipodi:namedview
     id="namedview72"
     pagecolor="#ffffff"
     bordercolor="#666666"
     borderopacity="1.0"
     inkscape:pageshadow="2"
     inkscape:pageopacity="0.0"
     inkscape:pagecheckerboard="0"
     inkscape:document-units="pt"
     showgrid="false"
     inkscape:zoom="3.4133333"
     inkscape:cx="157.17773"
     inkscape:cy="145.16602"
     inkscape:window-width="1366"
     inkscape:window-height="697"
     inkscape:window-x="-8"
     inkscape:window-y="-8"
     inkscape:window-maximized="1"
     inkscape:current-layer="svg70" />
  <metadata
     id="metadata2">
Created by potrace 1.10, written by Peter Selinger 2001-2011
</metadata>
  <g
     transform="translate(0.000000,225.000000) scale(0.100000,-0.100000)"
     fill="#000000"
     stroke="none"
     id="g68"
     style="fill:#501616">
    <path
       d="m 822,2233 c -4,-10 -57.53711,-45.2109 -57.53711,-89.2109 C 764.46289,2074.7891 819,2047 844,1998 c -260.53036,14.0884 40,-65 53,-74 13,-8 -33.91797,-77.9316 -24.91797,-86.9316 33,-33 137.91797,2.9316 197.91797,-11.0684 60,-14 60,-14 60,9 0,19 -2.6055,84.5234 -40.6055,89.5234 -144.99997,20 -138.53122,70.4766 -139.53122,212.4766 0,34 -105.86328,73 -99.86328,87 8,21 6,26 -6,26 -8,0 -18,-8 -22,-17 z"
       id="path4"
       style="fill:#501616"
       sodipodi:nodetypes="csccssscccsc" />
    <path
       d="m 1430,2224 c 15,-39 -146.2031,-64.6875 -164.2031,-116.6875 -23,-68 71.2031,-203.3125 4.2031,-227.3125 -30,-11 -69.0245,-29.7643 -76,-20 -132.9217,186.0636 -34.7942,-15.7142 -34,-36 0.3912,-9.9923 44,-2 95,17 199.9316,-5.3262 304.3125,210.1973 281.3125,365.1973 -6,36 -81.3125,43.8027 -96.3125,43.8027 -17,0 -18,-4 -10,-26 z"
       id="path6"
       style="fill:#501616"
       sodipodi:nodetypes="cccssccsc" />
    <path
       d="M1079 1721 c-31 -31 -35 -47 -19 -71 8 -12 10 -11 10 8 0 12 6 22 14 22 8 0 18 5 22 12 5 8 2 9 -11 4 -15 -5 -16 -4 -5 9 7 8 16 12 21 9 5 -3 9 -3 9 0 0 2 3 11 6 20 10 26 -15 19 -47 -13z"
       id="path8"
       style="fill:#501616" />
    <path
       d="M1163 1730 c1 -12 7 -18 13 -16 17 6 25 -18 17 -54 -7 -36 -23 -50 -23 -21 0 12 -7 21 -15 21 -19 0 -20 -29 -1 -36 8 -3 12 -12 10 -19 -3 -7 -1 -16 5 -20 7 -3 11 2 11 14 0 29 18 35 23 9 2 -13 5 4 6 37 1 65 19 61 22 -5 2 -31 3 -32 6 -7 2 15 9 25 14 22 24 -15 5 31 -25 61 -39 39 -66 44 -63 14z"
       id="path10"
       style="fill:#501616" />
    <path
       d="m 1360,1678 c -19,-5 -47,-12 -62,-15 -37,-7 -36,-18 2,-19 17,-1 30,2 30,7 0,5 7,9 16,9 9,0 12,-5 8,-12 -6,-10 -4,-10 7,0 18,16 29,15 29,-3 0,-9 -9,-15 -24,-15 -14,0 -28,-4 -31,-10 -3,-5 -23,-10 -43,-10 -41,0 -82,-23 -82,-46 0,-8 7,-14 16,-14 8,0 13,4 10,9 -7,10 52,24 65,15 6,-3 16,0 25,6 24,21 86,23 109,5 20,-16 20,-16 -1,-10 -15,4 -24,-1 -33,-19 -15,-27 -11,-70 14,-166 10,-36 20,-100 22,-142 4,-61 8,-78 20,-78 9,0 13,6 9,15 -3,8 -1,15 4,15 11,0 2,98 -17,175 -8,33 -18,76 -22,95 l -8,35 -12,-25 c -11,-24 -11,-24 -7,7 7,46 34,73 73,73 30,0 32,-3 46,-52 27,-97 -56,-127 -53,-308 5,-216 87,-210 10,-210 -55,0 -90,-11 -137,-43 -35,-23 -44,-57 -16,-57 9,0 13,3 10,7 -4,3 10,17 31,29 27,17 52,23 94,24 33,0 62,5 70,13 7,7 18,14 23,14 14,0 36,45 30,61 -3,7 0,10 5,7 13,-8 158,-80 146,55 -7,75 -153,205 -146,210 5,3 26,4 45,2 31,-4 36,-8 46,-46 15,-54 33,-111 55,-166 12,-32 17,-75 18,-150 1,-107 -123.6523,-55.89844 -165.6523,-135.89844 C 1553.3477,746.10156 1603,580 1584,580 c -8,0 -11,-6 -8,-15 4,-8 -1,-33 -10,-55 -9,-22 -15,-59 -15,-83 1,-42 1,-42 10,12 11,62 54,145 71,135 6,-4 8,-3 5,3 -6,10 37,55 78,81 19,12 18,13 -8,7 -24,-5 -27,-4 -15,9 7,7 17,11 22,8 5,-3 7,2 3,11 -4,11 1,18 15,23 16,5 18,8 7,15 -8,5 -9,9 -4,9 21,0 47,61 41,93 -4,21 -3,27 3,18 6,-10 11,4 17,45 8,63 -14,203 -40,253 -8,14 -22,55 -31,91 -23,84 -42,105 -98,104 -39,0 -56,9 -57,29 0,5 5,5 12,1 13,-8 5,53 -18,134 -19,64 -46,92 -91,92 -21,0 -36,6 -39,15 -4,8 -12,15 -20,15 -8,0 -14,9 -14,20 0,11 5,20 10,20 6,0 10,-5 10,-11 0,-5 5,-7 10,-4 6,3 10,2 10,-4 0,-5 14,-13 32,-16 69,-16 104,-50 114,-114 4,-29 9,-39 15,-30 5,9 7,-3 6,-31 -2,-35 2,-45 16,-48 14,-3 17,2 13,20 -15,84 -19,99 -27,104 -5,3 -9,13 -9,23 0,28 -59,80 -99,87 -20,4 -41,10 -46,15 -24,19 -62,25 -95,17 z m 200,-204 c 6,-30 9,-60 7,-67 -3,-6 -6,-1 -7,13 0,14 -9,49 -19,77 -12,36 -14,49 -5,42 7,-6 18,-35 24,-65 z"
       id="path12"
       style="fill:#501616"
       sodipodi:nodetypes="cccssccsscsssccccccccscscccccsccscscccsscccccccccscscccccccscccscccccccccscsssscsccccsccscccsccccs" />
    <path
       d="M1106 1672 c-4 -7 -1 -43 4 -49 2 -2 3 -6 4 -10 1 -5 7 -17 13 -28 11 -18 12 -18 13 -2 0 9 -6 26 -12 37 -10 16 -10 24 0 40 10 17 10 20 -2 20 -8 0 -17 -4 -20 -8z"
       id="path14"
       style="fill:#501616" />
    <path
       d="m 860,1656 c -34,-20 -41,-23 -71,-30 -56,-12 -99,-90 -115,-209 -4,-29 -12,-47 -20,-47 -52,0 -91,-49 -115,-144 -10,-39 -27,-102 -39,-141 -40,-135 -27,-274 38,-401 21,-40 97,-143 116,-156 6,-4 6,-20 -2,-46 -17,-55 -15,-90 8,-140 21,-47 37,-55 143,-78 121,-25 279,-11 342,30 17,11 24,11 43,-2 60,-40 207,-52 327,-27 64,14 70,14 79,-3 5,-9 25,-32 45,-51 106,-101 276,-101 383,1 75,70 104,199 69,302 -31,91 -150,177 -241,175 l -45,-1 49,-9 c 64,-10 107,-29 99,-42 -4,-6 0,-8 9,-4 18,6 82,-55 71,-68 -5,-4 -2,-5 5,-1 12,7 16,-4 13,-34 -2,-12 0,-12 7,-2 15,22 -26.5371,-20.5918 -23.5371,-114.5918 3,-76 50.5371,-83.4082 28.5371,-126.4082 -25,-45 -37,-55 -46,-39 -2,4 -2,1 -1,-5 2,-7 -6,-22 -18,-33 -20,-18 -22,-18 -35,-2 -12,15 -13,14 -2,-7 10,-21 9,-23 -5,-18 -12,5 -15,3 -10,-5 5,-8 2,-9 -10,-5 -9,4 -15,3 -12,-2 7,-11 -31.0137,29.53711 -91.0137,29.53711 C 1778.9863,200.53711 1687,178 1697,193 c 3,5 1,7 -4,4 -12,-7 -36,16 -27,25 3,3 -3,5 -13,5 -11,-1 -18,4 -17,14 1,9 -6,16 -14,15 -31,-2 -23,29 9,41 31,12 34,11 75,-27 61,-56 138,-64 217,-23 38,19 47,9 10,-12 -15,-9 -19,-13 -8,-9 11,3 25,7 32,7 6,0 10,9 8,19 -2,10 7,35 21,55 13,20 24,43 23,52 0,10 -5,6 -12,-11 -7,-14 -21,-36 -31,-47 -15,-17 -22,-19 -35,-9 -13,10 -14,10 -3,-2 12,-14 18,-39 6,-27 -4,3 -13,-1 -22,-9 -12,-13 -16,-13 -23,-2 -6,9 -9,9 -9,1 0,-7 -37.9727,64.10156 -56.9727,60.10156 C 1780.0273,305.10156 1746,247 1703,287 l -31,29 19,55 c 21,61 24,89 9,89 -11,0 -14,-7 -25,-53 -4,-21 -3,-27 6,-21 8,4 9,3 5,-4 -4,-7 -14,-12 -22,-12 -8,0 -14,-8 -14,-18 0,-10 -7,-27 -15,-38 -15,-19 -15,-19 -8,1 6,19 6,19 -14,2 -15,-13 -23,-15 -28,-7 -5,7 -10,8 -14,3 -11,-17 -94,-34 -151,-32 -30,1 -68,2 -85,2 -16,0 -33,5 -37,11 -6,8 -8,8 -8,0 0,-15 -69,7 -80,26 -5,7 -15,10 -25,6 -10,-3 -25,-1 -33,6 -13,11 -14,11 -7,-1 6,-11 4,-13 -8,-8 -9,3 -18,0 -21,-9 -3,-8 -17,-14 -31,-14 -14,0 -25,-4 -25,-8 0,-5 -12,-9 -27,-9 -150,-5 -201,-5 -211,0 -5,4 -13,1 -15,-5 -3,-8 -6,-6 -6,4 -1,11 -6,15 -16,12 -8,-4 -15,-1 -15,5 0,6 -8,11 -18,11 -10,0 -24,6 -31,12 -11,10 -13,10 -7,1 4,-7 3,-13 -1,-13 -10,0 -38,60 -48,101 -4,15 -2,44 4,65 8,30 8,43 -4,61 -8,12 -15,29 -15,37 0,9 -6,13 -15,10 -9,-4 -16,3 -21,20 -4,16 -11,23 -18,19 -6,-4 -4,1 3,11 13,16 13,17 -5,14 -13,-2 -18,2 -16,14 1,9 -2,19 -8,23 -5,3 -10,15 -10,26 0,11 -4,17 -10,14 -6,-4 -10,5 -10,19 0,14 -4,26 -10,26 -5,0 -10,9 -10,20 0,11 -5,20 -10,20 -6,0 -8,11 -4,25 3,14 2,25 -3,25 -5,0 -5,38 -1,88 4,48 5,96 2,107 -4,16 -3,17 5,5 5,-8 13,-11 18,-7 4,5 1,12 -6,16 -11,7 -11,14 2,37 8,16 23,58 33,94 23,84 56,136 97,153 19,8 34,22 35,33 3,25 8,59 17,112 5,30 11,39 16,30 6,-8 9,-2 9,21 0,24 4,32 14,28 8,-3 17,1 20,9 3,9 10,12 16,9 5,-3 10,-1 10,4 0,6 11,11 25,11 14,0 25,4 25,8 0,5 12,14 27,21 21,10 28,9 34,-1 7,-10 9,-10 9,1 0,10 9,12 33,7 64,-13 107,-16 107,-7 0,8 -30,15 -125,27 -26,3 -49,-1 -65,-10 z"
       id="path16"
       style="fill:#501616"
       sodipodi:nodetypes="cccscccccccccccccccccccccccccccccccsccsccsccccccccssccccsccccsccccsccsssccccccscsccccccsscccccssccsccsscccccccscsssscscccccccccccscccsssccscscc" />
    <path
       d="m 863,1602 c -10,-10 -31,-19 -47,-20 -39,-3 -64,-27 -72,-69 -4,-19 -9,-30 -13,-25 -3,6 -7,-15 -9,-46 -6,-107 -6,-106 -40,-113 -55,-11 -79,-34 -87,-81 -4,-24 -15.60547,-78.8027 -31.60547,-123.8027 -34,-98 -43,-204.00003 -24,-286.00003 14,-58 72,-176 87,-176 5,0 7,-4 4,-8 -7,-12 74,-103 85,-96 13,8 10,-15 -6,-61 C 689.39453,444.19727 687,390 708,363 c 38,-48 293.3945,-77.80273 318.3945,-37.80273 6,9 8,9 8,0 0,-8 9,-8 35,-1 19,6 31,16 28,21 -4,7 1,8 13,3 10,-4 15,-4 12,0 -4,3 0,13 8,22 9,9 13,23 10,36 -18,60 -19,79 -6,71 10,-6 11,-2 6,19 -4,16 -3,25 2,22 6,-3 15,1 22,9 7,9 8,15 2,15 -6,0 -9,25 -8,60 0,33 4,60 9,60 6,0 12,-105 7,-140 -1,-8 1,-12 6,-8 4,4 13,3 21,-3 17,-15 17,-5 -1,30 -8,15 -16,62 -17,107 -1,43 -6,81 -10,84 -7,5 -14,211 -8,235 2,6 6,-42 9,-105 5,-92 6,-75 6,90 -1,170.00003 -3,205.00003 -15,205.00003 -10,0 -15,13 -16,40 0,22 -2,71 -3,109 -1,38 -4,67 -7,64 -7,-7 -69.5234,-105.7618 -62.5234,-486.76175 5,-315 66.5234,-304.23828 47.5234,-351.23828 -23,-57 -27,-136 -8,-142 7,-3 -10,-13 -37,-24 -81.99997,-31 -160.74216,64.89063 -218.74216,102.89063 -22,14 -141.25781,-1.89063 -122.25781,24.10937 24,35 20,53 -24,106 -22,26 3.33984,172.65234 -1.66016,178.65234 -54,67 -59.05468,123.30664 -56.05468,202.30664 2,33.00005 -88.28516,37.04105 -88.28516,50.04105 1,12 4,22 9,22 4,0 7,10 7,23 0,13 3,27 7,31 10,10 60.57813,27.9121 60.57813,52.9121 C 651.97266,1171.1094 635,1272 640,1275 c 6,4 8,10 6,14 -3,4 16.39453,7.1973 36.39453,4.1973 l 37,-6 -67.42187,-128.0879 c 0,-138 75.42187,-176.91213 97.42187,-176.91213 8,0 15,-4 15,-8 0,-16 32.42187,-119.89063 80.42187,-119.89063 29,0 76.57813,79.89063 97.57813,67.89063 17,-11 32,-17 32,-13 0,4 6,-1 13,-11 12,-16 14.99997,-17 19.99997,-3 14,36 -81.99997,87 -162.99997,87 -28,0 -50,5 -50,11 0,5 -4,8.00003 -9,4 -5,-3 -13,0 -18,7.00003 -9,14 70,165 78,160 C 854.39453,1159.1973 758,1435 749,1440 c -5,3 -4,19 0,35 l 9,30 2,-30 2,-30 9,30 c 5,17 7,38 5,48 -3,11 -2,16 1,13 4,-3 12,-1 19,5 7,6 26,8 43,4 38,-8 47.39453,-34.8027 24.39453,-118.8027 -15,-54 -26,-142 -32,-249 0,-5 6,-11 14,-13 13,-2 15,8 11,59 -3,40 -1,60 5,56 12,-7 28,107 18,123 -3,6 -2,10 3,10 14,0 27.60547,45.8027 27.60547,82.8027 0,22 -8,43 -21,56 -28,28 -13,40 33,30 22,-5 36,-5 32,0 -3,5 0,9 5,9 6,0 11,-6 11,-14 0,-10 9,-12 40,-6 22,4 37,3 34,-1 -3,-5 2,-9 10,-9 8,0 17,-8 19,-17 3,-12 5,-10 6,7 1,43 -13,54 -68,52 -28,0 -53,3 -56,9 -10,16 -73,10 -92,-9 z m 305.3945,-511.8027 c 4,-24 3,-38 -4,-38 -5,0 -10,19 -10,42 0,49 5,47 14,-4 z"
       id="path18"
       style="fill:#501616"
       sodipodi:nodetypes="sccccccccscccccsccccccccccscscccccccccscssccccccccccsssscccccssscsccsscccccccccccscccccccsssccssccsccccscssc" />
    <path
       d="m 952,1485 c -10,-275 -8,-325 10,-325 12,0 18,7 17,23 -1,20 -2,21 -8,2 -3,-11 57.918,70 54.918,180 -3,110 -72.918,164 -73.918,120 z"
       id="path20"
       style="fill:#501616"
       sodipodi:nodetypes="csccsc" />
    <path
       d="M1316 1393 c6 -206 10 -233 31 -233 14 0 15 13 10 107 -4 58 -7 148 -7 200 0 86 -1 93 -20 93 -19 0 -20 -5 -14 -167z m21 -50 c-2 -21 -4 -6 -4 32 0 39 2 55 4 38 2 -18 2 -50 0 -70z"
       id="path22"
       style="fill:#501616" />
    <path
       d="M1232 1490 c0 -16 4 -30 9 -30 5 0 9 14 9 30 0 17 -4 30 -8 30 -5 0 -9 -13 -10 -30z"
       id="path24"
       style="fill:#501616" />
    <path
       d="M1180 1500 c-14 -4 -44 -5 -67 -2 -32 3 -43 1 -43 -9 0 -11 -2 -11 -10 1 -8 13 -10 13 -10 -1 0 -19 37 -32 46 -17 6 9 31 6 70 -9 11 -4 15 -3 11 4 -4 6 0 14 9 17 8 3 13 2 10 -3 -3 -5 1 -11 9 -15 11 -4 15 2 15 19 0 27 -1 27 -40 15z"
       id="path26"
       style="fill:#501616" />
    <path
       d="M1055 1435 c0 -14 3 -25 7 -25 9 0 7 -51 -2 -65 -12 -18 -18 -55 -9 -55 5 0 9 6 9 13 1 6 7 1 14 -12 12 -22 13 -20 10 25 -2 27 -5 69 -7 93 -3 47 -22 69 -22 26z"
       id="path28"
       style="fill:#501616" />
    <path
       d="M 1203.4492,1362.4219 C 1187.3417,1324.7184 1246,1274 1250,1235 c 7,-69 7,-69 7,-15 1,30 63,124 59,173 l -73,62 z"
       id="path30"
       style="fill:#501616"
       sodipodi:nodetypes="sccccs" />
    <path
       d="M1642 1388 c3 -7 14 -14 26 -16 11 -2 24 -12 27 -23 4 -11 10 -17 15 -14 5 3 12 -11 16 -32 6 -31 8 -34 14 -18 7 19 8 18 14 -5 15 -60 24 -125 19 -139 -5 -13 -3 -14 8 -3 11 10 16 -4 32 -85 22 -115 22 -128 7 -213 -12 -69 -30 -120 -42 -120 -4 0 -5 -7 -2 -15 4 -10 0 -15 -15 -15 -20 0 -27 -18 -22 -59 2 -7 -2 -10 -8 -6 -6 3 -11 1 -11 -5 0 -6 -5 -8 -12 -4 -7 5 -8 3 -3 -5 4 -7 -1 -22 -12 -34 -29 -33 -45 -96 -28 -113 19 -20 43 9 25 31 -12 15 -5 55 11 55 5 0 9 7 9 15 0 8 5 15 11 15 6 0 8 7 5 16 -3 8 -2 13 3 10 4 -3 14 7 22 22 8 15 21 34 30 42 19 18 53 107 70 179 15 71 6 167 -27 261 -14 41 -35 105 -46 141 -11 37 -30 78 -42 93 -24 30 -101 66 -94 44z"
       id="path32"
       style="fill:#501616" />
    <path
       d="M1048 1260 c-5 -58 -4 -80 2 -80 4 0 8 23 9 50 1 48 -7 71 -11 30z"
       id="path34"
       style="fill:#501616" />
    <path
       d="M1016 1195 c4 -33 8 -62 10 -64 9 -10 3 96 -6 109 -7 10 -8 -4 -4 -45z"
       id="path36"
       style="fill:#501616" />
    <path
       d="M1408 1173 c5 -76 10 -83 11 -15 0 34 -2 62 -7 62 -4 0 -6 -21 -4 -47z"
       id="path38"
       style="fill:#501616" />
    <path
       d="M1483 1145 c-1 -27 2 -41 4 -31 4 15 7 16 14 5 7 -11 9 -11 9 4 0 9 -4 17 -9 17 -5 0 -12 12 -14 28 -2 15 -4 5 -4 -23z"
       id="path40"
       style="fill:#501616" />
    <path
       d="m 977,1096 c -5,-21 -74.11523,-89.3398 -71.11523,-92.3398 12,-11.00004 151.03323,20.1835 82.11523,92.3398 l -66.7207,58.7754 z"
       id="path42"
       style="fill:#501616"
       sodipodi:nodetypes="ccccc" />
    <path
       d="M1689 1088 c-2 -18 -1 -53 2 -78 5 -36 6 -30 7 33 1 81 -3 100 -9 45z"
       id="path44"
       style="fill:#501616" />
    <path
       d="M1243 990 c0 -36 2 -50 4 -32 2 17 2 47 0 65 -2 17 -4 3 -4 -33z"
       id="path46"
       style="fill:#501616" />
    <path
       d="M853 830 c0 -36 2 -50 4 -32 2 17 2 47 0 65 -2 17 -4 3 -4 -33z"
       id="path48"
       style="fill:#501616" />
    <path
       d="M812 793 c-1 -28 -5 -60 -8 -70 -5 -17 -5 -17 6 0 6 9 9 41 7 70 l-3 52 -2 -52z"
       id="path50"
       style="fill:#501616" />
    <path
       d="m 1271,783 c 0,-35 2,-63 7,-63 4,0 71.918,21 69.918,48 -5,75 -126.4551,108.36719 -76.918,15 z"
       id="path52"
       style="fill:#501616"
       sodipodi:nodetypes="cscc" />
    <path
       d="M893 715 c0 -38 2 -53 4 -32 2 20 2 52 0 70 -2 17 -4 1 -4 -38z"
       id="path54"
       style="fill:#501616" />
    <path
       d="M839 748 c-2 -7 -1 -51 2 -98 l5 -85 2 98 c2 91 -1 115 -9 85z"
       id="path56"
       style="fill:#501616" />
    <path
       d="M1003 675 c0 -33 2 -45 4 -27 2 18 2 45 0 60 -2 15 -4 0 -4 -33z"
       id="path58"
       style="fill:#501616" />
    <path
       d="M1824 603 c3 -4 17 -8 29 -10 12 -2 24 -8 25 -13 2 -6 8 -8 13 -4 14 8 70 -29 64 -44 -2 -7 -1 -10 4 -7 12 7 42 -35 35 -47 -3 -4 0 -8 5 -8 40 0 -32 94 -91 120 -45 19 -99 28 -84 13z"
       id="path60"
       style="fill:#501616" />
    <path
       d="M1043 525 c0 -38 2 -53 4 -32 2 20 2 52 0 70 -2 17 -4 1 -4 -38z"
       id="path62"
       style="fill:#501616" />
    <path
       d="M1504 488 c0 -32 4 -58 8 -58 9 0 9 43 -2 85 -5 23 -7 17 -6 -27z"
       id="path64"
       style="fill:#501616" />
    <path
       d="m 1188,440 c 3,-36 9,-67 14,-68 4,-2 6,-8 2,-13 -3,-5 4,-9 14,-9 11,0 25,-7 32,-15 7,-9 21,-13 35,-9 13,3 26,1 29,-5 17,-27 239,-4 264,27 7,10 12,11 12,4 0,-10 5,-10 20,-2 11,6 18,15 15,20 -3,4 -1,10 4,12 6,1 12,15 15,29 4,23 1,26 -16,21 -14,-3 -16,-8 -9,-15 16,-16 13,-30 -5,-23 -11,4 -15,2 -11,-7 3,-7 -3,-13 -12,-14 -10,-1 -39.5062,-15.14949 -72.8301,14.95898 C 1244.4599,635.25895 1305,341 1256,366 c -16,8 -35,14 -43,14 -7,0 -13,8 -13,18 0,13 2,14 9,4 13,-21 18,5 10,53 -4,27 -7,32 -8,15 -2,-25 -2,-25 -15,5 -13,28 -13,25 -8,-35 z"
       id="path66"
       style="fill:#501616"
       sodipodi:nodetypes="sccsccccscccccscccscssccccs" />
  </g>
</svg>
