<?xml version="1.0" encoding="UTF-8" standalone="no"?>
<!-- Created with Inkscape (http://www.inkscape.org/) -->

<svg
   width="210mm"
   height="297mm"
   viewBox="0 0 210 297"
   version="1.1"
   id="svg5"
   inkscape:version="1.1.1 (3bf5ae0d25, 2021-09-20)"
   sodipodi:docname="Shop now.svg"
   xmlns:inkscape="http://www.inkscape.org/namespaces/inkscape"
   xmlns:sodipodi="http://sodipodi.sourceforge.net/DTD/sodipodi-0.dtd"
   xmlns="http://www.w3.org/2000/svg"
   xmlns:svg="http://www.w3.org/2000/svg">
  <sodipodi:namedview
     id="namedview7"
     pagecolor="#ffffff"
     bordercolor="#666666"
     borderopacity="1.0"
     inkscape:pageshadow="2"
     inkscape:pageopacity="0.0"
     inkscape:pagecheckerboard="0"
     inkscape:document-units="mm"
     showgrid="false"
     inkscape:lockguides="true"
     inkscape:zoom="0.32252323"
     inkscape:cx="241.84305"
     inkscape:cy="348.81209"
     inkscape:window-width="1366"
     inkscape:window-height="697"
     inkscape:window-x="-8"
     inkscape:window-y="-8"
     inkscape:window-maximized="1"
     inkscape:current-layer="layer1" />
  <defs
     id="defs2">
    <rect
       x="96.466535"
       y="285.01476"
       width="563.45226"
       height="523.98868"
       id="rect14615" />
    <rect
       x="107.42864"
       y="291.59203"
       width="587.5689"
       height="464.79331"
       id="rect5911" />
    <rect
       x="149.08465"
       y="342.01772"
       width="291.59203"
       height="263.09055"
       id="rect957" />
  </defs>
  <g
     inkscape:label="Layer 1"
     inkscape:groupmode="layer"
     id="layer1">
    <text
       xml:space="preserve"
       transform="scale(0.26458333)"
       id="text955"
       style="font-size:9.60000012px;line-height:1.25;font-family:Elephant;-inkscape-font-specification:'Elephant, Normal';font-variant-ligatures:none;white-space:pre;shape-inside:url(#rect957)" />
    <text
       xml:space="preserve"
       transform="scale(0.26458333)"
       id="text14613"
       style="line-height:1.25;font-family:Elephant;font-size:24px;-inkscape-font-specification:'Elephant, Normal';font-variant-ligatures:none;white-space:pre;shape-inside:url(#rect14615)" />
    <path
       style="fill:#ff9955;stroke-width:0.264583"
       id="path14916"
       d="m 12.482227,154.70968 c 5.299933,-1.2828 10.633,-2.34978 16.040631,-3.06912 2.227578,-0.29631 4.468305,-0.48472 6.699131,-0.75551 17.026186,-2.0667 -1.892535,0.0716 14.748613,-1.77021 11.101279,-1.13914 22.201933,-2.27234 33.283977,-3.58827 4.671388,-0.38139 9.183359,-1.64983 13.733505,-2.67518 2.451393,-0.5524 2.887228,-0.58263 5.326476,-0.96992 5.44994,-0.83416 10.95388,-1.01847 16.4575,-1.02467 4.45079,0.0215 8.8962,0.18252 13.34037,0.41295 0.55034,0.0293 1.10068,0.0586 1.65101,0.0879 0,0 37.90734,-27.53066 37.90734,-27.53066 v 0 c -0.62827,0.0271 -1.25655,0.0543 -1.88483,0.0814 -4.85063,0.20508 -9.7019,0.35107 -14.55657,0.41731 -5.66021,0.0803 -11.34434,-0.0109 -16.97942,0.58126 -2.60423,0.40589 -3.67192,0.52031 -6.28012,1.14816 -5.1829,1.24762 -10.10326,3.42829 -15.3742,4.36468 -12.13801,2.66184 -24.339888,5.1294 -36.703968,6.4848 -7.512478,0.70912 -6.073767,0.70347 -13.354992,0.90369 -4.139927,0.11383 -9.269661,0.52958 -13.265348,-0.97967 -0.360489,-0.13616 -0.605303,-0.47706 -0.907955,-0.71559 0,0 -39.88115,28.59673 -39.88115,28.59673 z" />
    <path
       style="fill:#ff9955;stroke-width:0.264583"
       id="path14918"
       d="m 3.5869115,173.77068 c 8.9317775,-2.39224 18.2227025,-2.43498 27.3985455,-2.43467 2.323367,-0.002 4.646734,-0.006 6.970101,-0.007 2.527385,-0.001 5.055021,-0.0349 7.582154,7.9e-4 8.692518,0.12296 17.372248,0.65436 26.047962,1.16566 9.537051,0.55993 19.054659,1.42866 28.599756,1.83823 8.30778,-0.0629 16.61542,0.0589 24.92305,0.0437 4.54226,0.0287 9.07592,-0.0805 13.60058,-0.48169 3.02492,-0.23451 6.00378,-0.74067 8.96118,-1.39857 2.18378,-0.50421 4.31467,-1.20132 6.38266,-2.0617 15.655,-7.15796 0.62515,-0.25048 42.99317,-24.78054 0,0 -45.02366,17.44364 -45.02366,17.44364 v 0 c 40.73983,-23.52051 53.41807,-31.94359 39.57794,-22.77632 -1.97266,1.22729 -4.00778,2.31247 -6.20832,3.0786 -3.06156,1.11712 -6.18739,2.13378 -9.42001,2.61338 -5.14271,0.97158 -10.3068,1.79182 -15.51587,2.32695 -8.77293,1.05189 -17.59109,2.00975 -26.44332,1.66188 -10.21494,-0.54114 -20.4355,-0.96995 -30.66573,-0.52735 -13.347109,0.40718 -26.770945,0.83619 -40.00398,-1.36585 -8.456531,-1.04269 -2.14775,-0.29221 -10.115037,-1.17311 -3.152359,-0.34855 -6.432928,-0.55688 -9.519139,-1.35167 -0.432739,-0.11144 -0.843682,-0.29484 -1.265523,-0.44226 0,0 -38.8565095,28.62803 -38.8565095,28.62803 z" />
    <path
       style="fill:#ff9955;stroke-width:0.264583"
       id="path14920"
       d="m -4.5026294,191.26495 c 2.4116759,2.49942 5.21601832,2.04947 8.4278705,2.27739 2.4090383,0.17096 4.8148123,0.38538 7.2230819,0.56684 8.712466,0.71843 17.431468,1.57796 26.184112,1.53172 2.424838,-0.0128 4.848209,-0.12188 7.272311,-0.18283 14.003891,-0.60798 28.002156,-1.28551 42.01387,-1.69158 8.705897,-0.22699 17.408634,-0.51227 26.115614,-0.6955 5.68591,-0.21202 11.36746,-0.19421 17.05209,0.01 3.85181,0.0832 7.69374,0.42002 11.51691,0.88304 1.44756,0.22802 2.89872,0.42903 4.34665,0.65465 0,0 38.67513,-27.4136 38.67513,-27.4136 v 0 c -1.589,-0.13045 -3.17468,-0.28988 -4.76288,-0.42986 -4.30434,-0.39376 -8.63231,-0.43927 -12.95246,-0.45558 -6.34258,0.21879 -12.69342,0.43116 -19.00921,1.08452 -9.89595,0.98605 -19.78651,2.03364 -29.65708,3.24933 -14.08029,1.59873 -28.240148,3.10855 -42.433308,2.45955 -9.600592,-0.77807 -19.238688,-1.84828 -28.61609,-4.11362 -1.911321,-0.51052 -3.84652,-0.93629 -5.738643,-1.51392 -0.665898,-0.20328 -1.307674,-0.47851 -1.96151,-0.71777 -0.297936,-0.14814 -0.578228,-0.33896 -0.893807,-0.44442 -0.06994,-0.0234 -0.0776,0.35665 0.106391,0.19399 0,0 -42.9090424,24.74808 -42.9090424,24.74808 z" />
    <path
       style="fill:#ff9955;stroke-width:0.264583"
       id="path14922"
       d="m -5.1081299,216.79965 c 7.4606984,-1.95245 15.0685342,-3.24141 22.7677799,-3.76732 9.615793,-0.65682 19.29944,-0.0891 28.915996,0.20541 15.50852,0.63177 31.013937,1.33334 46.518811,2.04838 9.176183,0.50436 18.363553,0.38325 27.538633,-0.0379 5.3979,-0.24789 10.78859,-0.64837 16.14493,-1.36692 2.56184,-0.35774 5.108,-0.8134 7.66387,-1.20886 0,0 37.22847,-28.26922 37.22847,-28.26922 v 0 c -2.75702,0.74059 -5.54936,1.33729 -8.34159,1.93087 -6.00089,1.30338 -12.04768,2.34217 -18.12081,3.25281 -10.36355,1.56941 -20.79158,2.62425 -31.25724,3.2314 -16.79697,1.00287 -33.628139,1.57468 -50.454384,0.99132 -3.586425,-0.11914 -15.057715,-0.46832 -18.677371,-0.71481 -5.490239,-0.37388 -13.819685,-0.88232 -18.833523,-3.72922 -0.459867,-0.26112 -0.687224,-0.80397 -1.030836,-1.20595 0,0 -40.0627359,28.63996 -40.0627359,28.63996 z" />
    <path
       style="fill:#ff9955;stroke-width:0.264583"
       id="path14924"
       d="m 10.478797,234.72979 c 0.446181,0.24671 0.840602,0.63059 1.338542,0.74013 3.043638,0.66955 5.948171,0.16256 9.022292,-0.0963 2.433914,-0.20492 4.860599,-0.50297 7.298708,-0.64978 6.532584,-0.39336 8.597935,-0.23166 15.105608,-0.11694 9.305506,0.0413 18.536861,1.4171 27.824548,1.77301 3.418988,0.13101 9.978221,0.0827 13.444966,0.0749 9.86069,0.0538 19.703149,-0.45371 29.539659,-1.07079 6.13311,-0.44976 12.25013,-1.08261 18.36179,-1.75843 3.51571,-0.34381 7.01241,-0.81204 10.50859,-1.3088 2.66214,-0.45713 5.34359,-0.7489 8.02947,-1.01837 0.38746,-0.0259 0.77491,-0.0518 1.16237,-0.0777 0,0 38.2814,-28.71636 38.2814,-28.71636 v 0 c -0.40574,0.0962 -0.81149,0.19236 -1.21723,0.28854 -2.82558,0.41866 -5.66929,0.6662 -8.48948,1.11984 -4.02721,0.7594 -8.00989,1.70994 -12.03298,2.49071 -6.78815,1.38262 -13.60339,2.63931 -20.46584,3.59927 -10.90291,1.66002 -21.82769,3.30995 -32.84804,3.95322 -2.23633,0.0887 -4.47118,0.23142 -6.709,0.26614 -3.29264,0.0511 -10.281942,-0.13316 -13.544829,-0.23246 -2.810235,-0.0855 -11.709802,-0.4097 -14.452653,-0.56007 -2.430928,-0.13327 -4.858086,-0.3282 -7.287127,-0.4923 -6.702161,-0.48942 -13.965555,-0.45672 -20.108426,-3.57179 -0.229335,-0.11629 -0.909651,-0.63497 -0.617802,-0.46193 0,0 -42.144536,25.8262 -42.144536,25.8262 z" />
    <path
       style="fill:#ff9955;stroke-width:0.264583"
       id="path14926"
       d="m 53.576817,159.01833 c 1.00153,-0.36096 1.979703,-0.79485 3.004593,-1.08289 6.877079,-1.93271 14.310756,-2.06313 21.398724,-2.42211 8.316407,-0.50001 16.653113,-0.41525 24.980746,-0.46178 6.24381,-0.0343 12.47788,-0.39825 18.72072,-0.46552 4.47557,-0.0626 8.94932,-0.0718 13.42101,-0.28089 3.02161,-0.11727 6.04156,-0.24343 9.06017,-0.41943 2.41742,-0.11239 4.83543,-0.18829 7.25261,-0.31062 1.4895,-0.17766 3.002,-0.17351 4.47003,-0.51413 0.84064,-0.19505 1.66426,-0.4574 2.49866,-0.67766 2.85408,-0.68948 5.76551,-1.10815 8.68291,-1.41511 1.6344,-0.14505 0.83178,-0.0921 2.4076,-0.163 0,0 38.34424,-28.60159 38.34424,-28.60159 v 0 c -1.70588,0.34386 -0.82857,0.2024 -2.63343,0.41504 -2.90803,0.34383 -5.81526,0.69381 -8.72302,1.03886 -0.59625,0.0568 -1.75699,0.14837 -2.36169,0.27672 -1.39378,0.29584 -2.69569,0.99891 -4.15561,1.00286 -2.48496,0.42054 -5.00324,0.65489 -7.51941,0.7823 -3.34386,0.22242 -6.66872,0.61302 -9.99552,1.01523 -4.84036,0.52557 -9.6824,1.02911 -14.54588,1.28953 -6.65193,0.52616 -13.31492,0.90232 -19.96831,1.40702 -8.60447,0.6445 -17.22233,1.21008 -25.85661,1.13428 -4.17949,0.0877 -8.38705,0.39611 -12.567416,0.31251 -0.793912,-0.0159 -4.627724,-0.22699 -5.710706,-0.53935 -0.414856,-0.11966 -0.738045,-0.44831 -1.107064,-0.67247 0,0 -39.097347,29.3522 -39.097347,29.3522 z" />
    <path
       style="fill:#ff9955;stroke-width:0.264583"
       id="path14928"
       d="m 108.65457,140.64372 c 0.94955,-0.41688 1.86789,-0.91369 2.84865,-1.25063 5.9591,-2.04727 12.84892,-2.28029 19.09845,-2.60318 6.22452,-0.28669 12.45544,-0.37373 18.68369,-0.54442 4.20888,-0.10453 8.41925,-0.13472 12.62927,-0.1167 2.58757,0.0327 5.17623,0.0117 7.76318,0.0809 2.39277,-0.1051 4.77623,-0.42316 7.1486,-0.74668 0.3472,-0.0428 0.69441,-0.0856 1.04162,-0.12832 0,0 38.34704,-29.06516 38.34704,-29.06516 v 0 c -0.34275,0.0989 -0.68551,0.1978 -1.02827,0.29669 -2.26989,0.47919 -4.54621,0.89292 -6.84533,1.21385 -2.883,0.39833 -5.81028,0.39499 -8.70393,0.70607 -4.709,0.37775 -9.41782,0.7566 -14.12638,1.1398 -6.6724,0.52503 -13.34217,1.07536 -20.02297,1.48759 -3.76322,0.26827 -7.53296,0.57076 -11.30673,0.64447 -1.29871,0.0254 -4.09403,0.09 -5.51763,-0.29005 -0.39139,-0.10447 -0.69801,-0.41132 -1.04702,-0.61698 0,0 -38.96224,29.79279 -38.96224,29.79279 z" />
    <path
       style="fill:#ff9955;stroke-width:0.264583"
       id="path14930"
       d="m 35.941553,164.6124 c 0.686252,-0.1646 1.361384,-0.38562 2.058762,-0.49381 1.297977,-0.20135 6.956412,-0.57918 7.595142,-0.61993 6.155611,-0.39271 12.310687,-0.5907 18.475698,-0.75821 9.821897,-0.006 19.640635,0.39258 29.447162,0.91492 3.656528,0.12037 7.306073,0.38187 10.956533,0.61446 0,0 35.34147,-25.48935 35.34147,-25.48935 v 0 c -3.95749,-0.0325 -7.91501,-0.0516 -11.87253,-0.0799 -10.73555,0.28523 -21.45507,1.079 -32.198586,1.05131 -6.025968,-0.24546 -11.786405,-0.29209 -17.501968,-2.4324 -0.6067,-0.22719 -1.215012,-0.45978 -1.787427,-0.76316 -0.345763,-0.18325 -0.634045,-0.45883 -0.951066,-0.68825 0,0 -39.56319,28.74434 -39.56319,28.74434 z" />
    <path
       style="fill:#ff9955;stroke-width:0.264583"
       id="path14932"
       d="m 27.821652,186.42425 c 10.219168,-3.28538 21.075305,-3.29338 31.701057,-3.37817 8.597939,-0.009 17.192706,0.19157 25.783476,0.51928 5.910553,0.16578 11.800768,0.70339 17.695365,1.13474 2.08153,0.17722 4.1691,0.24057 6.25649,0.29424 0,0 37.40769,-27.43505 37.40769,-27.43505 v 0 c -2.23977,0.24897 -4.48296,0.47393 -6.74129,0.43262 -6.60787,0.165 -13.2157,0.39798 -19.82671,0.36743 -9.24314,0.0859 -18.48974,0.25499 -27.724638,0.66965 -5.408748,0.27207 -10.83441,0.64524 -16.253717,0.5271 -2.130179,-0.0464 -5.886799,-0.20191 -8.108709,-0.80686 -0.637246,-0.1735 -1.187924,-0.57755 -1.781887,-0.86633 0,0 -38.407127,28.54135 -38.407127,28.54135 z" />
    <path
       style="fill:#ff9955;stroke-width:0.264583"
       id="path14934"
       d="m 35.493573,213.90804 c 9.970627,-3.6109 20.710948,-3.82368 31.186556,-4.32282 9.009132,-0.0939 18.017308,-0.30208 27.026267,-0.40617 5.969685,-0.0609 11.939154,-0.12882 17.908924,-0.18021 4.18571,-0.0923 8.37259,-0.20472 12.55194,-0.4593 2.83742,-0.16606 5.62203,-0.78906 8.45439,-1.02019 2.66564,-0.21751 3.60766,-0.14707 6.26879,-0.11928 3.43445,0.13766 6.85311,0.51721 10.26723,0.89786 0,0 37.14055,-26.63663 37.14055,-26.63663 v 0 c -3.75244,-0.0656 -7.50564,-0.14536 -11.25423,-0.33485 -2.69437,-0.16423 -3.07226,-0.13642 -5.68201,-0.48579 -2.59625,-0.34756 -5.16256,-0.88518 -7.76128,-0.16321 -4.46219,0.74974 -8.96637,1.1395 -13.47511,1.49873 -6.64286,0.62017 -13.30575,1.01726 -19.9454,1.6816 -9.68997,0.85529 -19.40168,1.42734 -29.112796,1.98248 -0.245092,0.009 -10.631226,0.41235 -10.924516,0.41994 -3.681405,0.0953 -8.855083,0.30971 -12.480811,-0.62783 -0.519391,-0.1343 -0.964227,-0.47061 -1.446342,-0.70592 0,0 -38.722152,28.98159 -38.722152,28.98159 z" />
    <path
       style="fill:#ff9955;stroke-width:0.264583"
       id="path14936"
       d="m 121.87053,213.81761 c 7.66251,-2.39567 15.70865,-1.48437 23.49877,-0.32998 2.95488,0.48353 5.89153,1.06813 8.8289,1.64607 0,0 36.6168,-25.90123 36.6168,-25.90123 v 0 c -3.40429,-0.23156 -6.80851,-0.46503 -10.20969,-0.73951 -1.38022,-0.11477 -6.81937,-0.56197 -8.14445,-0.69299 -3.43178,-0.3393 -7.05114,-0.61366 -10.30173,-1.87896 -0.4949,-0.19264 -0.92818,-0.51633 -1.39227,-0.7745 0,0 -38.89633,28.6711 -38.89633,28.6711 z" />
    <path
       style="fill:#ff9955;stroke-width:0.264583"
       id="path14938"
       d="m 126.31429,178.95048 c 6.3601,-1.09127 12.75579,-0.0993 19.06372,0.82042 3.89892,0.56725 7.78569,1.2104 11.68969,1.74188 0,0 37.68213,-26.99953 37.68213,-26.99953 v 0 c -4.38332,-0.0225 -8.76721,-0.0533 -13.1364,-0.45778 -2.0687,-0.16548 -4.47056,-0.33617 -6.52785,-0.58856 -2.53727,-0.31129 -5.53266,-0.54537 -7.71572,-2.05713 -0.26445,-0.18313 -0.40789,-0.49751 -0.61183,-0.74626 0,0 -40.44374,28.28696 -40.44374,28.28696 z" />
    <path
       style="fill:#ff9955;stroke-width:0.264583"
       id="path14940"
       d="m -13.553903,118.13084 c 7.9684055,0.36958 15.3634604,3.51692 22.5803975,6.64145 6.8357085,3.3611 14.0069305,5.91905 21.1091795,8.64013 1.12578,0.39343 2.252982,0.78282 3.377345,1.18028 1.072131,0.379 2.124683,0.81646 3.212092,1.14911 2.806171,0.85843 5.130755,1.27035 8.024783,1.85773 5.271913,1.07 3.452336,0.71289 8.808778,1.66297 7.68024,1.23185 15.363134,2.46046 23.092278,3.34314 6.539497,0.812 13.134601,0.39079 19.667323,-0.23676 5.821787,-0.57592 11.579967,-1.65441 17.304437,-2.83825 2.69623,-0.69826 5.53169,-0.92655 8.18502,-1.8009 2.56987,-0.84684 7.33666,-2.85518 9.38853,-3.68857 2.03811,-0.73431 4.07622,-1.46862 6.11433,-2.20292 0,0 31.47835,-24.36756 31.47835,-24.36756 v 0 c -1.60004,0.40836 -3.20008,0.81671 -4.80012,1.22507 -1.26403,0.15484 -3.96947,0.43495 -5.39189,0.76277 -3.01026,0.69375 -5.86235,2.03174 -8.91986,2.56577 -5.94612,1.58733 -11.89073,3.25016 -18.0084,4.0513 -6.41965,0.83027 -12.81361,1.18024 -19.28876,0.94199 -8.11137,-0.21265 -16.256061,-0.48575 -24.265843,-1.89101 -2.919327,-0.58421 -5.309137,-1.01018 -8.178548,-1.78713 -3.682595,-0.99715 -3.41117,-1.1323 -6.956925,-2.24728 -1.114991,-0.35061 -2.251403,-0.62997 -3.368757,-0.97297 -1.145209,-0.35156 -2.278679,-0.74028 -3.418017,-1.11042 -7.395824,-2.30084 -14.626871,-5.03747 -21.84087,-7.85334 -2.904019,-1.13249 -5.071478,-1.928254 -7.906552,-3.232411 -2.981666,-1.371592 -6.236615,-2.900932 -8.41344,-5.467506 -0.304694,-0.359246 -0.452218,-0.826487 -0.678325,-1.239732 0,0 -40.906536,26.915049 -40.906536,26.915049 z" />
    <path
       style="fill:#ff9955;stroke-width:0.264583"
       id="path14942"
       d="m 18.712581,101.56914 c 0.926887,-0.40695 1.816555,-0.91226 2.78066,-1.22085 2.390637,-0.765186 5.14295,-1.067208 7.622178,-1.224545 4.31365,-0.273751 8.564285,0.04194 12.859991,0.39067 8.001807,0.803135 15.996208,1.616805 23.987394,2.523735 8.712608,0.83895 17.314127,2.5628 25.917755,4.13455 6.453473,1.07413 12.910041,2.12725 19.359011,3.22842 4.75957,0.76786 9.51152,1.58615 14.29196,2.21498 3.0538,0.41061 6.11635,0.70796 9.18927,0.92093 0.74462,0.0516 1.48705,0.15914 2.23345,0.16058 0.97476,0.002 1.94693,-0.10043 2.9204,-0.15064 1.09001,-0.13889 2.18615,-0.23606 3.27002,-0.41667 2.73176,-0.45519 5.36628,-1.13993 8.0718,-1.72588 3.74338,-0.81073 7.51102,-1.49243 11.27807,-2.18124 5.68622,-1.01699 11.409,-1.78008 17.14583,-2.43972 0.75459,-0.0747 1.50918,-0.14932 2.26377,-0.22398 0,0 36.59683,-27.371886 36.59683,-27.371886 v 0 c -0.83857,0.147521 -1.67714,0.295045 -2.5157,0.442569 -6.34199,0.959622 -12.66082,2.084218 -18.92952,3.445692 -6.81866,1.421704 -13.61573,3.031175 -20.5771,3.59601 -4.55959,0.219112 -8.96303,-0.04567 -13.49562,-0.57726 -5.04307,-0.566727 -10.0834,-1.157589 -15.14212,-1.571201 -6.98363,-0.644327 -13.97186,-1.247751 -20.94296,-2.018806 -8.75357,-0.998862 -17.54465,-1.986642 -26.12948,-4.023214 -8.013714,-1.338043 -16.099516,-2.209276 -24.211627,-2.662624 -4.099584,-0.33864 -8.188929,-0.666533 -12.267589,-1.210847 -1.206826,-0.161057 -4.416531,-0.581924 -5.757423,-0.976844 -0.48341,-0.142372 -0.916057,-0.420312 -1.374085,-0.630468 0,0 -38.445165,29.568539 -38.445165,29.568539 z" />
    <path
       style="fill:#ff9955;stroke-width:0.264583"
       id="path14944"
       d="m 20.220333,109.8318 c 1.224509,-0.20279 2.434689,-0.53204 3.673527,-0.60837 7.994956,-0.49259 16.147917,2.065 23.72948,4.2825 3.733655,1.0695 7.384325,2.43763 11.125494,3.48107 3.728847,1.04 7.545168,1.74455 11.343055,2.4721 6.117479,1.1216 12.249325,2.40832 18.503492,2.36221 1.476823,-0.0109 2.949708,-0.15405 4.424561,-0.23107 1.781691,-0.35635 3.573667,-0.66466 5.345078,-1.06902 2.58792,-0.59075 6.84605,-1.81518 9.44303,-2.53704 4.24735,-1.18059 8.48633,-2.28754 12.7844,-3.26799 9.45895,-2.14265 19.14873,-2.55372 28.80852,-2.53432 6.69038,0.13271 13.37939,0.4063 20.06066,0.78158 4.52965,-0.14799 9.03896,-0.23249 13.56876,-0.0446 0,0 35.58649,-25.691035 35.58649,-25.691035 v 0 c -3.01252,-0.05839 -3.87935,-0.02944 -6.86466,-0.266467 -1.0207,-0.08104 -2.03438,-0.241303 -3.05584,-0.312124 -0.95863,-0.06646 -1.92072,-0.06633 -2.88108,-0.0995 -7.55858,0.369898 -15.1212,0.649713 -22.68029,1.009182 -6.61134,0.291144 -13.22409,0.56707 -19.83219,0.922001 -1.57057,0.08436 -3.1451,0.112837 -4.71174,0.252241 -1.50873,0.134252 -3.0056,0.378803 -4.5084,0.568203 -3.82669,0.747149 -5.11774,0.923663 -8.89341,1.966777 -5.92541,1.637033 -11.66854,3.968795 -17.74255,5.04639 -1.24963,0.05891 -2.498,0.159401 -3.7489,0.176734 -6.11447,0.08472 -12.21162,-0.896842 -18.24705,-1.736238 -7.853481,-1.431978 -15.601608,-3.368413 -23.433065,-4.916279 -4.680826,-1.092424 -9.411285,-2.107247 -13.999128,-3.557143 -2.406533,-0.760534 -4.924166,-1.591447 -7.031516,-3.049494 -0.589465,-0.407842 -1.021686,-1.005674 -1.53253,-1.508512 0,0 -39.234198,28.108194 -39.234198,28.108194 z" />
    <path
       style="fill:#ff9955;stroke-width:0.264583"
       id="path14946"
       d="m 56.754852,116.78391 c 8.975934,-1.37347 18.13646,-0.68507 27.066422,0.72432 1.851078,0.29215 3.686591,0.67557 5.529887,1.01336 7.221717,1.32094 14.178499,3.72235 21.322729,5.3603 1.29375,0.29662 2.59888,0.54123 3.89833,0.81184 7.4229,1.81275 15.03305,2.37036 22.62717,2.91804 3.97428,0.21055 7.94403,0.61923 11.92704,0.65049 2.05846,0.0162 3.78044,-0.0877 5.84939,-0.17777 6.41371,-0.54351 12.85171,-0.28868 19.26841,0.0328 0,0 36.43101,-26.47662 36.43101,-26.47662 v 0 c -6.50548,0.30261 -13.03598,0.64149 -19.54006,0.13086 -2.18057,-0.0696 -3.42983,-0.14816 -5.60682,-0.0648 -4.35591,0.16669 -8.70398,0.69896 -13.07241,0.50876 -2.45514,-0.0268 -5.13303,-0.0253 -7.58388,-0.17634 -5.06789,-0.31234 -10.08828,-1.14907 -15.10373,-1.89659 -9.25718,-1.678321 -18.5235,-3.307519 -27.86424,-4.46197 -4.91267,-0.737611 -6.65669,-0.943801 -11.52471,-1.895944 -3.62005,-0.708051 -9.23843,-1.6154 -12.333095,-3.863543 -0.38341,-0.27853 -0.545301,-0.775224 -0.817951,-1.162836 0,0 -40.473492,28.025733 -40.473492,28.025733 z" />
    <path
       style="fill:#ff9955;stroke-width:0.264583"
       id="path14948"
       d="m 86.780472,210.63867 c 1.441834,-0.22219 2.871195,-0.55146 4.325498,-0.66656 3.422574,-0.27089 6.630149,-0.0131 10.03525,0.32065 5.24904,0.51456 10.44562,1.45902 15.66812,2.1812 9.89171,1.39267 19.71024,3.26614 29.51252,5.17934 3.67187,0.76414 7.33881,1.57418 11.07165,1.99084 1.68681,0.18829 3.38399,0.27112 5.07258,0.44277 5.34697,0.54354 5.74378,0.66727 11.07193,1.46393 7.31929,1.27695 14.54505,3.02534 21.76818,4.75167 0,0 35.29678,-24.78376 35.29678,-24.78376 v 0 c -8.04262,-0.78703 -16.09208,-1.62108 -24.04763,-3.07052 -4.15635,-0.882 -5.8335,-1.16598 -9.85692,-2.28902 -1.34911,-0.37657 -2.65973,-0.88642 -4.01578,-1.23715 -3.88814,-1.00562 -7.89569,-1.26421 -11.88141,-1.58436 -10.3275,-0.97754 -20.68228,-1.95206 -30.84502,-4.11323 -4.94475,-0.98887 -9.91725,-1.81255 -14.84792,-2.87042 -2.35472,-0.5052 -5.44585,-1.06504 -7.67862,-2.16907 -0.66004,-0.32638 -1.17265,-0.89083 -1.75897,-1.33625 0,0 -38.890238,27.78994 -38.890238,27.78994 z" />
    <path
       style="fill:#ff9955;stroke-width:0.264583"
       id="path14950"
       d="m 119.98848,239.42681 c 5.7999,-1.33021 11.75106,0.22227 17.36388,1.72046 3.31457,0.90099 6.47561,2.28374 9.8513,2.95805 1.37995,0.27565 4.04624,0.64579 5.43976,0.84894 4.61308,0.55247 9.22841,1.08109 13.84823,1.57271 3.35849,0.40707 6.73984,0.50341 10.11307,0.71782 1.872,0.12885 0.95304,0.0649 2.75688,0.19179 0,0 38.51121,-27.82286 38.51121,-27.82286 v 0 c -1.98731,0.0252 -0.97739,0.0148 -3.02975,0.0308 -3.55747,-0.003 -7.11213,-0.15159 -10.66968,-0.1606 -4.85979,-0.0725 -9.72815,-0.15946 -14.56662,-0.65686 -5.31738,-0.61192 -10.5456,-1.80329 -15.78651,-2.86948 -3.91405,-0.86229 -9.73573,-1.91133 -12.94147,-4.45027 -0.25026,-0.19821 -0.41432,-0.48581 -0.62148,-0.72872 0,0 -40.26882,28.64819 -40.26882,28.64819 z" />
    <path
       style="fill:#ff9955;stroke-width:0.264583"
       id="path14952"
       d="m 63.892538,244.25163 c 1.149342,-0.37956 2.265746,-0.87931 3.448021,-1.13867 5.021855,-1.10168 10.16174,-0.75062 15.230321,-0.27469 3.081147,0.28932 8.004812,0.95018 11.061522,1.34357 8.199998,1.2149 16.287808,3.04806 24.414118,4.66028 0,0 35.90692,-25.40021 35.90692,-25.40021 v 0 c -9.17516,-0.60457 -18.36426,-1.16269 -27.4812,-2.40105 -5.08096,-0.83085 -10.13822,-1.70849 -15.16913,-2.80902 -2.50548,-0.54808 -4.66552,-0.86577 -6.9085,-2.11013 -0.47474,-0.26338 -0.81211,-0.72073 -1.21817,-1.08109 0,0 -39.283902,29.21101 -39.283902,29.21101 z" />
    <path
       style="fill:#ff9955;stroke-width:0.264583"
       id="path14954"
       d="m 166.88686,152.19228 c -0.5305,-0.0246 -0.31247,0.0672 -0.67622,-0.2152 -13.10903,9.42575 -26.67093,18.25163 -39.32708,28.27726 -0.95617,0.75743 2.44233,-0.10473 3.65941,-0.0229 3.17622,0.21345 5.66911,0.84322 8.78674,1.48597 7.4002,1.82396 14.52063,4.57176 21.5717,7.42761 1.02302,0.33235 2.03829,0.68962 3.06907,0.99705 2.10712,0.57591 4.37782,1.18321 6.4725,1.80811 2.76628,0.82526 5.49719,1.76046 8.23094,2.68583 4.07824,1.2586 8.15018,2.53096 12.19437,3.89542 0.50593,0.16847 1.01185,0.33694 1.51778,0.50541 0,0 38.72037,-26.67913 38.72037,-26.67913 v 0 c -0.57372,-0.1072 -1.14744,-0.2144 -1.72116,-0.3216 -4.53384,-0.90084 -9.03654,-1.94384 -13.54867,-2.94559 -6.21643,-1.26928 -12.33134,-2.8817 -18.38762,-4.77613 -7.73688,-1.99753 -15.43917,-4.15689 -23.06153,-6.55362 -2.03848,-0.83649 -4.50949,-1.63673 -6.26972,-3.0856 -0.51364,-0.42279 -0.64597,-1.93533 -1.21195,-1.58568 -14.04693,8.67776 -27.37541,18.46796 -41.06311,27.70194 0.25525,-0.20214 0.11955,-0.18669 0.40111,-0.0837 0,0 40.64307,-28.51545 40.64307,-28.51545 z" />
    <path
       style="fill:#ff9955;stroke-width:0.264583"
       id="path14956"
       d="m 143.31057,157.76826 c 0.13443,0.037 0.26885,0.074 0.40328,0.111 0.21862,0.1281 0.41452,0.30707 0.65585,0.3843 2.24938,0.71988 3.11229,0.66136 5.5393,1.05747 4.06353,0.66319 3.41279,0.59167 7.50164,1.60323 5.4693,1.45487 10.58016,3.91074 15.65255,6.36645 0,0 37.14299,-24.8736 37.14299,-24.8736 v 0 c -5.64641,-1.87593 -11.33061,-3.65712 -16.86437,-5.85232 -2.47964,-1.10717 -5.14197,-2.13592 -7.20716,-3.97231 -0.31788,-0.28266 -0.57138,-0.86004 -0.79694,-1.22258 0,0 -42.02714,26.39836 -42.02714,26.39836 z" />
    <path
       style="fill:#ff9955;stroke-width:0.264583"
       id="path14958"
       d="m 148.42219,139.6628 c 1.309,2.59896 3.89328,3.52497 6.26792,4.90021 0.38525,0.2363 0.77049,0.47259 1.15574,0.70889 0,0 39.9995,-25.79687 39.9995,-25.79687 v 0 c -0.3789,-0.23765 -0.7578,-0.47529 -1.1367,-0.71293 -0.6695,-0.45015 -1.33869,-0.86569 -1.94593,-1.4007 -0.21229,-0.18703 -0.3978,-0.40267 -0.58778,-0.61232 -0.0561,-0.0619 -0.22066,-0.24496 -0.14944,-0.20125 0.24364,0.14951 0.34744,0.47652 0.63824,0.57278 0,0 -44.24155,22.54219 -44.24155,22.54219 z" />
  </g>
</svg>
